<?xml version="1.0" encoding="utf-8"?>
<!-- Generator: Adobe Illustrator 16.0.0, SVG Export Plug-In . SVG Version: 6.00 Build 0)  -->
<!DOCTYPE svg PUBLIC "-//W3C//DTD SVG 1.1//EN" "http://www.w3.org/Graphics/SVG/1.1/DTD/svg11.dtd">
<svg version="1.1" id="Layer_1" xmlns="http://www.w3.org/2000/svg" xmlns:xlink="http://www.w3.org/1999/xlink" x="0px" y="0px"
	 width="1000px" height="1000px" viewBox="0 0 1000 1000" enable-background="new 0 0 1000 1000" xml:space="preserve">
<path d="M340.977,649.594c0,4.525-3.668,8.192-8.192,8.192s-8.191-3.667-8.191-8.192c0-4.523,3.667-8.191,8.191-8.191
	S340.977,645.07,340.977,649.594"/>
<circle fill="none" stroke="#00F472" stroke-width="0.5" stroke-miterlimit="10" cx="332.785" cy="649.594" r="8.192"/>
<path d="M311.648,646.564c1.551-0.215,3.036,0.79,3.391,2.345l3.738,16.397c0.375,1.644-0.654,3.279-2.297,3.653
	c-1.642,0.375-3.28-0.653-3.653-2.297l-3.739-16.396c-0.374-1.644,0.653-3.28,2.296-3.654
	C311.474,646.592,311.561,646.576,311.648,646.564"/>
<path fill="none" stroke="#00F472" stroke-width="0.5" stroke-miterlimit="10" d="M311.648,646.564
	c1.551-0.215,3.036,0.79,3.391,2.345l3.738,16.397c0.375,1.644-0.654,3.279-2.297,3.653c-1.642,0.375-3.28-0.653-3.653-2.297
	l-3.739-16.396c-0.374-1.644,0.653-3.28,2.296-3.654C311.474,646.592,311.561,646.576,311.648,646.564z"/>
<path d="M317.915,705.432c-1.526-0.243-2.651-1.606-2.564-3.183l0.816-14.771c0.093-1.683,1.533-2.973,3.215-2.879
	c1.681,0.094,2.972,1.532,2.879,3.216l-0.816,14.771c-0.093,1.684-1.534,2.972-3.216,2.879
	C318.122,705.459,318.018,705.447,317.915,705.432"/>
<path fill="none" stroke="#00F472" stroke-width="0.5" stroke-miterlimit="10" d="M317.915,705.432
	c-1.526-0.243-2.651-1.606-2.564-3.183l0.816-14.771c0.093-1.683,1.533-2.973,3.215-2.879c1.681,0.094,2.972,1.532,2.879,3.216
	l-0.816,14.771c-0.093,1.684-1.534,2.972-3.216,2.879C318.122,705.459,318.018,705.447,317.915,705.432z"/>
<path d="M338.826,706.752c-1.545,0-2.871-1.169-3.033-2.74l-1.513-14.717c-0.173-1.677,1.047-3.176,2.724-3.348
	c1.674-0.171,3.175,1.047,3.348,2.724l1.513,14.717c0.173,1.676-1.046,3.175-2.723,3.348
	C339.036,706.746,338.93,706.752,338.826,706.752"/>
<path fill="none" stroke="#00F472" stroke-width="0.5" stroke-miterlimit="10" d="M338.826,706.752c-1.545,0-2.871-1.169-3.033-2.74
	l-1.513-14.717c-0.173-1.677,1.047-3.176,2.724-3.348c1.674-0.171,3.175,1.047,3.348,2.724l1.513,14.717
	c0.173,1.676-1.046,3.175-2.723,3.348C339.036,706.746,338.93,706.752,338.826,706.752z"/>
<path d="M343.541,673.465c0,7.461-6.048,13.51-13.51,13.51c-7.46,0-13.509-6.049-13.509-13.51c0-7.462,6.049-13.511,13.509-13.511
	C337.493,659.954,343.541,666.003,343.541,673.465"/>
<circle fill="none" stroke="#00F472" stroke-width="0.5" stroke-miterlimit="10" cx="330.031" cy="673.465" r="13.51"/>
<path d="M341.444,669.641c-1.399-0.703-2.053-2.373-1.464-3.854l6.217-15.627c0.623-1.565,2.398-2.331,3.963-1.708
	c1.564,0.623,2.331,2.398,1.708,3.964l-6.216,15.627c-0.624,1.566-2.398,2.331-3.964,1.707
	C341.605,669.716,341.524,669.68,341.444,669.641"/>
<path fill="none" stroke="#00F472" stroke-width="0.5" stroke-miterlimit="10" d="M341.444,669.641
	c-1.399-0.703-2.053-2.373-1.464-3.854l6.217-15.627c0.623-1.565,2.398-2.331,3.963-1.708c1.564,0.623,2.331,2.398,1.708,3.964
	l-6.216,15.627c-0.624,1.566-2.398,2.331-3.964,1.707C341.605,669.716,341.524,669.68,341.444,669.641z"/>
<path d="M387.987,657.786c0,4.524-3.668,8.192-8.192,8.192c-4.524,0-8.192-3.668-8.192-8.192s3.668-8.191,8.192-8.191
	C384.319,649.595,387.987,653.262,387.987,657.786"/>
<circle fill="none" stroke="#00F472" stroke-width="0.5" stroke-miterlimit="10" cx="379.794" cy="657.786" r="8.192"/>
<path d="M358.658,654.756c1.551-0.215,3.037,0.79,3.392,2.346l3.738,16.397c0.375,1.643-0.654,3.278-2.297,3.653
	c-1.642,0.374-3.279-0.654-3.654-2.297l-3.738-16.397c-0.375-1.643,0.654-3.28,2.297-3.653
	C358.483,654.784,358.571,654.768,358.658,654.756"/>
<path fill="none" stroke="#00F472" stroke-width="0.5" stroke-miterlimit="10" d="M358.658,654.756
	c1.551-0.215,3.037,0.79,3.392,2.346l3.738,16.397c0.375,1.643-0.654,3.278-2.297,3.653c-1.642,0.374-3.279-0.654-3.654-2.297
	l-3.738-16.397c-0.375-1.643,0.654-3.28,2.297-3.653C358.483,654.784,358.571,654.768,358.658,654.756z"/>
<path d="M364.924,713.623c-1.526-0.243-2.651-1.605-2.564-3.182l0.816-14.771c0.093-1.683,1.533-2.973,3.215-2.879
	c1.681,0.094,2.971,1.532,2.879,3.215l-0.816,14.771c-0.093,1.684-1.534,2.972-3.216,2.879
	C365.132,713.65,365.027,713.64,364.924,713.623"/>
<path fill="none" stroke="#00F472" stroke-width="0.5" stroke-miterlimit="10" d="M364.924,713.623
	c-1.526-0.243-2.651-1.605-2.564-3.182l0.816-14.771c0.093-1.683,1.533-2.973,3.215-2.879c1.681,0.094,2.971,1.532,2.879,3.215
	l-0.816,14.771c-0.093,1.684-1.534,2.972-3.216,2.879C365.132,713.65,365.027,713.64,364.924,713.623z"/>
<path d="M385.835,714.943c-1.545,0-2.87-1.169-3.031-2.74l-1.515-14.716c-0.172-1.678,1.048-3.176,2.725-3.349
	c1.674-0.17,3.174,1.048,3.348,2.724l1.513,14.717c0.174,1.677-1.047,3.175-2.723,3.348
	C386.045,714.938,385.94,714.943,385.835,714.943"/>
<path fill="none" stroke="#00F472" stroke-width="0.5" stroke-miterlimit="10" d="M385.835,714.943c-1.545,0-2.87-1.169-3.031-2.74
	l-1.515-14.716c-0.172-1.678,1.048-3.176,2.725-3.349c1.674-0.17,3.174,1.048,3.348,2.724l1.513,14.717
	c0.174,1.677-1.047,3.175-2.723,3.348C386.045,714.938,385.94,714.943,385.835,714.943z"/>
<path d="M390.551,681.656c0,7.461-6.048,13.51-13.51,13.51s-13.509-6.049-13.509-13.51s6.048-13.51,13.509-13.51
	S390.551,674.195,390.551,681.656"/>
<circle fill="none" stroke="#00F472" stroke-width="0.5" stroke-miterlimit="10" cx="377.042" cy="681.656" r="13.51"/>
<path d="M388.455,677.832c-1.4-0.702-2.055-2.372-1.464-3.854l6.217-15.626c0.623-1.566,2.396-2.331,3.964-1.709
	c1.564,0.623,2.33,2.398,1.707,3.965l-6.216,15.626c-0.624,1.566-2.398,2.331-3.964,1.707
	C388.614,677.907,388.533,677.871,388.455,677.832"/>
<path fill="none" stroke="#00F472" stroke-width="0.5" stroke-miterlimit="10" d="M388.455,677.832
	c-1.4-0.702-2.055-2.372-1.464-3.854l6.217-15.626c0.623-1.566,2.396-2.331,3.964-1.709c1.564,0.623,2.33,2.398,1.707,3.965
	l-6.216,15.626c-0.624,1.566-2.398,2.331-3.964,1.707C388.614,677.907,388.533,677.871,388.455,677.832z"/>
<path d="M474.133,662.434c0,4.524-3.667,8.191-8.191,8.191c-4.525,0-8.192-3.667-8.192-8.191c0-4.523,3.667-8.191,8.192-8.191
	C470.466,654.242,474.133,657.91,474.133,662.434"/>
<circle fill="none" stroke="#00F472" stroke-width="0.5" stroke-miterlimit="10" cx="465.941" cy="662.434" r="8.192"/>
<path d="M444.805,659.404c1.551-0.215,3.037,0.79,3.391,2.345l3.738,16.397c0.375,1.643-0.654,3.279-2.297,3.653
	s-3.279-0.653-3.654-2.297l-3.738-16.397c-0.375-1.643,0.654-3.279,2.297-3.653C444.629,659.432,444.717,659.416,444.805,659.404"/>
<path fill="none" stroke="#00F472" stroke-width="0.5" stroke-miterlimit="10" d="M444.805,659.404
	c1.551-0.215,3.037,0.79,3.391,2.345l3.738,16.397c0.375,1.643-0.654,3.279-2.297,3.653s-3.279-0.653-3.654-2.297l-3.738-16.397
	c-0.375-1.643,0.654-3.279,2.297-3.653C444.629,659.432,444.717,659.416,444.805,659.404z"/>
<path d="M451.07,718.271c-1.526-0.242-2.651-1.605-2.564-3.182l0.816-14.771c0.094-1.683,1.534-2.973,3.216-2.879
	c1.68,0.094,2.971,1.532,2.879,3.215l-0.817,14.772c-0.093,1.682-1.533,2.971-3.215,2.878
	C451.278,718.298,451.173,718.287,451.07,718.271"/>
<path fill="none" stroke="#00F472" stroke-width="0.5" stroke-miterlimit="10" d="M451.07,718.271
	c-1.526-0.242-2.651-1.605-2.564-3.182l0.816-14.771c0.094-1.683,1.534-2.973,3.216-2.879c1.68,0.094,2.971,1.532,2.879,3.215
	l-0.817,14.772c-0.093,1.682-1.533,2.971-3.215,2.878C451.278,718.298,451.173,718.287,451.07,718.271z"/>
<path d="M471.982,719.591c-1.546,0-2.871-1.169-3.032-2.74l-1.514-14.716c-0.173-1.677,1.047-3.176,2.724-3.348
	c1.675-0.171,3.175,1.047,3.348,2.723l1.513,14.718c0.173,1.676-1.047,3.175-2.723,3.347
	C472.192,719.586,472.086,719.591,471.982,719.591"/>
<path fill="none" stroke="#00F472" stroke-width="0.5" stroke-miterlimit="10" d="M471.982,719.591c-1.546,0-2.871-1.169-3.032-2.74
	l-1.514-14.716c-0.173-1.677,1.047-3.176,2.724-3.348c1.675-0.171,3.175,1.047,3.348,2.723l1.513,14.718
	c0.173,1.676-1.047,3.175-2.723,3.347C472.192,719.586,472.086,719.591,471.982,719.591z"/>
<path d="M476.698,686.304c0,7.462-6.048,13.511-13.51,13.511c-7.461,0-13.51-6.049-13.51-13.511c0-7.461,6.048-13.51,13.51-13.51
	C470.65,672.794,476.698,678.843,476.698,686.304"/>
<circle fill="none" stroke="#00F472" stroke-width="0.5" stroke-miterlimit="10" cx="463.188" cy="686.304" r="13.51"/>
<path d="M474.602,682.479c-1.401-0.702-2.055-2.372-1.464-3.854l6.216-15.628c0.624-1.565,2.397-2.33,3.964-1.707
	c1.564,0.623,2.331,2.397,1.707,3.964l-6.216,15.626c-0.624,1.566-2.397,2.331-3.964,1.708
	C474.761,682.556,474.68,682.52,474.602,682.479"/>
<path fill="none" stroke="#00F472" stroke-width="0.5" stroke-miterlimit="10" d="M474.602,682.479
	c-1.401-0.702-2.055-2.372-1.464-3.854l6.216-15.628c0.624-1.565,2.397-2.33,3.964-1.707c1.564,0.623,2.331,2.397,1.707,3.964
	l-6.216,15.626c-0.624,1.566-2.397,2.331-3.964,1.708C474.761,682.556,474.68,682.52,474.602,682.479z"/>
<path d="M431.06,657.174c0,4.524-3.667,8.191-8.191,8.191s-8.192-3.667-8.192-8.191s3.668-8.191,8.192-8.191
	S431.06,652.649,431.06,657.174"/>
<circle fill="none" stroke="#00F472" stroke-width="0.5" stroke-miterlimit="10" cx="422.868" cy="657.174" r="8.192"/>
<path d="M401.732,654.144c1.551-0.215,3.036,0.79,3.391,2.345l3.739,16.397c0.374,1.644-0.654,3.279-2.298,3.653
	c-1.641,0.375-3.278-0.653-3.653-2.297l-3.737-16.396c-0.375-1.644,0.653-3.279,2.296-3.654
	C401.557,654.172,401.644,654.156,401.732,654.144"/>
<path fill="none" stroke="#00F472" stroke-width="0.5" stroke-miterlimit="10" d="M401.732,654.144
	c1.551-0.215,3.036,0.79,3.391,2.345l3.739,16.397c0.374,1.644-0.654,3.279-2.298,3.653c-1.641,0.375-3.278-0.653-3.653-2.297
	l-3.737-16.396c-0.375-1.644,0.653-3.279,2.296-3.654C401.557,654.172,401.644,654.156,401.732,654.144z"/>
<path d="M407.998,713.011c-1.526-0.243-2.652-1.606-2.564-3.183l0.816-14.771c0.093-1.682,1.532-2.972,3.215-2.878
	c1.681,0.094,2.972,1.532,2.878,3.215l-0.816,14.771c-0.092,1.683-1.533,2.972-3.216,2.879
	C408.206,713.038,408.101,713.026,407.998,713.011"/>
<path fill="none" stroke="#00F472" stroke-width="0.5" stroke-miterlimit="10" d="M407.998,713.011
	c-1.526-0.243-2.652-1.606-2.564-3.183l0.816-14.771c0.093-1.682,1.532-2.972,3.215-2.878c1.681,0.094,2.972,1.532,2.878,3.215
	l-0.816,14.771c-0.092,1.683-1.533,2.972-3.216,2.879C408.206,713.038,408.101,713.026,407.998,713.011z"/>
<path d="M428.91,714.331c-1.546,0-2.872-1.169-3.033-2.74l-1.513-14.716c-0.172-1.678,1.047-3.176,2.724-3.349
	c1.674-0.171,3.175,1.047,3.348,2.724l1.513,14.717c0.172,1.676-1.047,3.175-2.724,3.348
	C429.119,714.325,429.014,714.331,428.91,714.331"/>
<path fill="none" stroke="#00F472" stroke-width="0.5" stroke-miterlimit="10" d="M428.91,714.331c-1.546,0-2.872-1.169-3.033-2.74
	l-1.513-14.716c-0.172-1.678,1.047-3.176,2.724-3.349c1.674-0.171,3.175,1.047,3.348,2.724l1.513,14.717
	c0.172,1.676-1.047,3.175-2.724,3.348C429.119,714.325,429.014,714.331,428.91,714.331z"/>
<path d="M433.625,681.044c0,7.461-6.049,13.51-13.51,13.51c-7.46,0-13.51-6.049-13.51-13.51c0-7.462,6.049-13.511,13.51-13.511
	C427.576,667.533,433.625,673.582,433.625,681.044"/>
<circle fill="none" stroke="#00F472" stroke-width="0.5" stroke-miterlimit="10" cx="420.115" cy="681.044" r="13.51"/>
<path d="M431.528,677.22c-1.4-0.703-2.054-2.372-1.464-3.854l6.216-15.627c0.624-1.565,2.398-2.331,3.964-1.708
	c1.564,0.623,2.331,2.397,1.708,3.965l-6.216,15.626c-0.623,1.566-2.397,2.33-3.963,1.707
	C431.688,677.295,431.607,677.259,431.528,677.22"/>
<path fill="none" stroke="#00F472" stroke-width="0.5" stroke-miterlimit="10" d="M431.528,677.22
	c-1.4-0.703-2.054-2.372-1.464-3.854l6.216-15.627c0.624-1.565,2.398-2.331,3.964-1.708c1.564,0.623,2.331,2.397,1.708,3.965
	l-6.216,15.626c-0.623,1.566-2.397,2.33-3.963,1.707C431.688,677.295,431.607,677.259,431.528,677.22z"/>
<path d="M516.354,664.557c0,4.523-3.668,8.191-8.192,8.191s-8.193-3.668-8.193-8.191c0-4.524,3.669-8.191,8.193-8.191
	S516.354,660.032,516.354,664.557"/>
<circle fill="none" stroke="#00F472" stroke-width="0.5" stroke-miterlimit="10" cx="508.162" cy="664.557" r="8.193"/>
<path d="M487.024,661.526c1.551-0.215,3.036,0.79,3.391,2.345l3.738,16.397c0.375,1.644-0.653,3.279-2.297,3.653
	c-1.642,0.374-3.279-0.653-3.653-2.297l-3.739-16.397c-0.375-1.643,0.653-3.278,2.296-3.653
	C486.849,661.554,486.937,661.539,487.024,661.526"/>
<path fill="none" stroke="#00F472" stroke-width="0.5" stroke-miterlimit="10" d="M487.024,661.526
	c1.551-0.215,3.036,0.79,3.391,2.345l3.738,16.397c0.375,1.644-0.653,3.279-2.297,3.653c-1.642,0.374-3.279-0.653-3.653-2.297
	l-3.739-16.397c-0.375-1.643,0.653-3.278,2.296-3.653C486.849,661.554,486.937,661.539,487.024,661.526z"/>
<path d="M493.29,720.393c-1.526-0.242-2.651-1.605-2.564-3.182l0.816-14.771c0.093-1.683,1.533-2.973,3.215-2.879
	c1.681,0.094,2.971,1.533,2.879,3.216l-0.816,14.771c-0.093,1.683-1.534,2.971-3.216,2.878
	C493.498,720.42,493.393,720.409,493.29,720.393"/>
<path fill="none" stroke="#00F472" stroke-width="0.5" stroke-miterlimit="10" d="M493.29,720.393
	c-1.526-0.242-2.651-1.605-2.564-3.182l0.816-14.771c0.093-1.683,1.533-2.973,3.215-2.879c1.681,0.094,2.971,1.533,2.879,3.216
	l-0.816,14.771c-0.093,1.683-1.534,2.971-3.216,2.878C493.498,720.42,493.393,720.409,493.29,720.393z"/>
<path d="M514.204,721.714c-1.546,0-2.871-1.17-3.033-2.741l-1.513-14.715c-0.173-1.678,1.047-3.176,2.724-3.349
	c1.674-0.171,3.176,1.047,3.348,2.724l1.514,14.716c0.172,1.677-1.047,3.176-2.724,3.348
	C514.414,721.708,514.309,721.714,514.204,721.714"/>
<path fill="none" stroke="#00F472" stroke-width="0.5" stroke-miterlimit="10" d="M514.204,721.714c-1.546,0-2.871-1.17-3.033-2.741
	l-1.513-14.715c-0.173-1.678,1.047-3.176,2.724-3.349c1.674-0.171,3.176,1.047,3.348,2.724l1.514,14.716
	c0.172,1.677-1.047,3.176-2.724,3.348C514.414,721.708,514.309,721.714,514.204,721.714z"/>
<path d="M518.919,688.427c0,7.461-6.049,13.51-13.511,13.51s-13.511-6.049-13.511-13.51c0-7.462,6.049-13.511,13.511-13.511
	S518.919,680.965,518.919,688.427"/>
<circle fill="none" stroke="#00F472" stroke-width="0.5" stroke-miterlimit="10" cx="505.408" cy="688.427" r="13.511"/>
<path d="M516.822,684.602c-1.399-0.702-2.054-2.371-1.464-3.854l6.217-15.626c0.622-1.566,2.397-2.33,3.964-1.708
	c1.563,0.623,2.331,2.397,1.707,3.964l-6.216,15.627c-0.623,1.565-2.398,2.33-3.964,1.707
	C516.982,684.678,516.901,684.642,516.822,684.602"/>
<path fill="none" stroke="#00F472" stroke-width="0.5" stroke-miterlimit="10" d="M516.822,684.602
	c-1.399-0.702-2.054-2.371-1.464-3.854l6.217-15.626c0.622-1.566,2.397-2.33,3.964-1.708c1.563,0.623,2.331,2.397,1.707,3.964
	l-6.216,15.627c-0.623,1.565-2.398,2.33-3.964,1.707C516.982,684.678,516.901,684.642,516.822,684.602z"/>
<path d="M350.192,670.923c0,4.524-3.668,8.191-8.192,8.191c-4.524,0-8.192-3.667-8.192-8.191c0-4.523,3.668-8.191,8.192-8.191
	C346.524,662.731,350.192,666.399,350.192,670.923"/>
<circle fill="none" stroke="#00F472" stroke-width="0.5" stroke-miterlimit="10" cx="342" cy="670.923" r="8.192"/>
<path d="M320.864,667.893c1.551-0.214,3.036,0.791,3.392,2.346l3.738,16.397c0.375,1.643-0.654,3.279-2.297,3.652
	c-1.642,0.375-3.279-0.652-3.654-2.296l-3.737-16.397c-0.375-1.643,0.654-3.279,2.297-3.653
	C320.688,667.921,320.776,667.905,320.864,667.893"/>
<path fill="none" stroke="#00F472" stroke-width="0.5" stroke-miterlimit="10" d="M320.864,667.893
	c1.551-0.214,3.036,0.791,3.392,2.346l3.738,16.397c0.375,1.643-0.654,3.279-2.297,3.652c-1.642,0.375-3.279-0.652-3.654-2.296
	l-3.737-16.397c-0.375-1.643,0.654-3.279,2.297-3.653C320.688,667.921,320.776,667.905,320.864,667.893z"/>
<path d="M327.13,726.76c-1.526-0.242-2.652-1.605-2.565-3.182l0.817-14.771c0.092-1.684,1.532-2.973,3.215-2.879
	c1.68,0.094,2.971,1.532,2.878,3.215l-0.816,14.771c-0.094,1.684-1.533,2.972-3.216,2.879
	C327.337,726.787,327.233,726.776,327.13,726.76"/>
<path fill="none" stroke="#00F472" stroke-width="0.5" stroke-miterlimit="10" d="M327.13,726.76
	c-1.526-0.242-2.652-1.605-2.565-3.182l0.817-14.771c0.092-1.684,1.532-2.973,3.215-2.879c1.68,0.094,2.971,1.532,2.878,3.215
	l-0.816,14.771c-0.094,1.684-1.533,2.972-3.216,2.879C327.337,726.787,327.233,726.776,327.13,726.76z"/>
<path d="M348.042,728.08c-1.545,0-2.871-1.169-3.032-2.74l-1.514-14.716c-0.172-1.677,1.047-3.176,2.724-3.349
	c1.674-0.17,3.175,1.048,3.348,2.724l1.513,14.717c0.173,1.677-1.047,3.176-2.724,3.348
	C348.252,728.075,348.146,728.08,348.042,728.08"/>
<path fill="none" stroke="#00F472" stroke-width="0.5" stroke-miterlimit="10" d="M348.042,728.08c-1.545,0-2.871-1.169-3.032-2.74
	l-1.514-14.716c-0.172-1.677,1.047-3.176,2.724-3.349c1.674-0.17,3.175,1.048,3.348,2.724l1.513,14.717
	c0.173,1.677-1.047,3.176-2.724,3.348C348.252,728.075,348.146,728.08,348.042,728.08z"/>
<path d="M352.756,694.793c0,7.462-6.048,13.511-13.51,13.511s-13.509-6.049-13.509-13.511c0-7.461,6.048-13.51,13.509-13.51
	S352.756,687.332,352.756,694.793"/>
<circle fill="none" stroke="#00F472" stroke-width="0.5" stroke-miterlimit="10" cx="339.247" cy="694.793" r="13.51"/>
<path d="M350.66,690.969c-1.4-0.702-2.054-2.372-1.464-3.854l6.217-15.628c0.623-1.565,2.397-2.33,3.964-1.707
	c1.564,0.623,2.33,2.397,1.708,3.964l-6.216,15.626c-0.623,1.566-2.398,2.331-3.964,1.708
	C350.82,691.045,350.738,691.009,350.66,690.969"/>
<path fill="none" stroke="#00F472" stroke-width="0.5" stroke-miterlimit="10" d="M350.66,690.969
	c-1.4-0.702-2.054-2.372-1.464-3.854l6.217-15.628c0.623-1.565,2.397-2.33,3.964-1.707c1.564,0.623,2.33,2.397,1.708,3.964
	l-6.216,15.626c-0.623,1.566-2.398,2.331-3.964,1.708C350.82,691.045,350.738,691.009,350.66,690.969z"/>
<path d="M400.979,682.27c0,4.523-3.667,8.191-8.191,8.191c-4.524,0-8.192-3.668-8.192-8.191c0-4.524,3.667-8.192,8.192-8.192
	C397.312,674.077,400.979,677.745,400.979,682.27"/>
<circle fill="none" stroke="#00F472" stroke-width="0.5" stroke-miterlimit="10" cx="392.787" cy="682.27" r="8.192"/>
<path d="M371.651,679.239c1.551-0.216,3.037,0.789,3.391,2.345l3.738,16.397c0.374,1.644-0.654,3.278-2.297,3.653
	c-1.642,0.374-3.279-0.654-3.653-2.297l-3.738-16.397c-0.375-1.643,0.653-3.279,2.297-3.653
	C371.476,679.267,371.564,679.251,371.651,679.239"/>
<path fill="none" stroke="#00F472" stroke-width="0.5" stroke-miterlimit="10" d="M371.651,679.239
	c1.551-0.216,3.037,0.789,3.391,2.345l3.738,16.397c0.374,1.644-0.654,3.278-2.297,3.653c-1.642,0.374-3.279-0.654-3.653-2.297
	l-3.738-16.397c-0.375-1.643,0.653-3.279,2.297-3.653C371.476,679.267,371.564,679.251,371.651,679.239z"/>
<path d="M377.917,738.105c-1.526-0.243-2.651-1.605-2.564-3.182l0.816-14.771c0.094-1.683,1.533-2.973,3.216-2.879
	c1.68,0.094,2.972,1.533,2.879,3.215l-0.817,14.771c-0.092,1.684-1.533,2.972-3.215,2.879
	C378.125,738.133,378.02,738.122,377.917,738.105"/>
<path fill="none" stroke="#00F472" stroke-width="0.5" stroke-miterlimit="10" d="M377.917,738.105
	c-1.526-0.243-2.651-1.605-2.564-3.182l0.816-14.771c0.094-1.683,1.533-2.973,3.216-2.879c1.68,0.094,2.972,1.533,2.879,3.215
	l-0.817,14.771c-0.092,1.684-1.533,2.972-3.215,2.879C378.125,738.133,378.02,738.122,377.917,738.105z"/>
<path d="M398.829,739.426c-1.546,0-2.871-1.169-3.033-2.74l-1.514-14.716c-0.172-1.677,1.048-3.176,2.724-3.349
	c1.675-0.17,3.175,1.048,3.348,2.725l1.513,14.716c0.173,1.677-1.047,3.176-2.723,3.348
	C399.039,739.42,398.933,739.426,398.829,739.426"/>
<path fill="none" stroke="#00F472" stroke-width="0.5" stroke-miterlimit="10" d="M398.829,739.426c-1.546,0-2.871-1.169-3.033-2.74
	l-1.514-14.716c-0.172-1.677,1.048-3.176,2.724-3.349c1.675-0.17,3.175,1.048,3.348,2.725l1.513,14.716
	c0.173,1.677-1.047,3.176-2.723,3.348C399.039,739.42,398.933,739.426,398.829,739.426z"/>
<path d="M403.545,706.139c0,7.462-6.049,13.51-13.51,13.51s-13.51-6.048-13.51-13.51c0-7.461,6.049-13.51,13.51-13.51
	S403.545,698.678,403.545,706.139"/>
<circle fill="none" stroke="#00F472" stroke-width="0.5" stroke-miterlimit="10" cx="390.035" cy="706.139" r="13.51"/>
<path d="M401.447,702.314c-1.4-0.702-2.053-2.371-1.464-3.854l6.217-15.626c0.623-1.566,2.398-2.331,3.963-1.708
	c1.564,0.622,2.331,2.397,1.707,3.964l-6.216,15.626c-0.624,1.566-2.398,2.331-3.964,1.708
	C401.608,702.391,401.526,702.354,401.447,702.314"/>
<path fill="none" stroke="#00F472" stroke-width="0.5" stroke-miterlimit="10" d="M401.447,702.314
	c-1.4-0.702-2.053-2.371-1.464-3.854l6.217-15.626c0.623-1.566,2.398-2.331,3.963-1.708c1.564,0.622,2.331,2.397,1.707,3.964
	l-6.216,15.626c-0.624,1.566-2.398,2.331-3.964,1.708C401.608,702.391,401.526,702.354,401.447,702.314z"/>
<path d="M446.436,683.82c0,4.524-3.667,8.192-8.191,8.192s-8.192-3.668-8.192-8.192s3.668-8.191,8.192-8.191
	S446.436,679.296,446.436,683.82"/>
<circle fill="none" stroke="#00F472" stroke-width="0.5" stroke-miterlimit="10" cx="438.244" cy="683.82" r="8.192"/>
<path d="M417.108,680.791c1.551-0.216,3.036,0.789,3.39,2.344l3.739,16.397c0.375,1.645-0.654,3.28-2.296,3.654
	c-1.643,0.374-3.28-0.653-3.654-2.297l-3.738-16.397c-0.375-1.644,0.654-3.279,2.296-3.653
	C416.933,680.818,417.02,680.803,417.108,680.791"/>
<path fill="none" stroke="#00F472" stroke-width="0.5" stroke-miterlimit="10" d="M417.108,680.791
	c1.551-0.216,3.036,0.789,3.39,2.344l3.739,16.397c0.375,1.645-0.654,3.28-2.296,3.654c-1.643,0.374-3.28-0.653-3.654-2.297
	l-3.738-16.397c-0.375-1.644,0.654-3.279,2.296-3.653C416.933,680.818,417.02,680.803,417.108,680.791z"/>
<path d="M423.374,739.657c-1.526-0.243-2.652-1.605-2.564-3.183l0.816-14.771c0.092-1.682,1.532-2.972,3.215-2.878
	c1.681,0.094,2.971,1.532,2.878,3.215l-0.816,14.771c-0.093,1.684-1.533,2.972-3.216,2.88
	C423.581,739.686,423.477,739.674,423.374,739.657"/>
<path fill="none" stroke="#00F472" stroke-width="0.5" stroke-miterlimit="10" d="M423.374,739.657
	c-1.526-0.243-2.652-1.605-2.564-3.183l0.816-14.771c0.092-1.682,1.532-2.972,3.215-2.878c1.681,0.094,2.971,1.532,2.878,3.215
	l-0.816,14.771c-0.093,1.684-1.533,2.972-3.216,2.88C423.581,739.686,423.477,739.674,423.374,739.657z"/>
<path d="M444.285,740.978c-1.546,0-2.871-1.169-3.033-2.74l-1.513-14.716c-0.172-1.677,1.047-3.176,2.724-3.348
	c1.674-0.172,3.175,1.047,3.348,2.724l1.514,14.716c0.172,1.676-1.047,3.175-2.724,3.348
	C444.495,740.973,444.39,740.978,444.285,740.978"/>
<path fill="none" stroke="#00F472" stroke-width="0.5" stroke-miterlimit="10" d="M444.285,740.978c-1.546,0-2.871-1.169-3.033-2.74
	l-1.513-14.716c-0.172-1.677,1.047-3.176,2.724-3.348c1.674-0.172,3.175,1.047,3.348,2.724l1.514,14.716
	c0.172,1.676-1.047,3.175-2.724,3.348C444.495,740.973,444.39,740.978,444.285,740.978z"/>
<path d="M449,707.69c0,7.462-6.049,13.51-13.51,13.51s-13.509-6.048-13.509-13.51s6.048-13.51,13.509-13.51S449,700.229,449,707.69"
	/>
<circle fill="none" stroke="#00F472" stroke-width="0.5" stroke-miterlimit="10" cx="435.491" cy="707.69" r="13.51"/>
<path d="M446.904,703.866c-1.4-0.703-2.054-2.372-1.464-3.854l6.216-15.626c0.623-1.566,2.398-2.331,3.964-1.709
	c1.564,0.624,2.331,2.398,1.708,3.965l-6.216,15.626c-0.624,1.566-2.397,2.331-3.963,1.707
	C447.064,703.941,446.983,703.906,446.904,703.866"/>
<path fill="none" stroke="#00F472" stroke-width="0.5" stroke-miterlimit="10" d="M446.904,703.866
	c-1.4-0.703-2.054-2.372-1.464-3.854l6.216-15.626c0.623-1.566,2.398-2.331,3.964-1.709c1.564,0.624,2.331,2.398,1.708,3.965
	l-6.216,15.626c-0.624,1.566-2.397,2.331-3.963,1.707C447.064,703.941,446.983,703.906,446.904,703.866z"/>
<path d="M494.299,688.566c0,4.523-3.667,8.191-8.192,8.191c-4.524,0-8.192-3.668-8.192-8.191c0-4.525,3.668-8.192,8.192-8.192
	C490.631,680.374,494.299,684.041,494.299,688.566"/>
<circle fill="none" stroke="#00F472" stroke-width="0.5" stroke-miterlimit="10" cx="486.106" cy="688.566" r="8.192"/>
<path d="M464.97,685.536c1.551-0.216,3.037,0.789,3.392,2.345l3.738,16.396c0.375,1.645-0.654,3.28-2.297,3.654
	c-1.642,0.374-3.279-0.653-3.654-2.297l-3.738-16.397c-0.375-1.644,0.654-3.279,2.297-3.653
	C464.795,685.563,464.883,685.548,464.97,685.536"/>
<path fill="none" stroke="#00F472" stroke-width="0.5" stroke-miterlimit="10" d="M464.97,685.536
	c1.551-0.216,3.037,0.789,3.392,2.345l3.738,16.396c0.375,1.645-0.654,3.28-2.297,3.654c-1.642,0.374-3.279-0.653-3.654-2.297
	l-3.738-16.397c-0.375-1.644,0.654-3.279,2.297-3.653C464.795,685.563,464.883,685.548,464.97,685.536z"/>
<path d="M471.236,744.402c-1.526-0.242-2.651-1.605-2.564-3.183l0.816-14.771c0.093-1.682,1.533-2.972,3.215-2.878
	c1.681,0.094,2.971,1.533,2.879,3.215l-0.816,14.771c-0.093,1.684-1.534,2.973-3.216,2.88
	C471.444,744.431,471.339,744.419,471.236,744.402"/>
<path fill="none" stroke="#00F472" stroke-width="0.5" stroke-miterlimit="10" d="M471.236,744.402
	c-1.526-0.242-2.651-1.605-2.564-3.183l0.816-14.771c0.093-1.682,1.533-2.972,3.215-2.878c1.681,0.094,2.971,1.533,2.879,3.215
	l-0.816,14.771c-0.093,1.684-1.534,2.973-3.216,2.88C471.444,744.431,471.339,744.419,471.236,744.402z"/>
<path d="M492.147,745.723c-1.545,0-2.87-1.169-3.031-2.74l-1.515-14.715c-0.172-1.678,1.048-3.177,2.725-3.349
	c1.674-0.172,3.174,1.047,3.348,2.724l1.513,14.716c0.174,1.677-1.047,3.175-2.723,3.348
	C492.357,745.718,492.252,745.723,492.147,745.723"/>
<path fill="none" stroke="#00F472" stroke-width="0.5" stroke-miterlimit="10" d="M492.147,745.723c-1.545,0-2.87-1.169-3.031-2.74
	l-1.515-14.715c-0.172-1.678,1.048-3.177,2.725-3.349c1.674-0.172,3.174,1.047,3.348,2.724l1.513,14.716
	c0.174,1.677-1.047,3.175-2.723,3.348C492.357,745.718,492.252,745.723,492.147,745.723z"/>
<path d="M496.863,712.436c0,7.461-6.048,13.51-13.51,13.51s-13.509-6.049-13.509-13.51c0-7.462,6.048-13.51,13.509-13.51
	S496.863,704.974,496.863,712.436"/>
<circle fill="none" stroke="#00F472" stroke-width="0.5" stroke-miterlimit="10" cx="483.354" cy="712.436" r="13.51"/>
<path d="M494.766,708.611c-1.399-0.703-2.053-2.372-1.464-3.854l6.217-15.626c0.623-1.566,2.398-2.331,3.965-1.709
	c1.565,0.624,2.332,2.398,1.709,3.965l-6.218,15.627c-0.624,1.565-2.398,2.33-3.964,1.707
	C494.926,708.688,494.846,708.651,494.766,708.611"/>
<path fill="none" stroke="#00F472" stroke-width="0.5" stroke-miterlimit="10" d="M494.766,708.611
	c-1.399-0.703-2.053-2.372-1.464-3.854l6.217-15.626c0.623-1.566,2.398-2.331,3.965-1.709c1.565,0.624,2.332,2.398,1.709,3.965
	l-6.218,15.627c-0.624,1.565-2.398,2.33-3.964,1.707C494.926,708.688,494.846,708.651,494.766,708.611z"/>
<path d="M328.656,687.746c0,4.523-3.668,8.191-8.191,8.191c-4.526,0-8.192-3.668-8.192-8.191c0-4.524,3.667-8.191,8.192-8.191
	C324.987,679.555,328.656,683.222,328.656,687.746"/>
<circle fill="none" stroke="#00F472" stroke-width="0.5" stroke-miterlimit="10" cx="320.464" cy="687.746" r="8.192"/>
<path d="M299.328,684.716c1.551-0.215,3.036,0.79,3.391,2.345l3.739,16.397c0.374,1.644-0.654,3.279-2.298,3.653
	c-1.642,0.374-3.279-0.653-3.654-2.297l-3.737-16.396c-0.375-1.644,0.653-3.279,2.297-3.654
	C299.151,684.743,299.24,684.729,299.328,684.716"/>
<path fill="none" stroke="#00F472" stroke-width="0.5" stroke-miterlimit="10" d="M299.328,684.716
	c1.551-0.215,3.036,0.79,3.391,2.345l3.739,16.397c0.374,1.644-0.654,3.279-2.298,3.653c-1.642,0.374-3.279-0.653-3.654-2.297
	l-3.737-16.396c-0.375-1.644,0.653-3.279,2.297-3.654C299.151,684.743,299.24,684.729,299.328,684.716z"/>
<path d="M305.593,743.582c-1.526-0.242-2.651-1.605-2.564-3.182l0.816-14.771c0.093-1.683,1.533-2.973,3.216-2.879
	c1.68,0.094,2.971,1.533,2.878,3.216l-0.817,14.771c-0.093,1.683-1.532,2.972-3.215,2.879
	C305.801,743.609,305.696,743.599,305.593,743.582"/>
<path fill="none" stroke="#00F472" stroke-width="0.5" stroke-miterlimit="10" d="M305.593,743.582
	c-1.526-0.242-2.651-1.605-2.564-3.182l0.816-14.771c0.093-1.683,1.533-2.973,3.216-2.879c1.68,0.094,2.971,1.533,2.878,3.216
	l-0.817,14.771c-0.093,1.683-1.532,2.972-3.215,2.879C305.801,743.609,305.696,743.599,305.593,743.582z"/>
<path d="M326.505,744.903c-1.546,0-2.872-1.169-3.033-2.74l-1.513-14.716c-0.173-1.678,1.047-3.176,2.724-3.349
	c1.674-0.171,3.175,1.047,3.348,2.724l1.513,14.717c0.173,1.676-1.047,3.175-2.724,3.347
	C326.714,744.897,326.608,744.903,326.505,744.903"/>
<path fill="none" stroke="#00F472" stroke-width="0.5" stroke-miterlimit="10" d="M326.505,744.903c-1.546,0-2.872-1.169-3.033-2.74
	l-1.513-14.716c-0.173-1.678,1.047-3.176,2.724-3.349c1.674-0.171,3.175,1.047,3.348,2.724l1.513,14.717
	c0.173,1.676-1.047,3.175-2.724,3.347C326.714,744.897,326.608,744.903,326.505,744.903z"/>
<path d="M331.22,711.616c0,7.461-6.048,13.51-13.51,13.51s-13.51-6.049-13.51-13.51c0-7.462,6.049-13.511,13.51-13.511
	S331.22,704.154,331.22,711.616"/>
<circle fill="none" stroke="#00F472" stroke-width="0.5" stroke-miterlimit="10" cx="317.71" cy="711.616" r="13.51"/>
<path d="M329.124,707.791c-1.401-0.702-2.054-2.371-1.464-3.854l6.216-15.627c0.624-1.566,2.398-2.33,3.964-1.708
	c1.564,0.623,2.331,2.397,1.707,3.964l-6.216,15.627c-0.623,1.565-2.397,2.33-3.963,1.707
	C329.284,707.867,329.203,707.831,329.124,707.791"/>
<path fill="none" stroke="#00F472" stroke-width="0.5" stroke-miterlimit="10" d="M329.124,707.791
	c-1.401-0.702-2.054-2.371-1.464-3.854l6.216-15.627c0.624-1.566,2.398-2.33,3.964-1.708c1.564,0.623,2.331,2.397,1.707,3.964
	l-6.216,15.627c-0.623,1.565-2.397,2.33-3.963,1.707C329.284,707.867,329.203,707.831,329.124,707.791z"/>
<path d="M371.372,695.943c0,4.524-3.668,8.191-8.192,8.191c-4.524,0-8.192-3.667-8.192-8.191c0-4.523,3.668-8.191,8.192-8.191
	C367.704,687.752,371.372,691.42,371.372,695.943"/>
<circle fill="none" stroke="#00F472" stroke-width="0.5" stroke-miterlimit="10" cx="363.179" cy="695.943" r="8.192"/>
<path d="M342.043,692.914c1.551-0.215,3.037,0.79,3.392,2.345l3.738,16.397c0.375,1.643-0.654,3.279-2.297,3.653
	c-1.642,0.374-3.279-0.653-3.654-2.297l-3.738-16.397c-0.375-1.643,0.654-3.279,2.297-3.653
	C341.868,692.941,341.956,692.926,342.043,692.914"/>
<path fill="none" stroke="#00F472" stroke-width="0.5" stroke-miterlimit="10" d="M342.043,692.914
	c1.551-0.215,3.037,0.79,3.392,2.345l3.738,16.397c0.375,1.643-0.654,3.279-2.297,3.653c-1.642,0.374-3.279-0.653-3.654-2.297
	l-3.738-16.397c-0.375-1.643,0.654-3.279,2.297-3.653C341.868,692.941,341.956,692.926,342.043,692.914z"/>
<path d="M348.309,751.781c-1.526-0.243-2.651-1.606-2.564-3.183l0.816-14.771c0.093-1.683,1.533-2.973,3.216-2.879
	c1.68,0.094,2.97,1.532,2.878,3.216l-0.816,14.771c-0.094,1.683-1.533,2.972-3.216,2.879
	C348.517,751.808,348.412,751.797,348.309,751.781"/>
<path fill="none" stroke="#00F472" stroke-width="0.5" stroke-miterlimit="10" d="M348.309,751.781
	c-1.526-0.243-2.651-1.606-2.564-3.183l0.816-14.771c0.093-1.683,1.533-2.973,3.216-2.879c1.68,0.094,2.97,1.532,2.878,3.216
	l-0.816,14.771c-0.094,1.683-1.533,2.972-3.216,2.879C348.517,751.808,348.412,751.797,348.309,751.781z"/>
<path d="M369.22,753.102c-1.545,0-2.87-1.169-3.031-2.74l-1.515-14.717c-0.172-1.677,1.048-3.176,2.725-3.348
	c1.674-0.171,3.176,1.047,3.348,2.723l1.513,14.718c0.174,1.676-1.047,3.175-2.723,3.347
	C369.431,753.096,369.325,753.102,369.22,753.102"/>
<path fill="none" stroke="#00F472" stroke-width="0.5" stroke-miterlimit="10" d="M369.22,753.102c-1.545,0-2.87-1.169-3.031-2.74
	l-1.515-14.717c-0.172-1.677,1.048-3.176,2.725-3.348c1.674-0.171,3.176,1.047,3.348,2.723l1.513,14.718
	c0.174,1.676-1.047,3.175-2.723,3.347C369.431,753.096,369.325,753.102,369.22,753.102z"/>
<path d="M373.936,719.814c0,7.461-6.048,13.51-13.51,13.51s-13.509-6.049-13.509-13.51c0-7.462,6.048-13.511,13.509-13.511
	S373.936,712.353,373.936,719.814"/>
<circle fill="none" stroke="#00F472" stroke-width="0.5" stroke-miterlimit="10" cx="360.427" cy="719.814" r="13.51"/>
<path d="M371.84,715.99c-1.4-0.703-2.055-2.373-1.464-3.854l6.217-15.628c0.623-1.564,2.396-2.33,3.964-1.707
	c1.564,0.623,2.33,2.397,1.707,3.964l-6.216,15.627c-0.624,1.565-2.398,2.33-3.964,1.707
	C371.999,716.065,371.917,716.029,371.84,715.99"/>
<path fill="none" stroke="#00F472" stroke-width="0.5" stroke-miterlimit="10" d="M371.84,715.99
	c-1.4-0.703-2.055-2.373-1.464-3.854l6.217-15.628c0.623-1.564,2.396-2.33,3.964-1.707c1.564,0.623,2.33,2.397,1.707,3.964
	l-6.216,15.627c-0.624,1.565-2.398,2.33-3.964,1.707C371.999,716.065,371.917,716.029,371.84,715.99z"/>
<path d="M424.898,706.461c0,4.524-3.667,8.191-8.191,8.191c-4.524,0-8.191-3.667-8.191-8.191s3.667-8.192,8.191-8.192
	C421.232,698.269,424.898,701.937,424.898,706.461"/>
<circle fill="none" stroke="#00F472" stroke-width="0.5" stroke-miterlimit="10" cx="416.707" cy="706.461" r="8.191"/>
<path d="M395.571,703.431c1.551-0.215,3.037,0.79,3.391,2.346l3.738,16.396c0.374,1.644-0.654,3.279-2.297,3.653
	c-1.642,0.375-3.279-0.653-3.653-2.296l-3.738-16.397c-0.374-1.643,0.653-3.279,2.297-3.654
	C395.396,703.459,395.483,703.442,395.571,703.431"/>
<path fill="none" stroke="#00F472" stroke-width="0.5" stroke-miterlimit="10" d="M395.571,703.431
	c1.551-0.215,3.037,0.79,3.391,2.346l3.738,16.396c0.374,1.644-0.654,3.279-2.297,3.653c-1.642,0.375-3.279-0.653-3.653-2.296
	l-3.738-16.397c-0.374-1.643,0.653-3.279,2.297-3.654C395.396,703.459,395.483,703.442,395.571,703.431z"/>
<path d="M401.837,762.298c-1.526-0.243-2.651-1.606-2.564-3.183l0.816-14.771c0.093-1.682,1.533-2.972,3.216-2.878
	c1.68,0.094,2.971,1.532,2.877,3.214l-0.816,14.772c-0.092,1.683-1.532,2.972-3.215,2.879
	C402.045,762.325,401.94,762.313,401.837,762.298"/>
<path fill="none" stroke="#00F472" stroke-width="0.5" stroke-miterlimit="10" d="M401.837,762.298
	c-1.526-0.243-2.651-1.606-2.564-3.183l0.816-14.771c0.093-1.682,1.533-2.972,3.216-2.878c1.68,0.094,2.971,1.532,2.877,3.214
	l-0.816,14.772c-0.092,1.683-1.532,2.972-3.215,2.879C402.045,762.325,401.94,762.313,401.837,762.298z"/>
<path d="M422.749,763.617c-1.546,0-2.871-1.168-3.033-2.739l-1.513-14.716c-0.173-1.678,1.047-3.177,2.723-3.349
	c1.675-0.17,3.176,1.047,3.348,2.724l1.514,14.717c0.172,1.676-1.048,3.175-2.724,3.348
	C422.958,763.612,422.853,763.617,422.749,763.617"/>
<path fill="none" stroke="#00F472" stroke-width="0.5" stroke-miterlimit="10" d="M422.749,763.617
	c-1.546,0-2.871-1.168-3.033-2.739l-1.513-14.716c-0.173-1.678,1.047-3.177,2.723-3.349c1.675-0.17,3.176,1.047,3.348,2.724
	l1.514,14.717c0.172,1.676-1.048,3.175-2.724,3.348C422.958,763.612,422.853,763.617,422.749,763.617z"/>
<path d="M427.464,730.33c0,7.462-6.049,13.511-13.51,13.511s-13.51-6.049-13.51-13.511c0-7.46,6.049-13.509,13.51-13.509
	S427.464,722.87,427.464,730.33"/>
<circle fill="none" stroke="#00F472" stroke-width="0.5" stroke-miterlimit="10" cx="413.954" cy="730.33" r="13.51"/>
<path d="M425.368,726.507c-1.401-0.702-2.055-2.372-1.464-3.854l6.216-15.627c0.623-1.565,2.398-2.33,3.964-1.708
	c1.564,0.623,2.33,2.397,1.707,3.965l-6.216,15.626c-0.624,1.566-2.397,2.33-3.963,1.707
	C425.528,726.582,425.446,726.546,425.368,726.507"/>
<path fill="none" stroke="#00F472" stroke-width="0.5" stroke-miterlimit="10" d="M425.368,726.507
	c-1.401-0.702-2.055-2.372-1.464-3.854l6.216-15.627c0.623-1.565,2.398-2.33,3.964-1.708c1.564,0.623,2.33,2.397,1.707,3.965
	l-6.216,15.626c-0.624,1.566-2.397,2.33-3.963,1.707C425.528,726.582,425.446,726.546,425.368,726.507z"/>
<path d="M473.616,710.83c0,4.523-3.667,8.191-8.191,8.191s-8.192-3.668-8.192-8.191c0-4.524,3.668-8.191,8.192-8.191
	S473.616,706.306,473.616,710.83"/>
<circle fill="none" stroke="#00F472" stroke-width="0.5" stroke-miterlimit="10" cx="465.424" cy="710.83" r="8.192"/>
<path d="M444.288,707.8c1.551-0.216,3.036,0.79,3.391,2.345l3.739,16.398c0.374,1.643-0.654,3.278-2.298,3.652
	c-1.642,0.374-3.279-0.652-3.653-2.297l-3.738-16.397c-0.375-1.642,0.653-3.278,2.296-3.652
	C444.113,707.828,444.2,707.812,444.288,707.8"/>
<path fill="none" stroke="#00F472" stroke-width="0.5" stroke-miterlimit="10" d="M444.288,707.8
	c1.551-0.216,3.036,0.79,3.391,2.345l3.739,16.398c0.374,1.643-0.654,3.278-2.298,3.652c-1.642,0.374-3.279-0.652-3.653-2.297
	l-3.738-16.397c-0.375-1.642,0.653-3.278,2.296-3.652C444.113,707.828,444.2,707.812,444.288,707.8z"/>
<path d="M450.554,766.666c-1.526-0.241-2.652-1.605-2.564-3.182l0.816-14.771c0.093-1.683,1.532-2.972,3.215-2.879
	c1.681,0.095,2.972,1.533,2.878,3.216l-0.816,14.771c-0.092,1.683-1.533,2.972-3.216,2.879
	C450.762,766.694,450.657,766.684,450.554,766.666"/>
<path fill="none" stroke="#00F472" stroke-width="0.5" stroke-miterlimit="10" d="M450.554,766.666
	c-1.526-0.241-2.652-1.605-2.564-3.182l0.816-14.771c0.093-1.683,1.532-2.972,3.215-2.879c1.681,0.095,2.972,1.533,2.878,3.216
	l-0.816,14.771c-0.092,1.683-1.533,2.972-3.216,2.879C450.762,766.694,450.657,766.684,450.554,766.666z"/>
<path d="M471.466,767.987c-1.546,0-2.872-1.17-3.033-2.74l-1.513-14.716c-0.172-1.677,1.046-3.176,2.724-3.349
	c1.674-0.171,3.175,1.048,3.348,2.724l1.514,14.717c0.172,1.677-1.047,3.176-2.725,3.348
	C471.675,767.982,471.57,767.987,471.466,767.987"/>
<path fill="none" stroke="#00F472" stroke-width="0.5" stroke-miterlimit="10" d="M471.466,767.987c-1.546,0-2.872-1.17-3.033-2.74
	l-1.513-14.716c-0.172-1.677,1.046-3.176,2.724-3.349c1.674-0.171,3.175,1.048,3.348,2.724l1.514,14.717
	c0.172,1.677-1.047,3.176-2.725,3.348C471.675,767.982,471.57,767.987,471.466,767.987z"/>
<path d="M476.181,734.7c0,7.462-6.048,13.51-13.51,13.51c-7.461,0-13.51-6.048-13.51-13.51s6.049-13.51,13.51-13.51
	C470.132,721.19,476.181,727.238,476.181,734.7"/>
<circle fill="none" stroke="#00F472" stroke-width="0.5" stroke-miterlimit="10" cx="462.671" cy="734.7" r="13.51"/>
<path d="M474.084,730.875c-1.401-0.701-2.054-2.371-1.465-3.854l6.216-15.627c0.624-1.565,2.398-2.33,3.964-1.708
	c1.564,0.624,2.331,2.397,1.708,3.964l-6.216,15.627c-0.624,1.565-2.397,2.331-3.963,1.707
	C474.245,730.952,474.164,730.916,474.084,730.875"/>
<path fill="none" stroke="#00F472" stroke-width="0.5" stroke-miterlimit="10" d="M474.084,730.875
	c-1.401-0.701-2.054-2.371-1.465-3.854l6.216-15.627c0.624-1.565,2.398-2.33,3.964-1.708c1.564,0.624,2.331,2.397,1.708,3.964
	l-6.216,15.627c-0.624,1.565-2.397,2.331-3.963,1.707C474.245,730.952,474.164,730.916,474.084,730.875z"/>
<path d="M305.413,703.598c0,4.524-3.667,8.191-8.192,8.191c-4.524,0-8.191-3.667-8.191-8.191s3.667-8.192,8.191-8.192
	C301.746,695.405,305.413,699.073,305.413,703.598"/>
<circle fill="none" stroke="#00F472" stroke-width="0.5" stroke-miterlimit="10" cx="297.222" cy="703.598" r="8.191"/>
<path d="M276.085,700.567c1.552-0.215,3.037,0.79,3.392,2.346l3.737,16.397c0.375,1.643-0.653,3.278-2.296,3.652
	c-1.642,0.375-3.279-0.653-3.654-2.296l-3.739-16.397c-0.373-1.643,0.654-3.28,2.297-3.653
	C275.91,700.596,275.998,700.579,276.085,700.567"/>
<path fill="none" stroke="#00F472" stroke-width="0.5" stroke-miterlimit="10" d="M276.085,700.567
	c1.552-0.215,3.037,0.79,3.392,2.346l3.737,16.397c0.375,1.643-0.653,3.278-2.296,3.652c-1.642,0.375-3.279-0.653-3.654-2.296
	l-3.739-16.397c-0.373-1.643,0.654-3.28,2.297-3.653C275.91,700.596,275.998,700.579,276.085,700.567z"/>
<path d="M282.351,759.434c-1.526-0.242-2.651-1.605-2.564-3.182l0.816-14.771c0.094-1.683,1.533-2.972,3.216-2.878
	c1.68,0.094,2.972,1.532,2.879,3.214l-0.817,14.772c-0.092,1.683-1.533,2.972-3.215,2.879
	C282.559,759.462,282.454,759.45,282.351,759.434"/>
<path fill="none" stroke="#00F472" stroke-width="0.5" stroke-miterlimit="10" d="M282.351,759.434
	c-1.526-0.242-2.651-1.605-2.564-3.182l0.816-14.771c0.094-1.683,1.533-2.972,3.216-2.878c1.68,0.094,2.972,1.532,2.879,3.214
	l-0.817,14.772c-0.092,1.683-1.533,2.972-3.215,2.879C282.559,759.462,282.454,759.45,282.351,759.434z"/>
<path d="M303.263,760.754c-1.546,0-2.871-1.168-3.033-2.739l-1.514-14.716c-0.172-1.678,1.048-3.177,2.724-3.349
	c1.675-0.17,3.175,1.047,3.348,2.724l1.513,14.717c0.173,1.676-1.047,3.175-2.723,3.348
	C303.473,760.749,303.367,760.754,303.263,760.754"/>
<path fill="none" stroke="#00F472" stroke-width="0.5" stroke-miterlimit="10" d="M303.263,760.754
	c-1.546,0-2.871-1.168-3.033-2.739l-1.514-14.716c-0.172-1.678,1.048-3.177,2.724-3.349c1.675-0.17,3.175,1.047,3.348,2.724
	l1.513,14.717c0.173,1.676-1.047,3.175-2.723,3.348C303.473,760.749,303.367,760.754,303.263,760.754z"/>
<path d="M307.979,727.467c0,7.462-6.049,13.511-13.51,13.511s-13.51-6.049-13.51-13.511c0-7.46,6.049-13.509,13.51-13.509
	S307.979,720.007,307.979,727.467"/>
<circle fill="none" stroke="#00F472" stroke-width="0.5" stroke-miterlimit="10" cx="294.469" cy="727.467" r="13.51"/>
<path d="M305.881,723.644c-1.4-0.703-2.053-2.372-1.464-3.854l6.217-15.627c0.623-1.565,2.398-2.331,3.963-1.708
	c1.564,0.623,2.331,2.397,1.707,3.965l-6.216,15.626c-0.623,1.566-2.398,2.33-3.963,1.707
	C306.042,723.719,305.96,723.683,305.881,723.644"/>
<path fill="none" stroke="#00F472" stroke-width="0.5" stroke-miterlimit="10" d="M305.881,723.644
	c-1.4-0.703-2.053-2.372-1.464-3.854l6.217-15.627c0.623-1.565,2.398-2.331,3.963-1.708c1.564,0.623,2.331,2.397,1.707,3.965
	l-6.216,15.626c-0.623,1.566-2.398,2.33-3.963,1.707C306.042,723.719,305.96,723.683,305.881,723.644z"/>
<path d="M348.501,710.83c0,4.523-3.667,8.191-8.191,8.191s-8.192-3.668-8.192-8.191c0-4.524,3.668-8.191,8.192-8.191
	S348.501,706.306,348.501,710.83"/>
<circle fill="none" stroke="#00F472" stroke-width="0.5" stroke-miterlimit="10" cx="340.309" cy="710.83" r="8.192"/>
<path d="M319.173,707.8c1.551-0.216,3.036,0.79,3.39,2.345l3.739,16.398c0.375,1.643-0.654,3.278-2.296,3.652
	c-1.643,0.374-3.28-0.652-3.654-2.297l-3.738-16.397c-0.375-1.642,0.652-3.278,2.296-3.652
	C318.999,707.828,319.085,707.812,319.173,707.8"/>
<path fill="none" stroke="#00F472" stroke-width="0.5" stroke-miterlimit="10" d="M319.173,707.8c1.551-0.216,3.036,0.79,3.39,2.345
	l3.739,16.398c0.375,1.643-0.654,3.278-2.296,3.652c-1.643,0.374-3.28-0.652-3.654-2.297l-3.738-16.397
	c-0.375-1.642,0.652-3.278,2.296-3.652C318.999,707.828,319.085,707.812,319.173,707.8z"/>
<path d="M325.439,766.666c-1.526-0.241-2.652-1.605-2.564-3.182l0.816-14.771c0.092-1.683,1.532-2.972,3.215-2.879
	c1.681,0.095,2.971,1.533,2.878,3.216l-0.816,14.771c-0.093,1.683-1.533,2.972-3.216,2.879
	C325.647,766.694,325.542,766.684,325.439,766.666"/>
<path fill="none" stroke="#00F472" stroke-width="0.5" stroke-miterlimit="10" d="M325.439,766.666
	c-1.526-0.241-2.652-1.605-2.564-3.182l0.816-14.771c0.092-1.683,1.532-2.972,3.215-2.879c1.681,0.095,2.971,1.533,2.878,3.216
	l-0.816,14.771c-0.093,1.683-1.533,2.972-3.216,2.879C325.647,766.694,325.542,766.684,325.439,766.666z"/>
<path d="M346.351,767.987c-1.546,0-2.871-1.17-3.033-2.74l-1.513-14.716c-0.172-1.677,1.047-3.176,2.724-3.349
	c1.674-0.171,3.175,1.048,3.348,2.724l1.514,14.717c0.172,1.677-1.047,3.176-2.724,3.348
	C346.56,767.982,346.455,767.987,346.351,767.987"/>
<path fill="none" stroke="#00F472" stroke-width="0.5" stroke-miterlimit="10" d="M346.351,767.987c-1.546,0-2.871-1.17-3.033-2.74
	l-1.513-14.716c-0.172-1.677,1.047-3.176,2.724-3.349c1.674-0.171,3.175,1.048,3.348,2.724l1.514,14.717
	c0.172,1.677-1.047,3.176-2.724,3.348C346.56,767.982,346.455,767.987,346.351,767.987z"/>
<path d="M351.066,734.7c0,7.462-6.049,13.51-13.51,13.51c-7.46,0-13.51-6.048-13.51-13.51s6.05-13.51,13.51-13.51
	C345.017,721.19,351.066,727.238,351.066,734.7"/>
<circle fill="none" stroke="#00F472" stroke-width="0.5" stroke-miterlimit="10" cx="337.556" cy="734.7" r="13.51"/>
<path d="M348.969,730.875c-1.4-0.701-2.054-2.371-1.464-3.854l6.216-15.627c0.623-1.565,2.398-2.33,3.964-1.708
	c1.564,0.624,2.331,2.397,1.708,3.964l-6.216,15.627c-0.623,1.565-2.397,2.331-3.963,1.707
	C349.129,730.952,349.049,730.916,348.969,730.875"/>
<path fill="none" stroke="#00F472" stroke-width="0.5" stroke-miterlimit="10" d="M348.969,730.875
	c-1.4-0.701-2.054-2.371-1.464-3.854l6.216-15.627c0.623-1.565,2.398-2.33,3.964-1.708c1.564,0.624,2.331,2.397,1.708,3.964
	l-6.216,15.627c-0.623,1.565-2.397,2.331-3.963,1.707C349.129,730.952,349.049,730.916,348.969,730.875z"/>
<path d="M398.415,719.958c0,4.524-3.668,8.191-8.192,8.191c-4.524,0-8.192-3.667-8.192-8.191s3.667-8.191,8.192-8.191
	C394.747,711.767,398.415,715.434,398.415,719.958"/>
<circle fill="none" stroke="#00F472" stroke-width="0.5" stroke-miterlimit="10" cx="390.223" cy="719.958" r="8.192"/>
<path d="M369.086,716.928c1.551-0.215,3.036,0.79,3.391,2.346l3.739,16.397c0.375,1.643-0.654,3.278-2.296,3.652
	c-1.643,0.374-3.279-0.653-3.654-2.296l-3.738-16.398c-0.375-1.642,0.654-3.279,2.296-3.653
	C368.912,716.956,368.999,716.939,369.086,716.928"/>
<path fill="none" stroke="#00F472" stroke-width="0.5" stroke-miterlimit="10" d="M369.086,716.928
	c1.551-0.215,3.036,0.79,3.391,2.346l3.739,16.397c0.375,1.643-0.654,3.278-2.296,3.652c-1.643,0.374-3.279-0.653-3.654-2.296
	l-3.738-16.398c-0.375-1.642,0.654-3.279,2.296-3.653C368.912,716.956,368.999,716.939,369.086,716.928z"/>
<path d="M375.353,775.794c-1.526-0.242-2.652-1.605-2.564-3.182l0.816-14.771c0.093-1.683,1.532-2.972,3.216-2.878
	c1.68,0.094,2.971,1.532,2.878,3.214l-0.816,14.771c-0.093,1.684-1.533,2.973-3.216,2.88
	C375.56,775.822,375.456,775.811,375.353,775.794"/>
<path fill="none" stroke="#00F472" stroke-width="0.5" stroke-miterlimit="10" d="M375.353,775.794
	c-1.526-0.242-2.652-1.605-2.564-3.182l0.816-14.771c0.093-1.683,1.532-2.972,3.216-2.878c1.68,0.094,2.971,1.532,2.878,3.214
	l-0.816,14.771c-0.093,1.684-1.533,2.973-3.216,2.88C375.56,775.822,375.456,775.811,375.353,775.794z"/>
<path d="M396.264,777.114c-1.545,0-2.871-1.169-3.032-2.739l-1.514-14.716c-0.172-1.678,1.047-3.176,2.724-3.349
	c1.674-0.171,3.174,1.047,3.348,2.724l1.513,14.717c0.173,1.677-1.047,3.175-2.724,3.348
	C396.473,777.109,396.368,777.114,396.264,777.114"/>
<path fill="none" stroke="#00F472" stroke-width="0.5" stroke-miterlimit="10" d="M396.264,777.114
	c-1.545,0-2.871-1.169-3.032-2.739l-1.514-14.716c-0.172-1.678,1.047-3.176,2.724-3.349c1.674-0.171,3.174,1.047,3.348,2.724
	l1.513,14.717c0.173,1.677-1.047,3.175-2.724,3.348C396.473,777.109,396.368,777.114,396.264,777.114z"/>
<path d="M400.979,743.828c0,7.461-6.048,13.51-13.51,13.51s-13.509-6.049-13.509-13.51s6.048-13.51,13.509-13.51
	S400.979,736.367,400.979,743.828"/>
<circle fill="none" stroke="#00F472" stroke-width="0.5" stroke-miterlimit="10" cx="387.469" cy="743.828" r="13.51"/>
<path d="M398.883,740.004c-1.4-0.703-2.054-2.373-1.464-3.854l6.216-15.627c0.624-1.565,2.398-2.33,3.964-1.708
	c1.564,0.623,2.331,2.397,1.708,3.964l-6.216,15.627c-0.624,1.565-2.397,2.33-3.963,1.707
	C399.043,740.079,398.962,740.043,398.883,740.004"/>
<path fill="none" stroke="#00F472" stroke-width="0.5" stroke-miterlimit="10" d="M398.883,740.004
	c-1.4-0.703-2.054-2.373-1.464-3.854l6.216-15.627c0.624-1.565,2.398-2.33,3.964-1.708c1.564,0.623,2.331,2.397,1.708,3.964
	l-6.216,15.627c-0.624,1.565-2.397,2.33-3.963,1.707C399.043,740.079,398.962,740.043,398.883,740.004z"/>
<path d="M453.959,731.785c0,4.523-3.667,8.191-8.191,8.191c-4.524,0-8.191-3.668-8.191-8.191c0-4.524,3.667-8.191,8.191-8.191
	C450.292,723.594,453.959,727.261,453.959,731.785"/>
<circle fill="none" stroke="#00F472" stroke-width="0.5" stroke-miterlimit="10" cx="445.768" cy="731.785" r="8.191"/>
<path d="M424.632,728.755c1.552-0.216,3.037,0.789,3.391,2.345l3.738,16.397c0.375,1.644-0.654,3.278-2.297,3.653
	c-1.643,0.374-3.279-0.654-3.654-2.297l-3.738-16.397c-0.375-1.643,0.654-3.278,2.297-3.653
	C424.457,728.782,424.544,728.767,424.632,728.755"/>
<path fill="none" stroke="#00F472" stroke-width="0.5" stroke-miterlimit="10" d="M424.632,728.755
	c1.552-0.216,3.037,0.789,3.391,2.345l3.738,16.397c0.375,1.644-0.654,3.278-2.297,3.653c-1.643,0.374-3.279-0.654-3.654-2.297
	l-3.738-16.397c-0.375-1.643,0.654-3.278,2.297-3.653C424.457,728.782,424.544,728.767,424.632,728.755z"/>
<path d="M430.898,787.621c-1.526-0.242-2.651-1.605-2.564-3.182l0.816-14.771c0.093-1.683,1.533-2.973,3.216-2.879
	c1.68,0.094,2.971,1.533,2.878,3.215l-0.817,14.771c-0.093,1.684-1.532,2.972-3.215,2.879
	C431.106,787.648,431.001,787.638,430.898,787.621"/>
<path fill="none" stroke="#00F472" stroke-width="0.5" stroke-miterlimit="10" d="M430.898,787.621
	c-1.526-0.242-2.651-1.605-2.564-3.182l0.816-14.771c0.093-1.683,1.533-2.973,3.216-2.879c1.68,0.094,2.971,1.533,2.878,3.215
	l-0.817,14.771c-0.093,1.684-1.532,2.972-3.215,2.879C431.106,787.648,431.001,787.638,430.898,787.621z"/>
<path d="M451.81,788.942c-1.546,0-2.872-1.17-3.033-2.741l-1.513-14.716c-0.173-1.677,1.047-3.175,2.724-3.349
	c1.674-0.17,3.175,1.048,3.348,2.725l1.513,14.716c0.173,1.677-1.047,3.176-2.724,3.348
	C452.019,788.936,451.913,788.942,451.81,788.942"/>
<path fill="none" stroke="#00F472" stroke-width="0.5" stroke-miterlimit="10" d="M451.81,788.942c-1.546,0-2.872-1.17-3.033-2.741
	l-1.513-14.716c-0.173-1.677,1.047-3.175,2.724-3.349c1.674-0.17,3.175,1.048,3.348,2.725l1.513,14.716
	c0.173,1.677-1.047,3.176-2.724,3.348C452.019,788.936,451.913,788.942,451.81,788.942z"/>
<path d="M456.525,755.655c0,7.461-6.048,13.509-13.51,13.509s-13.51-6.048-13.51-13.509c0-7.462,6.049-13.511,13.51-13.511
	S456.525,748.193,456.525,755.655"/>
<circle fill="none" stroke="#00F472" stroke-width="0.5" stroke-miterlimit="10" cx="443.015" cy="755.655" r="13.51"/>
<path d="M454.429,751.83c-1.401-0.702-2.054-2.371-1.464-3.854l6.216-15.626c0.624-1.566,2.398-2.331,3.964-1.708
	c1.564,0.623,2.331,2.397,1.707,3.964l-6.216,15.626c-0.624,1.566-2.397,2.331-3.963,1.708
	C454.589,751.906,454.507,751.87,454.429,751.83"/>
<path fill="none" stroke="#00F472" stroke-width="0.5" stroke-miterlimit="10" d="M454.429,751.83
	c-1.401-0.702-2.054-2.371-1.464-3.854l6.216-15.626c0.624-1.566,2.398-2.331,3.964-1.708c1.564,0.623,2.331,2.397,1.707,3.964
	l-6.216,15.626c-0.624,1.566-2.397,2.331-3.963,1.708C454.589,751.906,454.507,751.87,454.429,751.83z"/>
<line fill="none" stroke="#000000" stroke-miterlimit="10" x1="476.381" y1="345.243" x2="476.381" y2="298.472"/>
<line fill="none" stroke="#000000" stroke-miterlimit="10" x1="428.884" y1="313.331" x2="476.381" y2="298.472"/>
<line fill="none" stroke="#000000" stroke-miterlimit="10" x1="428.884" y1="364.186" x2="428.884" y2="313.331"/>
<path fill="none" stroke="#000000" stroke-miterlimit="10" d="M30.32,716.368c0-66.469,14.225-124.3,45.057-183.185"/>
<path fill="none" stroke="#000000" stroke-miterlimit="10" d="M740.675,478.788c15.12,20.079,28.043,41.122,39.111,63.69"/>
<path fill="none" stroke="#000000" stroke-miterlimit="10" d="M75.377,764.287c-15.785-7.886-45.057-24.763-45.057-47.919"/>
<line fill="none" stroke="#000000" stroke-miterlimit="10" x1="411.593" y1="188.358" x2="372.842" y2="179.884"/>
<path fill="none" stroke="#000000" stroke-miterlimit="10" d="M226.173,375.298c63.359-37.074,136.345-37.478,202.711-11.113"/>
<line fill="none" stroke="#000000" stroke-miterlimit="10" x1="144.862" y1="438.252" x2="144.862" y2="251.208"/>
<line fill="none" stroke="#000000" stroke-miterlimit="10" x1="372.842" y1="179.884" x2="144.862" y2="251.208"/>
<path fill="none" stroke="#000000" stroke-miterlimit="10" d="M428.884,364.186c15.186-8.25,30.712-14.646,47.497-18.942"/>
<line fill="none" stroke="#000000" stroke-miterlimit="10" x1="144.862" y1="251.208" x2="428.884" y2="313.331"/>
<path fill="none" stroke="#000000" stroke-miterlimit="10" d="M476.381,345.243c49.635,19.529,88.629,48.304,124.972,86.591"/>
<line fill="none" stroke="#000000" stroke-miterlimit="10" x1="476.381" y1="298.472" x2="347.623" y2="270.31"/>
<path fill="none" stroke="#000000" stroke-miterlimit="10" d="M601.353,431.834c0.611-0.15,1.222-0.296,1.831-0.438"/>
<path fill="none" stroke="#000000" stroke-miterlimit="10" stroke-dasharray="4.926,4.926" d="M606.808,430.603
	c51.321-10.598,97.334,8.068,131.421,46.58"/>
<path fill="none" stroke="#000000" stroke-miterlimit="10" d="M739.449,478.576c0.41,0.473,0.819,0.949,1.226,1.429"/>
<line fill="none" stroke="#000000" stroke-miterlimit="10" x1="713.848" y1="524.033" x2="713.848" y2="469.778"/>
<line fill="none" stroke="#000000" stroke-miterlimit="10" x1="416.204" y1="562.899" x2="713.847" y2="469.778"/>
<line fill="none" stroke="#000000" stroke-miterlimit="10" x1="416.204" y1="844" x2="416.204" y2="562.899"/>
<line fill="none" stroke="#000000" stroke-miterlimit="10" x1="499.934" y1="817.806" x2="416.204" y2="844"/>
<line fill="none" stroke="#000000" stroke-miterlimit="10" x1="713.848" y1="469.778" x2="673.266" y2="460.901"/>
<path fill="none" stroke="#000000" stroke-miterlimit="10" d="M779.787,542.479c13.374,27.126-18.371,45.457-37.387,55.028
	c-22.433,11.287-45.798,18.36-69.948,24.41"/>
<line fill="none" stroke="#000000" stroke-miterlimit="10" x1="75.377" y1="769.454" x2="75.377" y2="488.351"/>
<line fill="none" stroke="#000000" stroke-miterlimit="10" x1="172.884" y1="457.846" x2="75.377" y2="488.351"/>
<line fill="none" stroke="#000000" stroke-miterlimit="10" x1="416.204" y1="844" x2="263.6" y2="810.623"/>
<line fill="none" stroke="#000000" stroke-miterlimit="10" x1="75.377" y1="488.352" x2="416.204" y2="562.899"/>
<line fill="none" stroke="#000000" stroke-miterlimit="10" x1="99.225" y1="774.671" x2="75.377" y2="769.454"/>
<line fill="none" stroke="#000000" stroke-miterlimit="10" x1="980.255" y1="699.744" x2="776.897" y2="763.365"/>
<line fill="none" stroke="#000000" stroke-miterlimit="10" x1="980.255" y1="699.744" x2="980.255" y2="537.754"/>
<line fill="none" stroke="#000000" stroke-miterlimit="10" x1="695.279" y1="626.909" x2="980.254" y2="537.754"/>
<line fill="none" stroke="#000000" stroke-miterlimit="10" x1="695.279" y1="713.268" x2="695.279" y2="626.91"/>
<path fill="none" stroke="#000000" stroke-miterlimit="10" d="M672.452,621.917c10.37,29.887,17.932,60.094,22.827,91.351"/>
<path fill="none" stroke="#000000" stroke-miterlimit="10" d="M695.279,713.268c42.703-45.742,81.543-4.973,81.618,50.098"/>
<line fill="none" stroke="#000000" stroke-miterlimit="10" x1="980.255" y1="537.754" x2="746.411" y2="486.605"/>
<path fill="none" stroke="#000000" stroke-miterlimit="10" d="M776.897,763.365c-72.438,37.092-199.867,50.556-276.963,54.44"/>
<path fill="none" stroke="#000000" stroke-miterlimit="10" d="M499.934,817.806c0-71.39,15.44-132.126,51.958-193.88
	c30.442-51.479,90.581-115.907,161.954-99.893"/>
<path fill="none" stroke="#000000" stroke-miterlimit="10" d="M673.266,460.902c-85.798,56.803-415.357,61.963-500.382-3.056"/>
<line fill="none" stroke="#000000" stroke-miterlimit="10" x1="672.452" y1="621.917" x2="695.279" y2="626.909"/>
<line fill="none" stroke="#000000" stroke-miterlimit="10" x1="740.675" y1="480.004" x2="740.675" y2="220.28"/>
<line fill="none" stroke="#000000" stroke-miterlimit="10" x1="601.353" y1="263.868" x2="740.675" y2="220.281"/>
<line fill="none" stroke="#000000" stroke-miterlimit="10" x1="601.353" y1="431.834" x2="601.353" y2="263.868"/>
<path fill="none" stroke="#000000" stroke-miterlimit="10" d="M263.6,810.623c-56.244-6.6-110.819-15.461-164.375-35.952"/>
<path fill="none" stroke="#000000" stroke-miterlimit="10" d="M99.225,774.671c0.001-6.638,0.507-13.277,1.579-19.828
	c1.024-6.245,2.562-12.408,4.678-18.372c1.998-5.636,4.515-11.093,7.594-16.216c2.905-4.833,6.311-9.372,10.221-13.435
	c3.72-3.866,7.896-7.302,12.454-10.136c4.429-2.754,9.218-4.938,14.209-6.447c4.999-1.511,10.2-2.347,15.42-2.513
	c5.378-0.169,10.776,0.371,16.031,1.522c5.537,1.217,10.908,3.087,16.034,5.489c5.436,2.549,10.594,5.695,15.422,9.268
	c10.46,7.737,19.362,17.468,26.66,28.242c7.782,11.492,13.741,24.176,17.812,37.439c4.069,13.246,6.254,27.074,6.259,40.938"/>
<line fill="none" stroke="#000000" stroke-miterlimit="10" x1="347.624" y1="208.373" x2="601.353" y2="263.868"/>
<path fill="none" stroke="#000000" stroke-miterlimit="10" d="M110.969,477.217c32.227-42.349,69.241-75.096,115.204-101.918"/>
<line fill="none" stroke="#000000" stroke-miterlimit="10" x1="740.675" y1="220.28" x2="486.946" y2="164.785"/>
<line fill="none" stroke="#000000" stroke-miterlimit="10" x1="347.624" y1="270.31" x2="347.624" y2="208.373"/>
<line fill="none" stroke="#000000" stroke-miterlimit="10" x1="486.946" y1="164.785" x2="347.624" y2="208.372"/>
<line fill="none" stroke="#000000" stroke-miterlimit="10" x1="615.704" y1="254.884" x2="615.704" y2="256.766"/>
<line fill="none" stroke="#000000" stroke-miterlimit="10" stroke-dasharray="4.984,4.984" x1="615.704" y1="260.518" x2="615.704" y2="371.206"/>
<line fill="none" stroke="#000000" stroke-miterlimit="10" x1="615.704" y1="373.082" x2="615.704" y2="374.963"/>
<path fill="none" stroke="#000000" stroke-miterlimit="10" d="M172.884,457.846c-0.35,0.521-0.698,1.042-1.045,1.565"/>
<path fill="none" stroke="#000000" stroke-miterlimit="10" stroke-dasharray="5.054,5.054" d="M169.748,462.587
	c-57.003,87.36-86.872,197.838-87.826,301.042"/>
<path fill="none" stroke="#000000" stroke-miterlimit="10" d="M81.908,765.533c-0.004,0.627-0.006,1.254-0.007,1.88"/>
<line fill="none" stroke="#000000" stroke-miterlimit="10" x1="75.377" y1="769.454" x2="81.9" y2="767.413"/>
<path fill="none" stroke="#000000" stroke-miterlimit="10" d="M414.82,613.102c0.627-0.005,1.256-0.008,1.882-0.012"/>
<path fill="none" stroke="#000000" stroke-miterlimit="10" stroke-dasharray="4.925,4.925" d="M420.409,613.071
	c76.39-0.286,151.534,4.417,226.973,17.889"/>
<path fill="none" stroke="#000000" stroke-miterlimit="10" d="M649.206,631.287c0.617,0.112,1.235,0.225,1.853,0.336"/>
<path fill="none" stroke="#000000" stroke-miterlimit="10" d="M656.867,419.438c-0.563-0.276-1.128-0.55-1.693-0.82"/>
<path fill="none" stroke="#000000" stroke-miterlimit="10" stroke-dasharray="5.036,5.036" d="M651.739,417.013
	c-57.983-26.385-122.547-21.198-171.28,23.843c-46.487,42.969-64.876,108.649-65.615,168.472"/>
<path fill="none" stroke="#000000" stroke-miterlimit="10" d="M414.826,611.222c-0.004,0.627-0.006,1.253-0.006,1.88"/>
<path fill="none" stroke="#000000" stroke-miterlimit="10" d="M615.704,374.963c0.49,0.393,0.979,0.787,1.463,1.183"/>
<path fill="none" stroke="#000000" stroke-miterlimit="10" stroke-dasharray="5.052,5.052" d="M620.092,378.579
	c13.207,11.201,24.466,23.709,34.588,37.771"/>
<path fill="none" stroke="#000000" stroke-miterlimit="10" d="M655.785,417.898c0.362,0.511,0.723,1.024,1.082,1.541"/>
<path fill="none" stroke="#000000" stroke-miterlimit="10" d="M740.675,480.004c-12.796-17.792-26.922-34.074-42.73-49.25"/>
<path fill="none" stroke="#000000" stroke-miterlimit="10" d="M697.399,430.233c-24.47-23.276-50.546-41.699-81.695-55.269"/>
<line fill="none" stroke="#000000" stroke-miterlimit="10" x1="347.624" y1="270.31" x2="349.419" y2="269.748"/>
<line fill="none" stroke="#000000" stroke-miterlimit="10" stroke-dasharray="5.106,5.106" x1="353.088" y1="268.6" x2="483.314" y2="227.857"/>
<line fill="none" stroke="#000000" stroke-miterlimit="10" x1="485.149" y1="227.284" x2="486.945" y2="226.723"/>
<line fill="none" stroke="#000000" stroke-miterlimit="10" x1="486.946" y1="226.722" x2="488.784" y2="227.124"/>
<line fill="none" stroke="#000000" stroke-miterlimit="10" stroke-dasharray="4.86,4.86" x1="492.358" y1="227.906" x2="612.079" y2="254.091"/>
<line fill="none" stroke="#000000" stroke-miterlimit="10" x1="613.866" y1="254.482" x2="615.704" y2="254.884"/>
<line fill="none" stroke="#000000" stroke-miterlimit="10" x1="334.846" y1="615.808" x2="336.643" y2="615.246"/>
<line fill="none" stroke="#000000" stroke-miterlimit="10" stroke-dasharray="5.321,5.321" x1="340.465" y1="614.05" x2="369.135" y2="605.08"/>
<line fill="none" stroke="#000000" stroke-miterlimit="10" x1="371.046" y1="604.481" x2="372.842" y2="603.92"/>
<line fill="none" stroke="#000000" stroke-miterlimit="10" x1="144.862" y1="453.812" x2="144.862" y2="438.252"/>
<path fill="none" stroke="#000000" stroke-miterlimit="10" d="M182.859,434.663c-13.895,4.347-26.144,10.836-37.997,19.149"/>
<path fill="none" stroke="#000000" stroke-miterlimit="10" d="M81.9,767.413c-2.19-1.007-4.366-2.049-6.523-3.126"/>
<path fill="none" stroke="#000000" stroke-miterlimit="10" d="M30.346,715.172c0.028-0.63,0.075-1.254,0.141-1.875"/>
<path fill="none" stroke="#000000" stroke-miterlimit="10" stroke-dasharray="4.919,4.919" d="M31.094,709.648
	c7.222-31.696,62.869-50.608,87.61-58.425"/>
<path fill="none" stroke="#000000" stroke-miterlimit="10" d="M120.474,650.666c0.622-0.194,1.22-0.382,1.793-0.562"/>
<path fill="none" stroke="#000000" stroke-miterlimit="10" d="M75.377,533.184c10.328-19.724,22.108-38.25,35.592-55.967"/>
<path fill="none" stroke="#000000" stroke-miterlimit="10" d="M334.846,615.808c0-0.629-0.001-1.256-0.003-1.882"/>
<path fill="none" stroke="#000000" stroke-miterlimit="10" stroke-dasharray="4.982,4.982" d="M334.817,610.175
	c-0.501-45.991-7.42-86.429-33.429-127.051c-25.904-40.458-66.833-62.888-114.925-49.525"/>
<path fill="none" stroke="#000000" stroke-miterlimit="10" d="M184.661,434.115c-0.6,0.177-1.201,0.36-1.802,0.548"/>
<path fill="none" stroke="#000000" stroke-miterlimit="10" d="M122.268,650.104c0.599-0.188,1.198-0.374,1.797-0.56"/>
<path fill="none" stroke="#000000" stroke-miterlimit="10" stroke-dasharray="4.943,4.943" d="M127.622,648.456
	c66.933-20.26,134.312-28.038,203.488-32.416"/>
<path fill="none" stroke="#000000" stroke-miterlimit="10" d="M332.969,615.924c0.625-0.039,1.251-0.077,1.877-0.117"/>
<line fill="none" stroke="#000000" stroke-miterlimit="10" x1="372.842" y1="603.92" x2="374.681" y2="604.321"/>
<line fill="none" stroke="#000000" stroke-miterlimit="10" stroke-dasharray="4.735,4.735" x1="378.163" y1="605.083" x2="411.241" y2="612.318"/>
<line fill="none" stroke="#000000" stroke-miterlimit="10" x1="412.982" y1="612.699" x2="414.82" y2="613.102"/>
<line fill="none" stroke="#000000" stroke-miterlimit="10" x1="372.842" y1="603.92" x2="372.842" y2="602.038"/>
<line fill="none" stroke="#000000" stroke-miterlimit="10" stroke-dasharray="5.03,5.03" x1="372.842" y1="598.251" x2="372.842" y2="183.659"/>
<line fill="none" stroke="#000000" stroke-miterlimit="10" x1="372.842" y1="181.766" x2="372.842" y2="179.884"/>
<path fill="none" stroke="#000000" stroke-miterlimit="10" d="M708.993,441.726c11.346,11.725,21.866,24.03,31.682,37.062"/>
<path fill="none" stroke="#000000" stroke-miterlimit="10" d="M697.399,430.233c0.182,0.173,0.363,0.347,0.545,0.52"/>
<line fill="none" stroke="#000000" stroke-miterlimit="10" x1="486.946" y1="226.722" x2="486.946" y2="224.84"/>
<line fill="none" stroke="#000000" stroke-miterlimit="10" stroke-dasharray="5.152,5.152" x1="486.946" y1="220.962" x2="486.946" y2="168.606"/>
<line fill="none" stroke="#000000" stroke-miterlimit="10" x1="486.946" y1="166.667" x2="486.946" y2="164.785"/>
<path fill="none" stroke="#000000" stroke-miterlimit="10" d="M651.059,631.623c0.617,0.113,1.233,0.226,1.851,0.34"/>
<path fill="none" stroke="#000000" stroke-miterlimit="10" stroke-dasharray="5.042,5.042" d="M656.642,632.65
	c41.959,7.79,82.376,17.074,121.166,37.189c56.001,29.039,56.035,62.991,2.436,91.771"/>
<path fill="none" stroke="#000000" stroke-miterlimit="10" d="M778.568,762.5c-0.553,0.288-1.109,0.576-1.671,0.865"/>
<path fill="none" stroke="#000000" stroke-miterlimit="10" d="M99.225,774.671c-5.856-2.231-11.625-4.648-17.325-7.258"/>
</svg>
