<?xml version="1.0" encoding="utf-8"?>
<!-- Generator: Adobe Illustrator 16.0.0, SVG Export Plug-In . SVG Version: 6.00 Build 0)  -->
<!DOCTYPE svg PUBLIC "-//W3C//DTD SVG 1.1//EN" "http://www.w3.org/Graphics/SVG/1.1/DTD/svg11.dtd">
<svg version="1.1" id="Layer_1" xmlns="http://www.w3.org/2000/svg" xmlns:xlink="http://www.w3.org/1999/xlink" x="0px" y="0px"
	 width="1000px" height="1000px" viewBox="0 0 1000 1000" enable-background="new 0 0 1000 1000" xml:space="preserve">
<path d="M425.62,634.686c0,8.003-6.487,14.49-14.49,14.49c-8.002,0-14.488-6.487-14.488-14.49c0-8.002,6.486-14.489,14.488-14.489
	C419.133,620.196,425.62,626.684,425.62,634.686"/>
<circle fill="none" stroke="#00F472" stroke-width="0.5" stroke-miterlimit="10" cx="411.131" cy="634.686" r="14.489"/>
<path d="M373.744,629.327c2.744-0.382,5.371,1.396,5.999,4.147l6.612,29.003c0.662,2.907-1.157,5.8-4.063,6.463
	c-2.905,0.661-5.8-1.157-6.463-4.062l-6.612-29.003c-0.662-2.907,1.156-5.801,4.063-6.463
	C373.435,629.377,373.59,629.348,373.744,629.327"/>
<path fill="none" stroke="#00F472" stroke-width="0.5" stroke-miterlimit="10" d="M373.744,629.327
	c2.744-0.382,5.371,1.396,5.999,4.147l6.612,29.003c0.662,2.907-1.157,5.8-4.063,6.463c-2.905,0.661-5.8-1.157-6.463-4.062
	l-6.612-29.003c-0.662-2.907,1.156-5.801,4.063-6.463C373.435,629.377,373.59,629.348,373.744,629.327z"/>
<path d="M384.828,733.45c-2.699-0.429-4.69-2.84-4.536-5.628l1.444-26.128c0.165-2.978,2.711-5.257,5.688-5.092
	c2.973,0.166,5.256,2.711,5.091,5.687l-1.443,26.128c-0.164,2.978-2.711,5.257-5.688,5.092
	C385.196,733.499,385.01,733.479,384.828,733.45"/>
<path fill="none" stroke="#00F472" stroke-width="0.5" stroke-miterlimit="10" d="M384.828,733.45
	c-2.699-0.429-4.69-2.84-4.536-5.628l1.444-26.128c0.165-2.978,2.711-5.257,5.688-5.092c2.973,0.166,5.256,2.711,5.091,5.687
	l-1.443,26.128c-0.164,2.978-2.711,5.257-5.688,5.092C385.196,733.499,385.01,733.479,384.828,733.45z"/>
<path d="M421.816,735.786c-2.733,0-5.077-2.068-5.363-4.846l-2.677-26.031c-0.306-2.965,1.852-5.617,4.817-5.922
	c2.961-0.302,5.616,1.852,5.922,4.817l2.677,26.03c0.305,2.966-1.853,5.617-4.818,5.922
	C422.188,735.777,422.001,735.786,421.816,735.786"/>
<path fill="none" stroke="#00F472" stroke-width="0.5" stroke-miterlimit="10" d="M421.816,735.786
	c-2.733,0-5.077-2.068-5.363-4.846l-2.677-26.031c-0.306-2.965,1.852-5.617,4.817-5.922c2.961-0.302,5.616,1.852,5.922,4.817
	l2.677,26.03c0.305,2.966-1.853,5.617-4.818,5.922C422.188,735.777,422.001,735.786,421.816,735.786z"/>
<path d="M430.157,676.908c0,13.197-10.699,23.896-23.896,23.896c-13.198,0-23.896-10.698-23.896-23.896
	c0-13.198,10.698-23.896,23.896-23.896C419.458,653.012,430.157,663.71,430.157,676.908"/>
<circle fill="none" stroke="#00F472" stroke-width="0.5" stroke-miterlimit="10" cx="406.261" cy="676.908" r="23.896"/>
<path d="M426.448,670.143c-2.477-1.242-3.633-4.194-2.59-6.817l10.996-27.641c1.102-2.77,4.241-4.122,7.011-3.021
	c2.768,1.103,4.122,4.241,3.02,7.012l-10.994,27.64c-1.103,2.771-4.241,4.122-7.012,3.021
	C426.731,670.277,426.588,670.213,426.448,670.143"/>
<path fill="none" stroke="#00F472" stroke-width="0.5" stroke-miterlimit="10" d="M426.448,670.143
	c-2.477-1.242-3.633-4.194-2.59-6.817l10.996-27.641c1.102-2.77,4.241-4.122,7.011-3.021c2.768,1.103,4.122,4.241,3.02,7.012
	l-10.994,27.64c-1.103,2.771-4.241,4.122-7.012,3.021C426.731,670.277,426.588,670.213,426.448,670.143z"/>
<path d="M508.771,649.176c0,8.002-6.486,14.49-14.49,14.49c-8.002,0-14.488-6.488-14.488-14.49s6.486-14.49,14.488-14.49
	C502.285,634.686,508.771,641.174,508.771,649.176"/>
<circle fill="none" stroke="#00F472" stroke-width="0.5" stroke-miterlimit="10" cx="494.282" cy="649.176" r="14.489"/>
<path d="M456.896,643.816c2.744-0.381,5.371,1.396,5.999,4.147l6.612,29.004c0.662,2.906-1.157,5.8-4.063,6.463
	c-2.904,0.661-5.8-1.157-6.463-4.063l-6.611-29.003c-0.664-2.907,1.155-5.8,4.062-6.463
	C456.586,643.866,456.74,643.837,456.896,643.816"/>
<path fill="none" stroke="#00F472" stroke-width="0.5" stroke-miterlimit="10" d="M456.896,643.816
	c2.744-0.381,5.371,1.396,5.999,4.147l6.612,29.004c0.662,2.906-1.157,5.8-4.063,6.463c-2.904,0.661-5.8-1.157-6.463-4.063
	l-6.611-29.003c-0.664-2.907,1.155-5.8,4.062-6.463C456.586,643.866,456.74,643.837,456.896,643.816z"/>
<path d="M467.979,747.939c-2.699-0.429-4.69-2.84-4.536-5.628l1.444-26.128c0.165-2.977,2.711-5.257,5.688-5.092
	c2.972,0.166,5.256,2.711,5.091,5.688l-1.443,26.127c-0.164,2.977-2.711,5.257-5.688,5.092
	C468.348,747.989,468.161,747.969,467.979,747.939"/>
<path fill="none" stroke="#00F472" stroke-width="0.5" stroke-miterlimit="10" d="M467.979,747.939
	c-2.699-0.429-4.69-2.84-4.536-5.628l1.444-26.128c0.165-2.977,2.711-5.257,5.688-5.092c2.972,0.166,5.256,2.711,5.091,5.688
	l-1.443,26.127c-0.164,2.977-2.711,5.257-5.688,5.092C468.348,747.989,468.161,747.969,467.979,747.939z"/>
<path d="M504.968,750.275c-2.733,0-5.077-2.067-5.363-4.846l-2.677-26.031c-0.305-2.965,1.852-5.617,4.818-5.922
	c2.961-0.302,5.615,1.853,5.921,4.818l2.677,26.029c0.305,2.967-1.852,5.617-4.818,5.923
	C505.339,750.267,505.151,750.275,504.968,750.275"/>
<path fill="none" stroke="#00F472" stroke-width="0.5" stroke-miterlimit="10" d="M504.968,750.275
	c-2.733,0-5.077-2.067-5.363-4.846l-2.677-26.031c-0.305-2.965,1.852-5.617,4.818-5.922c2.961-0.302,5.615,1.853,5.921,4.818
	l2.677,26.029c0.305,2.967-1.852,5.617-4.818,5.923C505.339,750.267,505.151,750.275,504.968,750.275z"/>
<path d="M513.309,691.397c0,13.198-10.699,23.896-23.896,23.896s-23.896-10.697-23.896-23.896s10.699-23.896,23.896-23.896
	S513.309,678.199,513.309,691.397"/>
<circle fill="none" stroke="#00F472" stroke-width="0.5" stroke-miterlimit="10" cx="489.412" cy="691.397" r="23.896"/>
<path d="M509.6,684.633c-2.477-1.242-3.633-4.195-2.59-6.818l10.996-27.64c1.102-2.771,4.241-4.122,7.011-3.021
	c2.767,1.104,4.122,4.241,3.021,7.012l-10.995,27.641c-1.103,2.77-4.241,4.122-7.011,3.02
	C509.883,684.768,509.74,684.702,509.6,684.633"/>
<path fill="none" stroke="#00F472" stroke-width="0.5" stroke-miterlimit="10" d="M509.6,684.633
	c-2.477-1.242-3.633-4.195-2.59-6.818l10.996-27.64c1.102-2.771,4.241-4.122,7.011-3.021c2.767,1.104,4.122,4.241,3.021,7.012
	l-10.995,27.641c-1.103,2.77-4.241,4.122-7.011,3.02C509.883,684.768,509.74,684.702,509.6,684.633z"/>
<path d="M661.148,657.396c0,8.002-6.486,14.49-14.49,14.49c-8.002,0-14.488-6.488-14.488-14.49s6.486-14.49,14.488-14.49
	C654.662,642.906,661.148,649.395,661.148,657.396"/>
<circle fill="none" stroke="#00F472" stroke-width="0.5" stroke-miterlimit="10" cx="646.659" cy="657.396" r="14.489"/>
<path d="M609.272,652.037c2.744-0.381,5.371,1.396,5.999,4.148l6.612,29.003c0.662,2.907-1.157,5.8-4.063,6.463
	c-2.904,0.661-5.8-1.157-6.464-4.063l-6.612-29.003c-0.662-2.906,1.157-5.8,4.063-6.463
	C608.963,652.087,609.117,652.059,609.272,652.037"/>
<path fill="none" stroke="#00F472" stroke-width="0.5" stroke-miterlimit="10" d="M609.272,652.037
	c2.744-0.381,5.371,1.396,5.999,4.148l6.612,29.003c0.662,2.907-1.157,5.8-4.063,6.463c-2.904,0.661-5.8-1.157-6.464-4.063
	l-6.612-29.003c-0.662-2.906,1.157-5.8,4.063-6.463C608.963,652.087,609.117,652.059,609.272,652.037z"/>
<path d="M620.356,756.161c-2.699-0.43-4.689-2.841-4.535-5.628l1.442-26.128c0.166-2.978,2.711-5.258,5.688-5.093
	c2.972,0.166,5.256,2.711,5.091,5.688l-1.443,26.128c-0.164,2.977-2.711,5.257-5.688,5.092
	C620.725,756.21,620.538,756.189,620.356,756.161"/>
<path fill="none" stroke="#00F472" stroke-width="0.5" stroke-miterlimit="10" d="M620.356,756.161
	c-2.699-0.43-4.689-2.841-4.535-5.628l1.442-26.128c0.166-2.978,2.711-5.258,5.688-5.093c2.972,0.166,5.256,2.711,5.091,5.688
	l-1.443,26.128c-0.164,2.977-2.711,5.257-5.688,5.092C620.725,756.21,620.538,756.189,620.356,756.161z"/>
<path d="M657.345,758.497c-2.733,0-5.077-2.068-5.363-4.847l-2.677-26.03c-0.306-2.966,1.852-5.617,4.817-5.923
	c2.961-0.302,5.616,1.853,5.921,4.818l2.678,26.03c0.305,2.966-1.853,5.617-4.818,5.922
	C657.715,758.487,657.529,758.497,657.345,758.497"/>
<path fill="none" stroke="#00F472" stroke-width="0.5" stroke-miterlimit="10" d="M657.345,758.497
	c-2.733,0-5.077-2.068-5.363-4.847l-2.677-26.03c-0.306-2.966,1.852-5.617,4.817-5.923c2.961-0.302,5.616,1.853,5.921,4.818
	l2.678,26.03c0.305,2.966-1.853,5.617-4.818,5.922C657.715,758.487,657.529,758.497,657.345,758.497z"/>
<path d="M665.686,699.618c0,13.198-10.699,23.896-23.896,23.896c-13.198,0-23.896-10.698-23.896-23.896s10.698-23.896,23.896-23.896
	C654.986,675.723,665.686,686.42,665.686,699.618"/>
<circle fill="none" stroke="#00F472" stroke-width="0.5" stroke-miterlimit="10" cx="641.789" cy="699.618" r="23.896"/>
<path d="M661.977,692.854c-2.477-1.242-3.633-4.195-2.59-6.818l10.996-27.64c1.102-2.771,4.241-4.122,7.011-3.021
	c2.767,1.103,4.122,4.24,3.021,7.012l-10.995,27.64c-1.104,2.771-4.241,4.122-7.011,3.021
	C662.26,692.988,662.115,692.924,661.977,692.854"/>
<path fill="none" stroke="#00F472" stroke-width="0.5" stroke-miterlimit="10" d="M661.977,692.854
	c-2.477-1.242-3.633-4.195-2.59-6.818l10.996-27.64c1.102-2.771,4.241-4.122,7.011-3.021c2.767,1.103,4.122,4.24,3.021,7.012
	l-10.995,27.64c-1.104,2.771-4.241,4.122-7.011,3.021C662.26,692.988,662.115,692.924,661.977,692.854z"/>
<path d="M584.96,648.092c0,8.002-6.487,14.49-14.49,14.49c-8.002,0-14.488-6.488-14.488-14.49s6.486-14.489,14.488-14.489
	C578.473,633.603,584.96,640.09,584.96,648.092"/>
<circle fill="none" stroke="#00F472" stroke-width="0.5" stroke-miterlimit="10" cx="570.471" cy="648.092" r="14.489"/>
<path d="M533.084,642.732c2.744-0.381,5.371,1.396,5.999,4.148l6.612,29.003c0.662,2.907-1.157,5.8-4.063,6.463
	c-2.905,0.661-5.8-1.157-6.463-4.062l-6.612-29.004c-0.662-2.906,1.156-5.8,4.062-6.463
	C532.774,642.783,532.93,642.754,533.084,642.732"/>
<path fill="none" stroke="#00F472" stroke-width="0.5" stroke-miterlimit="10" d="M533.084,642.732
	c2.744-0.381,5.371,1.396,5.999,4.148l6.612,29.003c0.662,2.907-1.157,5.8-4.063,6.463c-2.905,0.661-5.8-1.157-6.463-4.062
	l-6.612-29.004c-0.662-2.906,1.156-5.8,4.062-6.463C532.774,642.783,532.93,642.754,533.084,642.732z"/>
<path d="M544.168,746.856c-2.699-0.429-4.69-2.84-4.536-5.628l1.444-26.128c0.165-2.978,2.711-5.257,5.688-5.093
	c2.973,0.166,5.256,2.712,5.091,5.688l-1.443,26.128c-0.164,2.978-2.711,5.257-5.688,5.092
	C544.536,746.905,544.35,746.886,544.168,746.856"/>
<path fill="none" stroke="#00F472" stroke-width="0.5" stroke-miterlimit="10" d="M544.168,746.856
	c-2.699-0.429-4.69-2.84-4.536-5.628l1.444-26.128c0.165-2.978,2.711-5.257,5.688-5.093c2.973,0.166,5.256,2.712,5.091,5.688
	l-1.443,26.128c-0.164,2.978-2.711,5.257-5.688,5.092C544.536,746.905,544.35,746.886,544.168,746.856z"/>
<path d="M581.156,749.192c-2.733,0-5.078-2.068-5.363-4.847l-2.677-26.03c-0.306-2.965,1.852-5.617,4.817-5.922
	c2.961-0.303,5.616,1.852,5.922,4.817l2.677,26.03c0.305,2.966-1.853,5.617-4.818,5.922
	C581.527,749.184,581.34,749.192,581.156,749.192"/>
<path fill="none" stroke="#00F472" stroke-width="0.5" stroke-miterlimit="10" d="M581.156,749.192
	c-2.733,0-5.078-2.068-5.363-4.847l-2.677-26.03c-0.306-2.965,1.852-5.617,4.817-5.922c2.961-0.303,5.616,1.852,5.922,4.817
	l2.677,26.03c0.305,2.966-1.853,5.617-4.818,5.922C581.527,749.184,581.34,749.192,581.156,749.192z"/>
<path d="M589.497,690.313c0,13.198-10.699,23.896-23.896,23.896c-13.198,0-23.896-10.698-23.896-23.896s10.697-23.896,23.896-23.896
	C578.798,666.418,589.497,677.115,589.497,690.313"/>
<circle fill="none" stroke="#00F472" stroke-width="0.5" stroke-miterlimit="10" cx="565.601" cy="690.313" r="23.896"/>
<path d="M585.788,683.549c-2.477-1.242-3.633-4.195-2.59-6.818l10.996-27.64c1.102-2.77,4.241-4.122,7.011-3.021
	c2.768,1.103,4.122,4.24,3.02,7.012l-10.994,27.64c-1.103,2.771-4.241,4.122-7.012,3.021
	C586.071,683.684,585.928,683.619,585.788,683.549"/>
<path fill="none" stroke="#00F472" stroke-width="0.5" stroke-miterlimit="10" d="M585.788,683.549
	c-2.477-1.242-3.633-4.195-2.59-6.818l10.996-27.64c1.102-2.77,4.241-4.122,7.011-3.021c2.768,1.103,4.122,4.24,3.02,7.012
	l-10.994,27.64c-1.103,2.771-4.241,4.122-7.012,3.021C586.071,683.684,585.928,683.619,585.788,683.549z"/>
<path d="M735.826,661.15c0,8.002-6.487,14.49-14.49,14.49c-8.002,0-14.488-6.488-14.488-14.49s6.486-14.49,14.488-14.49
	C729.339,646.66,735.826,653.148,735.826,661.15"/>
<circle fill="none" stroke="#00F472" stroke-width="0.5" stroke-miterlimit="10" cx="721.337" cy="661.15" r="14.489"/>
<path d="M683.95,655.791c2.744-0.381,5.371,1.396,5.999,4.148l6.611,29.003c0.662,2.907-1.156,5.8-4.062,6.463
	c-2.905,0.661-5.8-1.157-6.463-4.063l-6.612-29.003c-0.663-2.906,1.156-5.8,4.062-6.463
	C683.641,655.841,683.795,655.812,683.95,655.791"/>
<path fill="none" stroke="#00F472" stroke-width="0.5" stroke-miterlimit="10" d="M683.95,655.791
	c2.744-0.381,5.371,1.396,5.999,4.148l6.611,29.003c0.662,2.907-1.156,5.8-4.062,6.463c-2.905,0.661-5.8-1.157-6.463-4.063
	l-6.612-29.003c-0.663-2.906,1.156-5.8,4.062-6.463C683.641,655.841,683.795,655.812,683.95,655.791z"/>
<path d="M695.034,759.915c-2.699-0.43-4.69-2.84-4.536-5.628l1.443-26.128c0.166-2.978,2.711-5.258,5.688-5.093
	c2.972,0.166,5.256,2.711,5.091,5.688l-1.443,26.128c-0.164,2.977-2.711,5.257-5.688,5.092
	C695.402,759.964,695.216,759.943,695.034,759.915"/>
<path fill="none" stroke="#00F472" stroke-width="0.5" stroke-miterlimit="10" d="M695.034,759.915
	c-2.699-0.43-4.69-2.84-4.536-5.628l1.443-26.128c0.166-2.978,2.711-5.258,5.688-5.093c2.972,0.166,5.256,2.711,5.091,5.688
	l-1.443,26.128c-0.164,2.977-2.711,5.257-5.688,5.092C695.402,759.964,695.216,759.943,695.034,759.915z"/>
<path d="M732.022,762.251c-2.733,0-5.078-2.068-5.363-4.847l-2.677-26.03c-0.306-2.966,1.852-5.617,4.817-5.923
	c2.961-0.302,5.616,1.853,5.921,4.818l2.678,26.03c0.305,2.966-1.853,5.617-4.818,5.922
	C732.393,762.241,732.206,762.251,732.022,762.251"/>
<path fill="none" stroke="#00F472" stroke-width="0.5" stroke-miterlimit="10" d="M732.022,762.251
	c-2.733,0-5.078-2.068-5.363-4.847l-2.677-26.03c-0.306-2.966,1.852-5.617,4.817-5.923c2.961-0.302,5.616,1.853,5.921,4.818
	l2.678,26.03c0.305,2.966-1.853,5.617-4.818,5.922C732.393,762.241,732.206,762.251,732.022,762.251z"/>
<path d="M740.363,703.372c0,13.198-10.699,23.896-23.896,23.896c-13.198,0-23.897-10.698-23.897-23.896s10.699-23.896,23.897-23.896
	C729.664,679.477,740.363,690.174,740.363,703.372"/>
<circle fill="none" stroke="#00F472" stroke-width="0.5" stroke-miterlimit="10" cx="716.466" cy="703.372" r="23.897"/>
<path d="M736.654,696.607c-2.477-1.242-3.633-4.195-2.59-6.818l10.996-27.64c1.102-2.771,4.24-4.122,7.011-3.021
	c2.767,1.103,4.122,4.24,3.02,7.012l-10.995,27.64c-1.102,2.771-4.24,4.122-7.011,3.021
	C736.938,696.742,736.793,696.678,736.654,696.607"/>
<path fill="none" stroke="#00F472" stroke-width="0.5" stroke-miterlimit="10" d="M736.654,696.607
	c-2.477-1.242-3.633-4.195-2.59-6.818l10.996-27.64c1.102-2.771,4.24-4.122,7.011-3.021c2.767,1.103,4.122,4.24,3.02,7.012
	l-10.995,27.64c-1.102,2.771-4.24,4.122-7.011,3.021C736.938,696.742,736.793,696.678,736.654,696.607z"/>
<path d="M441.92,672.412c0,8.002-6.486,14.49-14.49,14.49c-8.002,0-14.488-6.488-14.488-14.49s6.486-14.489,14.488-14.489
	C435.434,657.923,441.92,664.41,441.92,672.412"/>
<circle fill="none" stroke="#00F472" stroke-width="0.5" stroke-miterlimit="10" cx="427.431" cy="672.412" r="14.489"/>
<path d="M390.045,667.053c2.744-0.381,5.371,1.396,5.998,4.148l6.611,29.003c0.663,2.907-1.156,5.8-4.062,6.463
	c-2.905,0.661-5.8-1.157-6.464-4.062l-6.612-29.004c-0.662-2.906,1.157-5.8,4.063-6.463
	C389.734,667.104,389.89,667.074,390.045,667.053"/>
<path fill="none" stroke="#00F472" stroke-width="0.5" stroke-miterlimit="10" d="M390.045,667.053
	c2.744-0.381,5.371,1.396,5.998,4.148l6.611,29.003c0.663,2.907-1.156,5.8-4.062,6.463c-2.905,0.661-5.8-1.157-6.464-4.062
	l-6.612-29.004c-0.662-2.906,1.157-5.8,4.063-6.463C389.734,667.104,389.89,667.074,390.045,667.053z"/>
<path d="M401.128,771.177c-2.699-0.429-4.69-2.84-4.536-5.628l1.444-26.128c0.165-2.978,2.711-5.257,5.688-5.093
	c2.972,0.166,5.256,2.712,5.09,5.688l-1.442,26.128c-0.165,2.978-2.711,5.257-5.688,5.092
	C401.496,771.226,401.311,771.206,401.128,771.177"/>
<path fill="none" stroke="#00F472" stroke-width="0.5" stroke-miterlimit="10" d="M401.128,771.177
	c-2.699-0.429-4.69-2.84-4.536-5.628l1.444-26.128c0.165-2.978,2.711-5.257,5.688-5.093c2.972,0.166,5.256,2.712,5.09,5.688
	l-1.442,26.128c-0.165,2.978-2.711,5.257-5.688,5.092C401.496,771.226,401.311,771.206,401.128,771.177z"/>
<path d="M438.116,773.513c-2.733,0-5.077-2.068-5.362-4.847l-2.678-26.03c-0.305-2.965,1.852-5.617,4.818-5.922
	c2.961-0.303,5.615,1.852,5.921,4.817l2.677,26.03c0.305,2.966-1.852,5.617-4.818,5.922
	C438.487,773.504,438.301,773.513,438.116,773.513"/>
<path fill="none" stroke="#00F472" stroke-width="0.5" stroke-miterlimit="10" d="M438.116,773.513
	c-2.733,0-5.077-2.068-5.362-4.847l-2.678-26.03c-0.305-2.965,1.852-5.617,4.818-5.922c2.961-0.303,5.615,1.852,5.921,4.817
	l2.677,26.03c0.305,2.966-1.852,5.617-4.818,5.922C438.487,773.504,438.301,773.513,438.116,773.513z"/>
<path d="M446.457,714.634c0,13.198-10.699,23.896-23.896,23.896s-23.896-10.698-23.896-23.896c0-13.197,10.699-23.896,23.896-23.896
	S446.457,701.437,446.457,714.634"/>
<circle fill="none" stroke="#00F472" stroke-width="0.5" stroke-miterlimit="10" cx="422.561" cy="714.634" r="23.896"/>
<path d="M442.749,707.869c-2.478-1.242-3.634-4.195-2.591-6.818l10.996-27.64c1.103-2.77,4.241-4.122,7.012-3.021
	c2.767,1.103,4.121,4.24,3.02,7.012l-10.996,27.64c-1.102,2.771-4.24,4.122-7.01,3.021
	C443.031,708.004,442.888,707.939,442.749,707.869"/>
<path fill="none" stroke="#00F472" stroke-width="0.5" stroke-miterlimit="10" d="M442.749,707.869
	c-2.478-1.242-3.634-4.195-2.591-6.818l10.996-27.64c1.103-2.77,4.241-4.122,7.012-3.021c2.767,1.103,4.121,4.24,3.02,7.012
	l-10.996,27.64c-1.102,2.771-4.24,4.122-7.01,3.021C443.031,708.004,442.888,707.939,442.749,707.869z"/>
<path d="M531.754,692.48c0,8.002-6.487,14.49-14.49,14.49c-8.002,0-14.489-6.488-14.489-14.49s6.487-14.489,14.489-14.489
	C525.267,677.991,531.754,684.479,531.754,692.48"/>
<circle fill="none" stroke="#00F472" stroke-width="0.5" stroke-miterlimit="10" cx="517.264" cy="692.48" r="14.49"/>
<path d="M479.878,687.121c2.744-0.381,5.371,1.396,5.998,4.148l6.612,29.003c0.662,2.907-1.156,5.8-4.062,6.463
	c-2.905,0.661-5.8-1.157-6.464-4.062l-6.612-29.003c-0.662-2.907,1.157-5.801,4.063-6.464
	C479.568,687.172,479.723,687.143,479.878,687.121"/>
<path fill="none" stroke="#00F472" stroke-width="0.5" stroke-miterlimit="10" d="M479.878,687.121
	c2.744-0.381,5.371,1.396,5.998,4.148l6.612,29.003c0.662,2.907-1.156,5.8-4.062,6.463c-2.905,0.661-5.8-1.157-6.464-4.062
	l-6.612-29.003c-0.662-2.907,1.157-5.801,4.063-6.464C479.568,687.172,479.723,687.143,479.878,687.121z"/>
<path d="M490.961,791.245c-2.699-0.429-4.689-2.84-4.535-5.628l1.443-26.128c0.165-2.978,2.711-5.257,5.688-5.092
	c2.972,0.166,5.256,2.711,5.091,5.687l-1.443,26.128c-0.165,2.978-2.711,5.257-5.688,5.092
	C491.329,791.294,491.144,791.274,490.961,791.245"/>
<path fill="none" stroke="#00F472" stroke-width="0.5" stroke-miterlimit="10" d="M490.961,791.245
	c-2.699-0.429-4.689-2.84-4.535-5.628l1.443-26.128c0.165-2.978,2.711-5.257,5.688-5.092c2.972,0.166,5.256,2.711,5.091,5.687
	l-1.443,26.128c-0.165,2.978-2.711,5.257-5.688,5.092C491.329,791.294,491.144,791.274,490.961,791.245z"/>
<path d="M527.949,793.581c-2.732,0-5.076-2.068-5.362-4.846l-2.677-26.031c-0.306-2.965,1.852-5.617,4.817-5.922
	c2.961-0.303,5.616,1.852,5.921,4.817l2.678,26.03c0.305,2.966-1.853,5.617-4.818,5.922
	C528.32,793.572,528.135,793.581,527.949,793.581"/>
<path fill="none" stroke="#00F472" stroke-width="0.5" stroke-miterlimit="10" d="M527.949,793.581
	c-2.732,0-5.076-2.068-5.362-4.846l-2.677-26.031c-0.306-2.965,1.852-5.617,4.817-5.922c2.961-0.303,5.616,1.852,5.921,4.817
	l2.678,26.03c0.305,2.966-1.853,5.617-4.818,5.922C528.32,793.572,528.135,793.581,527.949,793.581z"/>
<path d="M536.291,734.702c0,13.198-10.699,23.896-23.896,23.896c-13.198,0-23.897-10.698-23.897-23.896
	c0-13.197,10.699-23.896,23.897-23.896C525.592,710.807,536.291,721.505,536.291,734.702"/>
<circle fill="none" stroke="#00F472" stroke-width="0.5" stroke-miterlimit="10" cx="512.394" cy="734.702" r="23.897"/>
<path d="M532.582,727.938c-2.477-1.242-3.633-4.194-2.59-6.817l10.996-27.641c1.102-2.77,4.24-4.122,7.011-3.021
	c2.767,1.103,4.122,4.241,3.02,7.012l-10.995,27.64c-1.103,2.771-4.24,4.122-7.011,3.021
	C532.865,728.072,532.721,728.008,532.582,727.938"/>
<path fill="none" stroke="#00F472" stroke-width="0.5" stroke-miterlimit="10" d="M532.582,727.938
	c-2.477-1.242-3.633-4.194-2.59-6.817l10.996-27.641c1.102-2.77,4.24-4.122,7.011-3.021c2.767,1.103,4.122,4.241,3.02,7.012
	l-10.995,27.64c-1.103,2.771-4.24,4.122-7.011,3.021C532.865,728.072,532.721,728.008,532.582,727.938z"/>
<path d="M612.157,695.226c0,8.002-6.487,14.489-14.49,14.489c-8.002,0-14.489-6.487-14.489-14.489s6.487-14.49,14.489-14.49
	C605.67,680.735,612.157,687.224,612.157,695.226"/>
<circle fill="none" stroke="#00F472" stroke-width="0.5" stroke-miterlimit="10" cx="597.667" cy="695.226" r="14.49"/>
<path d="M560.281,689.866c2.744-0.382,5.371,1.396,5.998,4.147l6.612,29.003c0.663,2.907-1.156,5.8-4.062,6.463
	c-2.905,0.661-5.8-1.156-6.464-4.062l-6.611-29.003c-0.662-2.907,1.156-5.8,4.062-6.463
	C559.972,689.916,560.127,689.887,560.281,689.866"/>
<path fill="none" stroke="#00F472" stroke-width="0.5" stroke-miterlimit="10" d="M560.281,689.866
	c2.744-0.382,5.371,1.396,5.998,4.147l6.612,29.003c0.663,2.907-1.156,5.8-4.062,6.463c-2.905,0.661-5.8-1.156-6.464-4.062
	l-6.611-29.003c-0.662-2.907,1.156-5.8,4.062-6.463C559.972,689.916,560.127,689.887,560.281,689.866z"/>
<path d="M571.365,793.989c-2.699-0.429-4.69-2.84-4.536-5.628l1.444-26.128c0.164-2.977,2.711-5.257,5.688-5.092
	c2.972,0.166,5.256,2.711,5.091,5.687l-1.442,26.128c-0.166,2.978-2.711,5.258-5.688,5.093
	C571.732,794.038,571.547,794.019,571.365,793.989"/>
<path fill="none" stroke="#00F472" stroke-width="0.5" stroke-miterlimit="10" d="M571.365,793.989
	c-2.699-0.429-4.69-2.84-4.536-5.628l1.444-26.128c0.164-2.977,2.711-5.257,5.688-5.092c2.972,0.166,5.256,2.711,5.091,5.687
	l-1.442,26.128c-0.166,2.978-2.711,5.258-5.688,5.093C571.732,794.038,571.547,794.019,571.365,793.989z"/>
<path d="M608.354,796.325c-2.733,0-5.077-2.068-5.363-4.846l-2.677-26.031c-0.306-2.965,1.852-5.617,4.817-5.922
	c2.961-0.302,5.616,1.852,5.922,4.817l2.677,26.03c0.305,2.966-1.853,5.617-4.818,5.922
	C608.725,796.316,608.538,796.325,608.354,796.325"/>
<path fill="none" stroke="#00F472" stroke-width="0.5" stroke-miterlimit="10" d="M608.354,796.325
	c-2.733,0-5.077-2.068-5.363-4.846l-2.677-26.031c-0.306-2.965,1.852-5.617,4.817-5.922c2.961-0.302,5.616,1.852,5.922,4.817
	l2.677,26.03c0.305,2.966-1.853,5.617-4.818,5.922C608.725,796.316,608.538,796.325,608.354,796.325z"/>
<path d="M616.694,737.447c0,13.197-10.699,23.896-23.896,23.896c-13.198,0-23.897-10.698-23.897-23.896
	c0-13.198,10.699-23.896,23.897-23.896C605.995,713.551,616.694,724.249,616.694,737.447"/>
<circle fill="none" stroke="#00F472" stroke-width="0.5" stroke-miterlimit="10" cx="592.797" cy="737.447" r="23.897"/>
<path d="M612.985,730.682c-2.477-1.241-3.633-4.194-2.59-6.817l10.996-27.641c1.102-2.77,4.241-4.122,7.011-3.021
	c2.768,1.103,4.122,4.241,3.02,7.012l-10.995,27.641c-1.103,2.77-4.24,4.121-7.011,3.02
	C613.269,730.817,613.125,730.752,612.985,730.682"/>
<path fill="none" stroke="#00F472" stroke-width="0.5" stroke-miterlimit="10" d="M612.985,730.682
	c-2.477-1.241-3.633-4.194-2.59-6.817l10.996-27.641c1.102-2.77,4.241-4.122,7.011-3.021c2.768,1.103,4.122,4.241,3.02,7.012
	l-10.995,27.641c-1.103,2.77-4.24,4.121-7.011,3.02C613.269,730.817,613.125,730.752,612.985,730.682z"/>
<path d="M696.817,703.619c0,8.002-6.487,14.489-14.49,14.489c-8.002,0-14.488-6.487-14.488-14.489s6.486-14.49,14.488-14.49
	C690.33,689.129,696.817,695.617,696.817,703.619"/>
<circle fill="none" stroke="#00F472" stroke-width="0.5" stroke-miterlimit="10" cx="682.328" cy="703.619" r="14.489"/>
<path d="M644.941,698.26c2.744-0.381,5.371,1.396,5.999,4.147l6.612,29.003c0.662,2.907-1.157,5.8-4.063,6.463
	c-2.905,0.661-5.8-1.156-6.463-4.062l-6.612-29.003c-0.662-2.907,1.156-5.8,4.062-6.463
	C644.632,698.31,644.787,698.28,644.941,698.26"/>
<path fill="none" stroke="#00F472" stroke-width="0.5" stroke-miterlimit="10" d="M644.941,698.26
	c2.744-0.381,5.371,1.396,5.999,4.147l6.612,29.003c0.662,2.907-1.157,5.8-4.063,6.463c-2.905,0.661-5.8-1.156-6.463-4.062
	l-6.612-29.003c-0.662-2.907,1.156-5.8,4.062-6.463C644.632,698.31,644.787,698.28,644.941,698.26z"/>
<path d="M656.025,802.383c-2.699-0.429-4.69-2.84-4.536-5.628l1.444-26.128c0.165-2.977,2.711-5.257,5.688-5.092
	c2.973,0.166,5.256,2.711,5.091,5.687l-1.443,26.128c-0.164,2.978-2.711,5.257-5.688,5.093
	C656.394,802.432,656.207,802.412,656.025,802.383"/>
<path fill="none" stroke="#00F472" stroke-width="0.5" stroke-miterlimit="10" d="M656.025,802.383
	c-2.699-0.429-4.69-2.84-4.536-5.628l1.444-26.128c0.165-2.977,2.711-5.257,5.688-5.092c2.973,0.166,5.256,2.711,5.091,5.687
	l-1.443,26.128c-0.164,2.978-2.711,5.257-5.688,5.093C656.394,802.432,656.207,802.412,656.025,802.383z"/>
<path d="M693.014,804.719c-2.733,0-5.078-2.068-5.363-4.846l-2.677-26.031c-0.306-2.965,1.852-5.617,4.817-5.922
	c2.961-0.302,5.616,1.852,5.922,4.818l2.677,26.029c0.305,2.966-1.853,5.617-4.818,5.922
	C693.385,804.71,693.197,804.719,693.014,804.719"/>
<path fill="none" stroke="#00F472" stroke-width="0.5" stroke-miterlimit="10" d="M693.014,804.719
	c-2.733,0-5.078-2.068-5.363-4.846l-2.677-26.031c-0.306-2.965,1.852-5.617,4.817-5.922c2.961-0.302,5.616,1.852,5.922,4.818
	l2.677,26.029c0.305,2.966-1.853,5.617-4.818,5.922C693.385,804.71,693.197,804.719,693.014,804.719z"/>
<path d="M701.354,745.841c0,13.197-10.699,23.896-23.896,23.896c-13.198,0-23.896-10.698-23.896-23.896
	c0-13.198,10.697-23.896,23.896-23.896C690.655,721.944,701.354,732.643,701.354,745.841"/>
<circle fill="none" stroke="#00F472" stroke-width="0.5" stroke-miterlimit="10" cx="677.458" cy="745.841" r="23.896"/>
<path d="M697.646,739.075c-2.477-1.241-3.633-4.194-2.59-6.817l10.996-27.641c1.102-2.77,4.241-4.122,7.011-3.021
	c2.768,1.103,4.122,4.241,3.02,7.012l-10.994,27.64c-1.103,2.771-4.241,4.122-7.012,3.021
	C697.929,739.211,697.785,739.146,697.646,739.075"/>
<path fill="none" stroke="#00F472" stroke-width="0.5" stroke-miterlimit="10" d="M697.646,739.075
	c-2.477-1.241-3.633-4.194-2.59-6.817l10.996-27.641c1.102-2.77,4.241-4.122,7.011-3.021c2.768,1.103,4.122,4.241,3.02,7.012
	l-10.994,27.64c-1.103,2.771-4.241,4.122-7.012,3.021C697.929,739.211,697.785,739.146,697.646,739.075z"/>
<path d="M403.826,702.168c0,8.002-6.487,14.49-14.49,14.49c-8.002,0-14.488-6.488-14.488-14.49s6.486-14.489,14.488-14.489
	C397.339,687.679,403.826,694.166,403.826,702.168"/>
<circle fill="none" stroke="#00F472" stroke-width="0.5" stroke-miterlimit="10" cx="389.337" cy="702.168" r="14.489"/>
<path d="M351.95,696.81c2.744-0.382,5.371,1.396,5.998,4.147l6.612,29.003c0.663,2.907-1.156,5.8-4.062,6.463
	c-2.904,0.661-5.8-1.157-6.464-4.062l-6.612-29.003c-0.662-2.907,1.157-5.801,4.063-6.463
	C351.641,696.859,351.795,696.83,351.95,696.81"/>
<path fill="none" stroke="#00F472" stroke-width="0.5" stroke-miterlimit="10" d="M351.95,696.81
	c2.744-0.382,5.371,1.396,5.998,4.147l6.612,29.003c0.663,2.907-1.156,5.8-4.062,6.463c-2.904,0.661-5.8-1.157-6.464-4.062
	l-6.612-29.003c-0.662-2.907,1.157-5.801,4.063-6.463C351.641,696.859,351.795,696.83,351.95,696.81z"/>
<path d="M363.034,800.933c-2.699-0.429-4.69-2.84-4.536-5.628l1.443-26.128c0.166-2.978,2.711-5.257,5.688-5.092
	c2.972,0.166,5.256,2.711,5.091,5.687l-1.443,26.128c-0.164,2.978-2.711,5.257-5.688,5.092
	C363.402,800.981,363.216,800.962,363.034,800.933"/>
<path fill="none" stroke="#00F472" stroke-width="0.5" stroke-miterlimit="10" d="M363.034,800.933
	c-2.699-0.429-4.69-2.84-4.536-5.628l1.443-26.128c0.166-2.978,2.711-5.257,5.688-5.092c2.972,0.166,5.256,2.711,5.091,5.687
	l-1.443,26.128c-0.164,2.978-2.711,5.257-5.688,5.092C363.402,800.981,363.216,800.962,363.034,800.933z"/>
<path d="M400.022,803.269c-2.733,0-5.077-2.068-5.363-4.846l-2.677-26.031c-0.306-2.965,1.852-5.617,4.817-5.922
	c2.961-0.302,5.616,1.852,5.921,4.817l2.678,26.03c0.305,2.966-1.853,5.617-4.818,5.922
	C400.393,803.26,400.207,803.269,400.022,803.269"/>
<path fill="none" stroke="#00F472" stroke-width="0.5" stroke-miterlimit="10" d="M400.022,803.269
	c-2.733,0-5.077-2.068-5.363-4.846l-2.677-26.031c-0.306-2.965,1.852-5.617,4.817-5.922c2.961-0.302,5.616,1.852,5.921,4.817
	l2.678,26.03c0.305,2.966-1.853,5.617-4.818,5.922C400.393,803.26,400.207,803.269,400.022,803.269z"/>
<path d="M408.363,744.39c0,13.198-10.699,23.896-23.896,23.896c-13.198,0-23.896-10.698-23.896-23.896
	c0-13.197,10.698-23.896,23.896-23.896C397.664,720.494,408.363,731.192,408.363,744.39"/>
<circle fill="none" stroke="#00F472" stroke-width="0.5" stroke-miterlimit="10" cx="384.467" cy="744.39" r="23.896"/>
<path d="M404.654,737.625c-2.477-1.242-3.633-4.194-2.59-6.817l10.996-27.641c1.102-2.77,4.241-4.122,7.011-3.021
	c2.767,1.103,4.122,4.241,3.021,7.012l-10.996,27.64c-1.103,2.771-4.24,4.122-7.01,3.021
	C404.938,737.76,404.793,737.695,404.654,737.625"/>
<path fill="none" stroke="#00F472" stroke-width="0.5" stroke-miterlimit="10" d="M404.654,737.625
	c-2.477-1.242-3.633-4.194-2.59-6.817l10.996-27.641c1.102-2.77,4.241-4.122,7.011-3.021c2.767,1.103,4.122,4.241,3.021,7.012
	l-10.996,27.64c-1.103,2.771-4.24,4.122-7.01,3.021C404.938,737.76,404.793,737.695,404.654,737.625z"/>
<path d="M479.383,716.669c0,8.003-6.487,14.49-14.49,14.49c-8.002,0-14.489-6.487-14.489-14.49c0-8.002,6.487-14.489,14.489-14.489
	C472.896,702.18,479.383,708.667,479.383,716.669"/>
<circle fill="none" stroke="#00F472" stroke-width="0.5" stroke-miterlimit="10" cx="464.893" cy="716.669" r="14.49"/>
<path d="M427.507,711.311c2.744-0.382,5.371,1.396,5.998,4.147l6.612,29.003c0.662,2.907-1.156,5.8-4.063,6.463
	c-2.904,0.661-5.8-1.156-6.463-4.062l-6.612-29.003c-0.662-2.907,1.157-5.8,4.063-6.463
	C427.197,711.36,427.352,711.331,427.507,711.311"/>
<path fill="none" stroke="#00F472" stroke-width="0.5" stroke-miterlimit="10" d="M427.507,711.311
	c2.744-0.382,5.371,1.396,5.998,4.147l6.612,29.003c0.662,2.907-1.156,5.8-4.063,6.463c-2.904,0.661-5.8-1.156-6.463-4.062
	l-6.612-29.003c-0.662-2.907,1.157-5.8,4.063-6.463C427.197,711.36,427.352,711.331,427.507,711.311z"/>
<path d="M438.59,815.434c-2.699-0.429-4.689-2.84-4.535-5.628l1.443-26.128c0.165-2.978,2.711-5.257,5.688-5.092
	c2.972,0.166,5.256,2.711,5.091,5.687l-1.444,26.128c-0.164,2.978-2.71,5.257-5.687,5.092
	C438.958,815.482,438.772,815.463,438.59,815.434"/>
<path fill="none" stroke="#00F472" stroke-width="0.5" stroke-miterlimit="10" d="M438.59,815.434
	c-2.699-0.429-4.689-2.84-4.535-5.628l1.443-26.128c0.165-2.978,2.711-5.257,5.688-5.092c2.972,0.166,5.256,2.711,5.091,5.687
	l-1.444,26.128c-0.164,2.978-2.71,5.257-5.687,5.092C438.958,815.482,438.772,815.463,438.59,815.434z"/>
<path d="M475.578,817.77c-2.732,0-5.076-2.068-5.362-4.846l-2.677-26.031c-0.306-2.965,1.852-5.617,4.817-5.922
	c2.961-0.302,5.616,1.852,5.921,4.817l2.678,26.03c0.305,2.966-1.853,5.617-4.818,5.922
	C475.949,817.761,475.764,817.77,475.578,817.77"/>
<path fill="none" stroke="#00F472" stroke-width="0.5" stroke-miterlimit="10" d="M475.578,817.77c-2.732,0-5.076-2.068-5.362-4.846
	l-2.677-26.031c-0.306-2.965,1.852-5.617,4.817-5.922c2.961-0.302,5.616,1.852,5.921,4.817l2.678,26.03
	c0.305,2.966-1.853,5.617-4.818,5.922C475.949,817.761,475.764,817.77,475.578,817.77z"/>
<path d="M483.92,758.891c0,13.198-10.699,23.896-23.896,23.896c-13.198,0-23.897-10.698-23.897-23.896
	c0-13.197,10.699-23.896,23.897-23.896C473.221,734.995,483.92,745.693,483.92,758.891"/>
<circle fill="none" stroke="#00F472" stroke-width="0.5" stroke-miterlimit="10" cx="460.023" cy="758.891" r="23.897"/>
<path d="M480.211,752.126c-2.477-1.242-3.633-4.194-2.59-6.817l10.996-27.641c1.102-2.77,4.24-4.122,7.011-3.021
	c2.767,1.103,4.122,4.241,3.02,7.012l-10.995,27.64c-1.103,2.771-4.24,4.122-7.011,3.021
	C480.494,752.261,480.35,752.196,480.211,752.126"/>
<path fill="none" stroke="#00F472" stroke-width="0.5" stroke-miterlimit="10" d="M480.211,752.126
	c-2.477-1.242-3.633-4.194-2.59-6.817l10.996-27.641c1.102-2.77,4.24-4.122,7.011-3.021c2.767,1.103,4.122,4.241,3.02,7.012
	l-10.995,27.64c-1.103,2.771-4.24,4.122-7.011,3.021C480.494,752.261,480.35,752.196,480.211,752.126z"/>
<path d="M574.062,735.271c0,8.002-6.486,14.49-14.49,14.49c-8.002,0-14.488-6.488-14.488-14.49s6.486-14.489,14.488-14.489
	C567.576,720.782,574.062,727.27,574.062,735.271"/>
<circle fill="none" stroke="#00F472" stroke-width="0.5" stroke-miterlimit="10" cx="559.573" cy="735.271" r="14.489"/>
<path d="M522.188,729.912c2.744-0.381,5.371,1.396,5.998,4.148l6.611,29.003c0.663,2.907-1.156,5.8-4.062,6.463
	c-2.905,0.661-5.8-1.157-6.464-4.062l-6.612-29.003c-0.662-2.907,1.157-5.801,4.063-6.464
	C521.877,729.963,522.032,729.934,522.188,729.912"/>
<path fill="none" stroke="#00F472" stroke-width="0.5" stroke-miterlimit="10" d="M522.188,729.912
	c2.744-0.381,5.371,1.396,5.998,4.148l6.611,29.003c0.663,2.907-1.156,5.8-4.062,6.463c-2.905,0.661-5.8-1.157-6.464-4.062
	l-6.612-29.003c-0.662-2.907,1.157-5.801,4.063-6.464C521.877,729.963,522.032,729.934,522.188,729.912z"/>
<path d="M533.271,834.036c-2.699-0.429-4.69-2.84-4.535-5.628l1.443-26.128c0.165-2.978,2.711-5.257,5.688-5.092
	c2.972,0.166,5.256,2.711,5.09,5.687l-1.442,26.128c-0.165,2.978-2.711,5.257-5.688,5.092
	C533.639,834.085,533.453,834.065,533.271,834.036"/>
<path fill="none" stroke="#00F472" stroke-width="0.5" stroke-miterlimit="10" d="M533.271,834.036
	c-2.699-0.429-4.69-2.84-4.535-5.628l1.443-26.128c0.165-2.978,2.711-5.257,5.688-5.092c2.972,0.166,5.256,2.711,5.09,5.687
	l-1.442,26.128c-0.165,2.978-2.711,5.257-5.688,5.092C533.639,834.085,533.453,834.065,533.271,834.036z"/>
<path d="M570.259,836.372c-2.733,0-5.077-2.068-5.362-4.846l-2.678-26.031c-0.305-2.965,1.852-5.617,4.818-5.922
	c2.961-0.303,5.615,1.852,5.921,4.817l2.677,26.03c0.305,2.966-1.852,5.617-4.818,5.922
	C570.63,836.363,570.443,836.372,570.259,836.372"/>
<path fill="none" stroke="#00F472" stroke-width="0.5" stroke-miterlimit="10" d="M570.259,836.372
	c-2.733,0-5.077-2.068-5.362-4.846l-2.678-26.031c-0.305-2.965,1.852-5.617,4.818-5.922c2.961-0.303,5.615,1.852,5.921,4.817
	l2.677,26.03c0.305,2.966-1.852,5.617-4.818,5.922C570.63,836.363,570.443,836.372,570.259,836.372z"/>
<path d="M578.6,777.493c0,13.198-10.699,23.896-23.896,23.896s-23.896-10.698-23.896-23.896c0-13.197,10.699-23.896,23.896-23.896
	S578.6,764.296,578.6,777.493"/>
<circle fill="none" stroke="#00F472" stroke-width="0.5" stroke-miterlimit="10" cx="554.703" cy="777.493" r="23.896"/>
<path d="M574.892,770.729c-2.478-1.242-3.634-4.194-2.591-6.817l10.996-27.641c1.103-2.77,4.241-4.122,7.012-3.021
	c2.767,1.103,4.121,4.24,3.02,7.012l-10.996,27.64c-1.102,2.771-4.24,4.122-7.01,3.021
	C575.174,770.863,575.03,770.799,574.892,770.729"/>
<path fill="none" stroke="#00F472" stroke-width="0.5" stroke-miterlimit="10" d="M574.892,770.729
	c-2.478-1.242-3.634-4.194-2.591-6.817l10.996-27.641c1.103-2.77,4.241-4.122,7.012-3.021c2.767,1.103,4.121,4.24,3.02,7.012
	l-10.996,27.64c-1.102,2.771-4.24,4.122-7.01,3.021C575.174,770.863,575.03,770.799,574.892,770.729z"/>
<path d="M660.234,743c0,8.002-6.487,14.49-14.49,14.49c-8.002,0-14.488-6.488-14.488-14.49s6.486-14.49,14.488-14.49
	C653.747,728.51,660.234,734.998,660.234,743"/>
<circle fill="none" stroke="#00F472" stroke-width="0.5" stroke-miterlimit="10" cx="645.745" cy="743" r="14.489"/>
<path d="M608.358,737.641c2.744-0.381,5.371,1.396,5.999,4.148l6.611,29.003c0.662,2.906-1.156,5.8-4.062,6.463
	c-2.905,0.661-5.8-1.157-6.464-4.063l-6.612-29.003c-0.662-2.907,1.157-5.8,4.063-6.463
	C608.049,737.69,608.203,737.662,608.358,737.641"/>
<path fill="none" stroke="#00F472" stroke-width="0.5" stroke-miterlimit="10" d="M608.358,737.641
	c2.744-0.381,5.371,1.396,5.999,4.148l6.611,29.003c0.662,2.906-1.156,5.8-4.062,6.463c-2.905,0.661-5.8-1.157-6.464-4.063
	l-6.612-29.003c-0.662-2.907,1.157-5.8,4.063-6.463C608.049,737.69,608.203,737.662,608.358,737.641z"/>
<path d="M619.441,841.765c-2.699-0.43-4.688-2.841-4.535-5.628l1.443-26.129c0.165-2.977,2.711-5.257,5.688-5.092
	c2.972,0.166,5.256,2.711,5.091,5.688l-1.443,26.128c-0.165,2.977-2.711,5.257-5.688,5.092
	C619.81,841.813,619.624,841.793,619.441,841.765"/>
<path fill="none" stroke="#00F472" stroke-width="0.5" stroke-miterlimit="10" d="M619.441,841.765
	c-2.699-0.43-4.688-2.841-4.535-5.628l1.443-26.129c0.165-2.977,2.711-5.257,5.688-5.092c2.972,0.166,5.256,2.711,5.091,5.688
	l-1.443,26.128c-0.165,2.977-2.711,5.257-5.688,5.092C619.81,841.813,619.624,841.793,619.441,841.765z"/>
<path d="M656.43,844.1c-2.732,0-5.076-2.067-5.362-4.846l-2.677-26.031c-0.306-2.965,1.852-5.616,4.817-5.922
	c2.961-0.302,5.616,1.853,5.921,4.818l2.678,26.03c0.305,2.966-1.853,5.616-4.818,5.922C656.801,844.091,656.615,844.1,656.43,844.1
	"/>
<path fill="none" stroke="#00F472" stroke-width="0.5" stroke-miterlimit="10" d="M656.43,844.1c-2.732,0-5.076-2.067-5.362-4.846
	l-2.677-26.031c-0.306-2.965,1.852-5.616,4.817-5.922c2.961-0.302,5.616,1.853,5.921,4.818l2.678,26.03
	c0.305,2.966-1.853,5.616-4.818,5.922C656.801,844.091,656.615,844.1,656.43,844.1z"/>
<path d="M664.771,785.222c0,13.198-10.699,23.896-23.896,23.896c-13.198,0-23.897-10.698-23.897-23.896s10.699-23.896,23.897-23.896
	C654.072,761.326,664.771,772.023,664.771,785.222"/>
<circle fill="none" stroke="#00F472" stroke-width="0.5" stroke-miterlimit="10" cx="640.875" cy="785.222" r="23.897"/>
<path d="M661.062,778.457c-2.477-1.242-3.633-4.195-2.59-6.818l10.996-27.64c1.102-2.771,4.24-4.122,7.011-3.021
	c2.767,1.104,4.122,4.241,3.02,7.013l-10.995,27.64c-1.103,2.771-4.24,4.122-7.011,3.021
	C661.346,778.592,661.201,778.527,661.062,778.457"/>
<path fill="none" stroke="#00F472" stroke-width="0.5" stroke-miterlimit="10" d="M661.062,778.457
	c-2.477-1.242-3.633-4.195-2.59-6.818l10.996-27.64c1.102-2.771,4.24-4.122,7.011-3.021c2.767,1.104,4.122,4.241,3.02,7.013
	l-10.995,27.64c-1.103,2.771-4.24,4.122-7.011,3.021C661.346,778.592,661.201,778.527,661.062,778.457z"/>
<path d="M362.716,730.207c0,8.002-6.487,14.49-14.49,14.49c-8.002,0-14.489-6.488-14.489-14.49s6.487-14.49,14.489-14.49
	C356.229,715.717,362.716,722.205,362.716,730.207"/>
<circle fill="none" stroke="#00F472" stroke-width="0.5" stroke-miterlimit="10" cx="348.226" cy="730.207" r="14.49"/>
<path d="M310.84,724.848c2.744-0.381,5.371,1.396,5.998,4.148l6.612,29.003c0.662,2.907-1.157,5.8-4.062,6.463
	c-2.905,0.661-5.8-1.157-6.463-4.063l-6.612-29.003c-0.663-2.906,1.156-5.8,4.062-6.463
	C310.529,724.897,310.685,724.869,310.84,724.848"/>
<path fill="none" stroke="#00F472" stroke-width="0.5" stroke-miterlimit="10" d="M310.84,724.848
	c2.744-0.381,5.371,1.396,5.998,4.148l6.612,29.003c0.662,2.907-1.157,5.8-4.062,6.463c-2.905,0.661-5.8-1.157-6.463-4.063
	l-6.612-29.003c-0.663-2.906,1.156-5.8,4.062-6.463C310.529,724.897,310.685,724.869,310.84,724.848z"/>
<path d="M321.924,828.972c-2.699-0.43-4.69-2.84-4.537-5.628l1.444-26.128c0.165-2.978,2.711-5.258,5.688-5.093
	c2.972,0.166,5.256,2.711,5.091,5.688l-1.444,26.128c-0.164,2.977-2.711,5.257-5.687,5.092
	C322.291,829.021,322.105,829,321.924,828.972"/>
<path fill="none" stroke="#00F472" stroke-width="0.5" stroke-miterlimit="10" d="M321.924,828.972
	c-2.699-0.43-4.69-2.84-4.537-5.628l1.444-26.128c0.165-2.978,2.711-5.258,5.688-5.093c2.972,0.166,5.256,2.711,5.091,5.688
	l-1.444,26.128c-0.164,2.977-2.711,5.257-5.687,5.092C322.291,829.021,322.105,829,321.924,828.972z"/>
<path d="M358.911,831.308c-2.733,0-5.077-2.068-5.362-4.847l-2.678-26.03c-0.305-2.966,1.852-5.617,4.818-5.923
	c2.961-0.302,5.615,1.853,5.921,4.818l2.677,26.03c0.305,2.966-1.852,5.617-4.818,5.922
	C359.282,831.298,359.096,831.308,358.911,831.308"/>
<path fill="none" stroke="#00F472" stroke-width="0.5" stroke-miterlimit="10" d="M358.911,831.308
	c-2.733,0-5.077-2.068-5.362-4.847l-2.678-26.03c-0.305-2.966,1.852-5.617,4.818-5.923c2.961-0.302,5.615,1.853,5.921,4.818
	l2.677,26.03c0.305,2.966-1.852,5.617-4.818,5.922C359.282,831.298,359.096,831.308,358.911,831.308z"/>
<path d="M367.252,772.429c0,13.198-10.699,23.896-23.896,23.896s-23.896-10.698-23.896-23.896s10.699-23.896,23.896-23.896
	S367.252,759.23,367.252,772.429"/>
<circle fill="none" stroke="#00F472" stroke-width="0.5" stroke-miterlimit="10" cx="343.355" cy="772.429" r="23.896"/>
<path d="M363.544,765.664c-2.478-1.242-3.634-4.195-2.591-6.818l10.996-27.64c1.103-2.77,4.241-4.122,7.012-3.021
	c2.767,1.103,4.121,4.24,3.02,7.012l-10.995,27.64c-1.103,2.771-4.241,4.122-7.011,3.021
	C363.826,765.799,363.683,765.734,363.544,765.664"/>
<path fill="none" stroke="#00F472" stroke-width="0.5" stroke-miterlimit="10" d="M363.544,765.664
	c-2.478-1.242-3.634-4.195-2.591-6.818l10.996-27.64c1.103-2.77,4.241-4.122,7.012-3.021c2.767,1.103,4.121,4.24,3.02,7.012
	l-10.995,27.64c-1.103,2.771-4.241,4.122-7.011,3.021C363.826,765.799,363.683,765.734,363.544,765.664z"/>
<path d="M438.93,743c0,8.002-6.487,14.49-14.49,14.49c-8.002,0-14.489-6.488-14.489-14.49s6.487-14.49,14.489-14.49
	C432.442,728.51,438.93,734.998,438.93,743"/>
<circle fill="none" stroke="#00F472" stroke-width="0.5" stroke-miterlimit="10" cx="424.44" cy="743" r="14.49"/>
<path d="M387.054,737.641c2.744-0.381,5.371,1.396,5.998,4.148l6.612,29.003c0.662,2.906-1.156,5.8-4.062,6.463
	c-2.905,0.661-5.8-1.157-6.464-4.063l-6.612-29.003c-0.662-2.907,1.157-5.8,4.063-6.463
	C386.744,737.69,386.898,737.662,387.054,737.641"/>
<path fill="none" stroke="#00F472" stroke-width="0.5" stroke-miterlimit="10" d="M387.054,737.641
	c2.744-0.381,5.371,1.396,5.998,4.148l6.612,29.003c0.662,2.906-1.156,5.8-4.062,6.463c-2.905,0.661-5.8-1.157-6.464-4.063
	l-6.612-29.003c-0.662-2.907,1.157-5.8,4.063-6.463C386.744,737.69,386.898,737.662,387.054,737.641z"/>
<path d="M398.137,841.765c-2.699-0.43-4.689-2.841-4.535-5.628l1.443-26.129c0.165-2.977,2.711-5.257,5.688-5.092
	c2.972,0.166,5.256,2.711,5.091,5.688l-1.443,26.128c-0.165,2.977-2.711,5.257-5.688,5.092
	C398.505,841.813,398.319,841.793,398.137,841.765"/>
<path fill="none" stroke="#00F472" stroke-width="0.5" stroke-miterlimit="10" d="M398.137,841.765
	c-2.699-0.43-4.689-2.841-4.535-5.628l1.443-26.129c0.165-2.977,2.711-5.257,5.688-5.092c2.972,0.166,5.256,2.711,5.091,5.688
	l-1.443,26.128c-0.165,2.977-2.711,5.257-5.688,5.092C398.505,841.813,398.319,841.793,398.137,841.765z"/>
<path d="M435.125,844.1c-2.732,0-5.076-2.067-5.362-4.846l-2.677-26.031c-0.306-2.965,1.852-5.616,4.817-5.922
	c2.961-0.302,5.616,1.853,5.921,4.818l2.678,26.03c0.305,2.966-1.853,5.616-4.818,5.922
	C435.496,844.091,435.311,844.1,435.125,844.1"/>
<path fill="none" stroke="#00F472" stroke-width="0.5" stroke-miterlimit="10" d="M435.125,844.1c-2.732,0-5.076-2.067-5.362-4.846
	l-2.677-26.031c-0.306-2.965,1.852-5.616,4.817-5.922c2.961-0.302,5.616,1.853,5.921,4.818l2.678,26.03
	c0.305,2.966-1.853,5.616-4.818,5.922C435.496,844.091,435.311,844.1,435.125,844.1z"/>
<path d="M443.467,785.222c0,13.198-10.699,23.896-23.896,23.896c-13.198,0-23.897-10.698-23.897-23.896s10.699-23.896,23.897-23.896
	C432.768,761.326,443.467,772.023,443.467,785.222"/>
<circle fill="none" stroke="#00F472" stroke-width="0.5" stroke-miterlimit="10" cx="419.57" cy="785.222" r="23.897"/>
<path d="M439.758,778.457c-2.477-1.242-3.633-4.195-2.59-6.818l10.996-27.64c1.102-2.771,4.24-4.122,7.011-3.021
	c2.767,1.104,4.122,4.241,3.02,7.013l-10.995,27.64c-1.103,2.771-4.24,4.122-7.011,3.021
	C440.041,778.592,439.896,778.527,439.758,778.457"/>
<path fill="none" stroke="#00F472" stroke-width="0.5" stroke-miterlimit="10" d="M439.758,778.457
	c-2.477-1.242-3.633-4.195-2.59-6.818l10.996-27.64c1.102-2.771,4.24-4.122,7.011-3.021c2.767,1.104,4.122,4.241,3.02,7.013
	l-10.995,27.64c-1.103,2.771-4.24,4.122-7.011,3.021C440.041,778.592,439.896,778.527,439.758,778.457z"/>
<path d="M527.217,759.146c0,8.002-6.486,14.49-14.49,14.49c-8.002,0-14.488-6.488-14.488-14.49s6.486-14.49,14.488-14.49
	C520.73,744.655,527.217,751.144,527.217,759.146"/>
<circle fill="none" stroke="#00F472" stroke-width="0.5" stroke-miterlimit="10" cx="512.728" cy="759.146" r="14.489"/>
<path d="M475.341,753.786c2.744-0.381,5.371,1.396,5.999,4.147l6.612,29.004c0.662,2.906-1.157,5.8-4.063,6.463
	c-2.904,0.66-5.8-1.157-6.463-4.063l-6.611-29.003c-0.664-2.907,1.155-5.8,4.062-6.463
	C475.031,753.836,475.186,753.807,475.341,753.786"/>
<path fill="none" stroke="#00F472" stroke-width="0.5" stroke-miterlimit="10" d="M475.341,753.786
	c2.744-0.381,5.371,1.396,5.999,4.147l6.612,29.004c0.662,2.906-1.157,5.8-4.063,6.463c-2.904,0.66-5.8-1.157-6.463-4.063
	l-6.611-29.003c-0.664-2.907,1.155-5.8,4.062-6.463C475.031,753.836,475.186,753.807,475.341,753.786z"/>
<path d="M486.425,857.909c-2.699-0.429-4.69-2.84-4.536-5.628l1.444-26.128c0.165-2.977,2.711-5.257,5.688-5.092
	c2.972,0.166,5.256,2.711,5.091,5.688l-1.443,26.128c-0.164,2.977-2.711,5.257-5.688,5.092
	C486.793,857.959,486.606,857.938,486.425,857.909"/>
<path fill="none" stroke="#00F472" stroke-width="0.5" stroke-miterlimit="10" d="M486.425,857.909
	c-2.699-0.429-4.69-2.84-4.536-5.628l1.444-26.128c0.165-2.977,2.711-5.257,5.688-5.092c2.972,0.166,5.256,2.711,5.091,5.688
	l-1.443,26.128c-0.164,2.977-2.711,5.257-5.688,5.092C486.793,857.959,486.606,857.938,486.425,857.909z"/>
<path d="M523.413,860.245c-2.733,0-5.077-2.067-5.363-4.846l-2.677-26.031c-0.306-2.965,1.852-5.617,4.817-5.922
	c2.961-0.302,5.616,1.853,5.921,4.818l2.678,26.029c0.305,2.967-1.853,5.617-4.818,5.923
	C523.783,860.236,523.598,860.245,523.413,860.245"/>
<path fill="none" stroke="#00F472" stroke-width="0.5" stroke-miterlimit="10" d="M523.413,860.245
	c-2.733,0-5.077-2.067-5.363-4.846l-2.677-26.031c-0.306-2.965,1.852-5.617,4.817-5.922c2.961-0.302,5.616,1.853,5.921,4.818
	l2.678,26.029c0.305,2.967-1.853,5.617-4.818,5.923C523.783,860.236,523.598,860.245,523.413,860.245z"/>
<path d="M531.754,801.367c0,13.198-10.699,23.896-23.896,23.896c-13.198,0-23.896-10.697-23.896-23.896s10.698-23.896,23.896-23.896
	C521.055,777.471,531.754,788.169,531.754,801.367"/>
<circle fill="none" stroke="#00F472" stroke-width="0.5" stroke-miterlimit="10" cx="507.857" cy="801.367" r="23.896"/>
<path d="M528.045,794.603c-2.477-1.242-3.633-4.195-2.59-6.818l10.996-27.64c1.102-2.771,4.241-4.122,7.011-3.021
	c2.767,1.104,4.122,4.241,3.021,7.012l-10.995,27.641c-1.103,2.77-4.241,4.122-7.011,3.02
	C528.328,794.737,528.184,794.672,528.045,794.603"/>
<path fill="none" stroke="#00F472" stroke-width="0.5" stroke-miterlimit="10" d="M528.045,794.603
	c-2.477-1.242-3.633-4.195-2.59-6.818l10.996-27.64c1.102-2.771,4.241-4.122,7.011-3.021c2.767,1.104,4.122,4.241,3.021,7.012
	l-10.995,27.641c-1.103,2.77-4.241,4.122-7.011,3.02C528.328,794.737,528.184,794.672,528.045,794.603z"/>
<path d="M625.467,780.064c0,8.002-6.487,14.49-14.49,14.49c-8.002,0-14.489-6.488-14.489-14.49s6.487-14.49,14.489-14.49
	C618.979,765.574,625.467,772.062,625.467,780.064"/>
<circle fill="none" stroke="#00F472" stroke-width="0.5" stroke-miterlimit="10" cx="610.977" cy="780.064" r="14.49"/>
<path d="M573.591,774.705c2.743-0.381,5.37,1.396,5.999,4.148l6.611,29.003c0.662,2.907-1.156,5.8-4.062,6.463
	c-2.905,0.661-5.801-1.157-6.463-4.063l-6.612-29.003c-0.663-2.906,1.156-5.8,4.062-6.463
	C573.28,774.755,573.436,774.727,573.591,774.705"/>
<path fill="none" stroke="#00F472" stroke-width="0.5" stroke-miterlimit="10" d="M573.591,774.705
	c2.743-0.381,5.37,1.396,5.999,4.148l6.611,29.003c0.662,2.907-1.156,5.8-4.062,6.463c-2.905,0.661-5.801-1.157-6.463-4.063
	l-6.612-29.003c-0.663-2.906,1.156-5.8,4.062-6.463C573.28,774.755,573.436,774.727,573.591,774.705z"/>
<path d="M584.674,878.829c-2.699-0.429-4.689-2.84-4.535-5.628l1.443-26.128c0.165-2.978,2.711-5.258,5.688-5.093
	c2.972,0.166,5.256,2.712,5.091,5.688l-1.444,26.128c-0.164,2.977-2.711,5.257-5.687,5.092
	C585.042,878.878,584.856,878.857,584.674,878.829"/>
<path fill="none" stroke="#00F472" stroke-width="0.5" stroke-miterlimit="10" d="M584.674,878.829
	c-2.699-0.429-4.689-2.84-4.535-5.628l1.443-26.128c0.165-2.978,2.711-5.258,5.688-5.093c2.972,0.166,5.256,2.712,5.091,5.688
	l-1.444,26.128c-0.164,2.977-2.711,5.257-5.687,5.092C585.042,878.878,584.856,878.857,584.674,878.829z"/>
<path d="M621.662,881.165c-2.732,0-5.078-2.068-5.362-4.847l-2.677-26.03c-0.306-2.966,1.852-5.617,4.817-5.923
	c2.961-0.302,5.616,1.853,5.921,4.818l2.678,26.03c0.305,2.966-1.853,5.617-4.818,5.922
	C622.033,881.155,621.847,881.165,621.662,881.165"/>
<path fill="none" stroke="#00F472" stroke-width="0.5" stroke-miterlimit="10" d="M621.662,881.165
	c-2.732,0-5.078-2.068-5.362-4.847l-2.677-26.03c-0.306-2.966,1.852-5.617,4.817-5.923c2.961-0.302,5.616,1.853,5.921,4.818
	l2.678,26.03c0.305,2.966-1.853,5.617-4.818,5.922C622.033,881.155,621.847,881.165,621.662,881.165z"/>
<path d="M630.003,822.286c0,13.198-10.699,23.896-23.896,23.896c-13.198,0-23.897-10.698-23.897-23.896s10.699-23.896,23.897-23.896
	C619.304,798.391,630.003,809.088,630.003,822.286"/>
<circle fill="none" stroke="#00F472" stroke-width="0.5" stroke-miterlimit="10" cx="606.106" cy="822.286" r="23.896"/>
<path d="M626.295,815.521c-2.478-1.242-3.633-4.195-2.59-6.818l10.995-27.64c1.103-2.77,4.241-4.122,7.012-3.021
	c2.767,1.103,4.122,4.24,3.02,7.012l-10.995,27.64c-1.102,2.771-4.24,4.122-7.011,3.021
	C626.578,815.656,626.434,815.592,626.295,815.521"/>
<path fill="none" stroke="#00F472" stroke-width="0.5" stroke-miterlimit="10" d="M626.295,815.521
	c-2.478-1.242-3.633-4.195-2.59-6.818l10.995-27.64c1.103-2.77,4.241-4.122,7.012-3.021c2.767,1.103,4.122,4.24,3.02,7.012
	l-10.995,27.64c-1.102,2.771-4.24,4.122-7.011,3.021C626.578,815.656,626.434,815.592,626.295,815.521z"/>
<line fill="none" stroke="#000000" stroke-miterlimit="10" x1="384.456" y1="70.126" x2="58.917" y2="221.479"/>
<line fill="none" stroke="#000000" stroke-miterlimit="10" x1="616.01" y1="930.889" x2="616.01" y2="309.922"/>
<line fill="none" stroke="#000000" stroke-miterlimit="10" x1="941.549" y1="158.569" x2="384.456" y2="70.126"/>
<line fill="none" stroke="#000000" stroke-miterlimit="10" x1="58.917" y1="221.479" x2="616.01" y2="309.922"/>
<line fill="none" stroke="#000000" stroke-miterlimit="10" x1="58.917" y1="842.445" x2="58.917" y2="221.479"/>
<line fill="none" stroke="#000000" stroke-miterlimit="10" x1="616.01" y1="309.922" x2="941.549" y2="158.569"/>
<line fill="none" stroke="#000000" stroke-miterlimit="10" x1="941.549" y1="779.535" x2="941.549" y2="158.57"/>
<line fill="none" stroke="#000000" stroke-miterlimit="10" x1="616.01" y1="930.889" x2="941.549" y2="779.535"/>
<line fill="none" stroke="#000000" stroke-miterlimit="10" x1="58.917" y1="842.445" x2="616.01" y2="930.888"/>
<line fill="none" stroke="#000000" stroke-miterlimit="10" x1="384.456" y1="691.092" x2="58.917" y2="842.445"/>
<line fill="none" stroke="#000000" stroke-miterlimit="10" x1="384.456" y1="691.092" x2="384.456" y2="70.126"/>
<line fill="none" stroke="#000000" stroke-miterlimit="10" x1="941.549" y1="779.535" x2="384.456" y2="691.093"/>
</svg>
