<?xml version="1.0" encoding="utf-8"?>
<!-- Generator: Adobe Illustrator 16.0.0, SVG Export Plug-In . SVG Version: 6.00 Build 0)  -->
<!DOCTYPE svg PUBLIC "-//W3C//DTD SVG 1.1//EN" "http://www.w3.org/Graphics/SVG/1.1/DTD/svg11.dtd">
<svg version="1.1" id="Layer_1" xmlns="http://www.w3.org/2000/svg" xmlns:xlink="http://www.w3.org/1999/xlink" x="0px" y="0px"
	 width="1000px" height="1000px" viewBox="0 0 1000 1000" enable-background="new 0 0 1000 1000" xml:space="preserve">
<path fill="none" stroke="#000000" stroke-linecap="round" stroke-linejoin="round" d="M831.789,559.363
	c18.217-5.494,36-11.775,53.291-19.816"/>
<path fill="none" stroke="#000000" stroke-linecap="round" stroke-linejoin="round" d="M79.895,514.674
	C252,540.68,423.897,567.896,595.596,596.49"/>
<path fill="none" stroke="#000000" stroke-linecap="round" stroke-linejoin="round" d="M59.824,477.528
	c221.629,34.517,443.17,69.556,664.572,105.476"/>
<path fill="none" stroke="#000000" stroke-linecap="round" stroke-linejoin="round" d="M76.787,445.829
	c247.061,38.499,494.02,77.623,740.84,117.611"/>
<path fill="none" stroke="#000000" stroke-linecap="round" stroke-linejoin="round" d="M120.296,418.13
	c254.92,40.527,509.847,80.979,764.78,121.417"/>
<path fill="none" stroke="#000000" stroke-linecap="round" stroke-linejoin="round" d="M187.736,394.239
	c246.817,40.05,493.76,79.248,740.842,117.619"/>
<path fill="none" stroke="#000000" stroke-linecap="round" stroke-linejoin="round" d="M280.942,374.678
	c221.414,35.964,442.943,71.136,664.609,105.516"/>
<path fill="none" stroke="#000000" stroke-linecap="round" stroke-linejoin="round" d="M409.713,361.191
	c171.758,28.614,343.709,55.887,515.879,81.903"/>
<path fill="none" stroke="#000000" stroke-linecap="round" stroke-linejoin="round" d="M70.299,504.889
	c102.17-45.286,203.523-92.2,303.966-141.21"/>
<path fill="none" stroke="#000000" stroke-linecap="round" stroke-linejoin="round" d="M120.104,539.457
	c130.187-59.424,260.045-119.522,389.31-180.934"/>
<path fill="none" stroke="#000000" stroke-linecap="round" stroke-linejoin="round" d="M191.852,564.553
	c144.836-66.145,289.277-133.117,433.13-201.365"/>
<path fill="none" stroke="#000000" stroke-linecap="round" stroke-linejoin="round" d="M279.236,582.727
	c148.94-69.322,297.924-138.549,446.901-207.78"/>
<path fill="none" stroke="#000000" stroke-linecap="round" stroke-linejoin="round" d="M380.387,594.486
	c143.839-68.275,288.197-135.393,433.107-201.372"/>
<path fill="none" stroke="#000000" stroke-linecap="round" stroke-linejoin="round" d="M495.977,599.152
	c129.236-61.404,258.957-121.741,389.208-180.976"/>
<path fill="none" stroke="#000000" stroke-linecap="round" stroke-linejoin="round" d="M631.141,593.996
	c100.416-49.02,201.713-96.011,303.861-141.302"/>
<path fill="none" stroke="#000000" stroke-linecap="round" stroke-linejoin="round" d="M502.69,905.074
	c108.681,17.256,214.589-17.713,288.497-100.676c72.424-81.295,99.773-191.656,92.842-296.643
	c-7.01-106.096-48.49-209.988-115.055-292.545C703.021,133.406,609.391,69.539,502.69,52.599"/>
<path fill="none" stroke="#000000" stroke-linecap="round" stroke-linejoin="round" d="M885.08,539.547
	c22.67-10.539,69.098-35.602,59.148-70.107c-4.879-16.923-20.658-29.191-33.994-37.708c-23.301-14.881-48.193-24.046-74.242-32.132
	c-71.877-22.317-154.652-32.813-229.049-37.709c-132.284-8.704-331.52-1.934-460.364,45.404
	c-112.185,41.218-117.489,98.544-3.955,141.61c69.238,26.262,154.823,38.549,227.444,44.74
	c137.105,11.689,327.15,6.312,461.72-34.281"/>
<path fill="none" stroke="#000000" stroke-linecap="round" stroke-linejoin="round" d="M502.69,905.074
	C580.133,869.07,634.684,770.4,663.521,699.961c34.35-83.904,52.898-168.248,59.967-258.35
	c6.621-84.334,1.771-181.428-26.316-263.077c-13.814-40.162-35.365-83.251-69.857-111.426
	c-37.619-30.733-81.121-34.735-124.624-14.51"/>
<path fill="none" stroke="#000000" stroke-linecap="round" stroke-linejoin="round" d="M502.69,905.074
	c-106.717-16.939-200.367-80.828-266.323-162.652c-66.529-82.535-107.995-186.385-115.013-292.441
	c-6.949-105.004,20.396-215.388,92.831-296.699C288.092,70.313,394.008,35.345,502.69,52.599"/>
<path fill="none" stroke="#000000" stroke-linecap="round" stroke-linejoin="round" d="M502.69,905.074
	c-43.511,20.23-87.017,16.223-124.643-14.521c-34.489-28.18-56.036-71.27-69.851-111.434
	c-28.081-81.639-32.928-178.719-26.312-263.045c7.068-90.104,25.62-174.456,59.972-258.365
	c28.838-70.438,83.393-169.105,160.833-205.11"/>
<path fill="none" stroke="#000000" stroke-linecap="round" stroke-linejoin="round" d="M945.551,478.723
	c0,244.566-198.258,442.82-442.812,442.82c-244.56,0-442.816-198.254-442.816-442.82c0-244.562,198.257-442.816,442.816-442.816
	C747.293,35.907,945.551,234.162,945.551,478.723z"/>
<text transform="matrix(1 0 0 1 423.0996 177.3809)" font-family="'FlamaSemicondensed-Book'" font-size="39.0304">Glass ﬂoor</text>
<path fill="none" stroke="#000000" stroke-width="0.75" stroke-miterlimit="10" d="M236.271,369.491
	c38.199-184.247,92.236-196.455,122.303-196.634c42.152-0.25,74.759,73.564,112.597,63.99c19.465-4.925,38.305-28.36,36.303-52.299"
	/>
<polygon points="240.542,367.422 235.368,373.167 232.979,365.815 "/>
<path d="M412.849,372.892c0,5.031-4.079,9.112-9.111,9.112s-9.111-4.081-9.111-9.112c0-5.031,4.079-9.111,9.111-9.111
	S412.849,367.861,412.849,372.892"/>
<circle fill="none" stroke="#00F472" stroke-width="0.5" stroke-miterlimit="10" cx="403.738" cy="372.892" r="9.111"/>
<path d="M380.23,369.522c1.725-0.239,3.376,0.878,3.771,2.608l4.158,18.238c0.415,1.828-0.728,3.647-2.555,4.062
	c-1.826,0.416-3.647-0.726-4.064-2.554l-4.156-18.237c-0.417-1.828,0.726-3.647,2.554-4.063
	C380.036,369.554,380.133,369.536,380.23,369.522"/>
<path fill="none" stroke="#00F472" stroke-width="0.5" stroke-miterlimit="10" d="M380.23,369.522
	c1.725-0.239,3.376,0.878,3.771,2.608l4.158,18.238c0.415,1.828-0.728,3.647-2.555,4.062c-1.826,0.416-3.647-0.726-4.064-2.554
	l-4.156-18.237c-0.417-1.828,0.726-3.647,2.554-4.063C380.036,369.554,380.133,369.536,380.23,369.522z"/>
<path d="M387.2,434.995c-1.698-0.27-2.949-1.786-2.852-3.539l0.907-16.429c0.104-1.872,1.705-3.306,3.576-3.202
	c1.87,0.104,3.306,1.705,3.203,3.576l-0.909,16.43c-0.104,1.871-1.704,3.305-3.576,3.202
	C387.431,435.026,387.314,435.013,387.2,434.995"/>
<path fill="none" stroke="#00F472" stroke-width="0.5" stroke-miterlimit="10" d="M387.2,434.995
	c-1.698-0.27-2.949-1.786-2.852-3.539l0.907-16.429c0.104-1.872,1.705-3.306,3.576-3.202c1.87,0.104,3.306,1.705,3.203,3.576
	l-0.909,16.43c-0.104,1.871-1.704,3.305-3.576,3.202C387.431,435.026,387.314,435.013,387.2,434.995z"/>
<path d="M410.457,436.463c-1.719,0-3.193-1.3-3.372-3.047l-1.683-16.368c-0.193-1.865,1.164-3.532,3.029-3.724
	c1.862-0.19,3.53,1.164,3.722,3.029l1.684,16.368c0.191,1.864-1.164,3.532-3.029,3.723
	C410.691,436.458,410.573,436.463,410.457,436.463"/>
<path fill="none" stroke="#00F472" stroke-width="0.5" stroke-miterlimit="10" d="M410.457,436.463c-1.719,0-3.193-1.3-3.372-3.047
	l-1.683-16.368c-0.193-1.865,1.164-3.532,3.029-3.724c1.862-0.19,3.53,1.164,3.722,3.029l1.684,16.368
	c0.191,1.864-1.164,3.532-3.029,3.723C410.691,436.458,410.573,436.463,410.457,436.463z"/>
<path d="M415.702,399.441c0,8.299-6.726,15.026-15.025,15.026c-8.299,0-15.027-6.727-15.027-15.026s6.728-15.025,15.027-15.025
	C408.976,384.416,415.702,391.142,415.702,399.441"/>
<circle fill="none" stroke="#00F472" stroke-width="0.5" stroke-miterlimit="10" cx="400.676" cy="399.441" r="15.026"/>
<path d="M413.37,395.188c-1.557-0.781-2.284-2.638-1.628-4.288l6.914-17.379c0.692-1.742,2.667-2.591,4.409-1.899
	c1.739,0.693,2.592,2.667,1.898,4.409l-6.914,17.379c-0.693,1.742-2.667,2.592-4.409,1.899
	C413.548,395.272,413.458,395.231,413.37,395.188"/>
<path fill="none" stroke="#00F472" stroke-width="0.5" stroke-miterlimit="10" d="M413.37,395.188
	c-1.557-0.781-2.284-2.638-1.628-4.288l6.914-17.379c0.692-1.742,2.667-2.591,4.409-1.899c1.739,0.693,2.592,2.667,1.898,4.409
	l-6.914,17.379c-0.693,1.742-2.667,2.592-4.409,1.899C413.548,395.272,413.458,395.231,413.37,395.188z"/>
<path d="M465.134,382.003c0,5.032-4.079,9.112-9.112,9.112c-5.031,0-9.109-4.08-9.109-9.112s4.078-9.111,9.109-9.111
	C461.055,372.892,465.134,376.971,465.134,382.003"/>
<circle fill="none" stroke="#00F472" stroke-width="0.5" stroke-miterlimit="10" cx="456.023" cy="382.003" r="9.111"/>
<path d="M432.515,378.633c1.726-0.24,3.376,0.877,3.771,2.608l4.159,18.238c0.416,1.828-0.728,3.646-2.555,4.063
	c-1.827,0.416-3.647-0.727-4.064-2.556l-4.157-18.236c-0.417-1.828,0.727-3.646,2.555-4.063
	C432.32,378.665,432.417,378.647,432.515,378.633"/>
<path fill="none" stroke="#00F472" stroke-width="0.5" stroke-miterlimit="10" d="M432.515,378.633
	c1.726-0.24,3.376,0.877,3.771,2.608l4.159,18.238c0.416,1.828-0.728,3.646-2.555,4.063c-1.827,0.416-3.647-0.727-4.064-2.556
	l-4.157-18.236c-0.417-1.828,0.727-3.646,2.555-4.063C432.32,378.665,432.417,378.647,432.515,378.633z"/>
<path d="M439.484,444.105c-1.698-0.27-2.949-1.785-2.853-3.538l0.908-16.43c0.104-1.872,1.705-3.305,3.576-3.203
	c1.869,0.106,3.306,1.706,3.202,3.577l-0.908,16.43c-0.104,1.872-1.705,3.305-3.576,3.202
	C439.715,444.137,439.599,444.124,439.484,444.105"/>
<path fill="none" stroke="#00F472" stroke-width="0.5" stroke-miterlimit="10" d="M439.484,444.105
	c-1.698-0.27-2.949-1.785-2.853-3.538l0.908-16.43c0.104-1.872,1.705-3.305,3.576-3.203c1.869,0.106,3.306,1.706,3.202,3.577
	l-0.908,16.43c-0.104,1.872-1.705,3.305-3.576,3.202C439.715,444.137,439.599,444.124,439.484,444.105z"/>
<path d="M462.742,445.574c-1.719,0-3.194-1.3-3.373-3.046l-1.682-16.369c-0.193-1.865,1.164-3.533,3.029-3.724
	c1.861-0.189,3.531,1.165,3.724,3.029l1.683,16.368c0.191,1.865-1.165,3.531-3.029,3.724
	C462.976,445.568,462.858,445.574,462.742,445.574"/>
<path fill="none" stroke="#00F472" stroke-width="0.5" stroke-miterlimit="10" d="M462.742,445.574c-1.719,0-3.194-1.3-3.373-3.046
	l-1.682-16.369c-0.193-1.865,1.164-3.533,3.029-3.724c1.861-0.189,3.531,1.165,3.724,3.029l1.683,16.368
	c0.191,1.865-1.165,3.531-3.029,3.724C462.976,445.568,462.858,445.574,462.742,445.574z"/>
<path d="M467.986,408.552c0,8.299-6.728,15.026-15.025,15.026c-8.299,0-15.026-6.727-15.026-15.026
	c0-8.298,6.728-15.025,15.026-15.025C461.259,393.526,467.986,400.254,467.986,408.552"/>
<circle fill="none" stroke="#00F472" stroke-width="0.5" stroke-miterlimit="10" cx="452.96" cy="408.552" r="15.026"/>
<path d="M465.655,404.298c-1.558-0.781-2.284-2.637-1.628-4.287l6.913-17.38c0.693-1.742,2.667-2.591,4.409-1.898
	c1.741,0.692,2.592,2.666,1.9,4.407l-6.915,17.38c-0.692,1.742-2.666,2.592-4.408,1.9
	C465.832,404.383,465.742,404.343,465.655,404.298"/>
<path fill="none" stroke="#00F472" stroke-width="0.5" stroke-miterlimit="10" d="M465.655,404.298
	c-1.558-0.781-2.284-2.637-1.628-4.287l6.913-17.38c0.693-1.742,2.667-2.591,4.409-1.898c1.741,0.692,2.592,2.666,1.9,4.407
	l-6.915,17.38c-0.692,1.742-2.666,2.592-4.408,1.9C465.832,404.383,465.742,404.343,465.655,404.298z"/>
<path d="M560.947,387.173c0,5.032-4.078,9.111-9.111,9.111c-5.031,0-9.111-4.08-9.111-9.111s4.08-9.111,9.111-9.111
	C556.869,378.062,560.947,382.141,560.947,387.173"/>
<circle fill="none" stroke="#00F472" stroke-width="0.5" stroke-miterlimit="10" cx="551.836" cy="387.173" r="9.111"/>
<path d="M528.328,383.803c1.725-0.24,3.377,0.877,3.771,2.608l4.158,18.238c0.416,1.828-0.729,3.646-2.555,4.062
	c-1.827,0.417-3.648-0.726-4.064-2.555l-4.157-18.237c-0.417-1.827,0.728-3.647,2.554-4.062
	C528.134,383.833,528.23,383.816,528.328,383.803"/>
<path fill="none" stroke="#00F472" stroke-width="0.5" stroke-miterlimit="10" d="M528.328,383.803
	c1.725-0.24,3.377,0.877,3.771,2.608l4.158,18.238c0.416,1.828-0.729,3.646-2.555,4.062c-1.827,0.417-3.648-0.726-4.064-2.555
	l-4.157-18.237c-0.417-1.827,0.728-3.647,2.554-4.062C528.134,383.833,528.23,383.816,528.328,383.803z"/>
<path d="M535.299,449.275c-1.699-0.271-2.951-1.786-2.854-3.539l0.908-16.429c0.103-1.872,1.705-3.306,3.576-3.202
	c1.869,0.105,3.305,1.706,3.201,3.577l-0.908,16.428c-0.104,1.872-1.705,3.306-3.576,3.202
	C535.527,449.306,535.412,449.293,535.299,449.275"/>
<path fill="none" stroke="#00F472" stroke-width="0.5" stroke-miterlimit="10" d="M535.299,449.275
	c-1.699-0.271-2.951-1.786-2.854-3.539l0.908-16.429c0.103-1.872,1.705-3.306,3.576-3.202c1.869,0.105,3.305,1.706,3.201,3.577
	l-0.908,16.428c-0.104,1.872-1.705,3.306-3.576,3.202C535.527,449.306,535.412,449.293,535.299,449.275z"/>
<path d="M558.557,450.744c-1.721,0-3.195-1.301-3.375-3.047l-1.682-16.368c-0.191-1.865,1.164-3.532,3.029-3.723
	c1.861-0.19,3.531,1.164,3.723,3.029l1.684,16.368c0.191,1.863-1.164,3.531-3.029,3.724
	C558.789,450.738,558.672,450.744,558.557,450.744"/>
<path fill="none" stroke="#00F472" stroke-width="0.5" stroke-miterlimit="10" d="M558.557,450.744
	c-1.721,0-3.195-1.301-3.375-3.047l-1.682-16.368c-0.191-1.865,1.164-3.532,3.029-3.723c1.861-0.19,3.531,1.164,3.723,3.029
	l1.684,16.368c0.191,1.863-1.164,3.531-3.029,3.724C558.789,450.738,558.672,450.744,558.557,450.744z"/>
<path d="M563.801,413.721c0,8.299-6.729,15.026-15.027,15.026s-15.025-6.727-15.025-15.026c0-8.299,6.727-15.025,15.025-15.025
	S563.801,405.422,563.801,413.721"/>
<circle fill="none" stroke="#00F472" stroke-width="0.5" stroke-miterlimit="10" cx="548.774" cy="413.721" r="15.026"/>
<path d="M561.467,409.468c-1.557-0.782-2.283-2.638-1.627-4.288l6.914-17.38c0.693-1.742,2.666-2.591,4.408-1.899
	c1.74,0.693,2.592,2.667,1.898,4.409l-6.914,17.379c-0.691,1.742-2.666,2.592-4.408,1.9
	C561.646,409.552,561.555,409.512,561.467,409.468"/>
<path fill="none" stroke="#00F472" stroke-width="0.5" stroke-miterlimit="10" d="M561.467,409.468
	c-1.557-0.782-2.283-2.638-1.627-4.288l6.914-17.38c0.693-1.742,2.666-2.591,4.408-1.899c1.74,0.693,2.592,2.667,1.898,4.409
	l-6.914,17.379c-0.691,1.742-2.666,2.592-4.408,1.9C561.646,409.552,561.555,409.512,561.467,409.468z"/>
<path d="M513.041,381.322c0,5.031-4.08,9.11-9.111,9.11c-5.033,0-9.112-4.08-9.112-9.11c0-5.032,4.079-9.111,9.112-9.111
	C508.961,372.211,513.041,376.291,513.041,381.322"/>
<circle fill="none" stroke="#00F472" stroke-width="0.5" stroke-miterlimit="10" cx="503.929" cy="381.322" r="9.112"/>
<path d="M480.422,377.952c1.725-0.239,3.376,0.878,3.771,2.608l4.158,18.238c0.417,1.827-0.727,3.646-2.554,4.063
	c-1.826,0.415-3.647-0.727-4.064-2.556l-4.157-18.237c-0.417-1.827,0.726-3.646,2.554-4.063
	C480.227,377.983,480.324,377.966,480.422,377.952"/>
<path fill="none" stroke="#00F472" stroke-width="0.5" stroke-miterlimit="10" d="M480.422,377.952
	c1.725-0.239,3.376,0.878,3.771,2.608l4.158,18.238c0.417,1.827-0.727,3.646-2.554,4.063c-1.826,0.415-3.647-0.727-4.064-2.556
	l-4.157-18.237c-0.417-1.827,0.726-3.646,2.554-4.063C480.227,377.983,480.324,377.966,480.422,377.952z"/>
<path d="M487.391,443.424c-1.697-0.271-2.948-1.786-2.852-3.539l0.907-16.429c0.104-1.872,1.705-3.306,3.577-3.202
	c1.868,0.105,3.305,1.705,3.201,3.576l-0.908,16.429c-0.103,1.872-1.703,3.305-3.576,3.201
	C487.623,443.455,487.505,443.443,487.391,443.424"/>
<path fill="none" stroke="#00F472" stroke-width="0.5" stroke-miterlimit="10" d="M487.391,443.424
	c-1.697-0.271-2.948-1.786-2.852-3.539l0.907-16.429c0.104-1.872,1.705-3.306,3.577-3.202c1.868,0.105,3.305,1.705,3.201,3.576
	l-0.908,16.429c-0.103,1.872-1.703,3.305-3.576,3.201C487.623,443.455,487.505,443.443,487.391,443.424z"/>
<path d="M510.648,444.893c-1.719,0-3.192-1.301-3.373-3.048l-1.683-16.368c-0.192-1.864,1.165-3.531,3.03-3.722
	c1.861-0.19,3.531,1.163,3.723,3.028l1.684,16.369c0.191,1.864-1.166,3.531-3.029,3.722
	C510.882,444.887,510.764,444.893,510.648,444.893"/>
<path fill="none" stroke="#00F472" stroke-width="0.5" stroke-miterlimit="10" d="M510.648,444.893
	c-1.719,0-3.192-1.301-3.373-3.048l-1.683-16.368c-0.192-1.864,1.165-3.531,3.03-3.722c1.861-0.19,3.531,1.163,3.723,3.028
	l1.684,16.369c0.191,1.864-1.166,3.531-3.029,3.722C510.882,444.887,510.764,444.893,510.648,444.893z"/>
<path d="M515.893,407.871c0,8.299-6.727,15.025-15.024,15.025c-8.299,0-15.027-6.727-15.027-15.025
	c0-8.298,6.728-15.025,15.027-15.025C509.166,392.845,515.893,399.572,515.893,407.871"/>
<circle fill="none" stroke="#00F472" stroke-width="0.5" stroke-miterlimit="10" cx="500.867" cy="407.871" r="15.026"/>
<path d="M513.562,403.617c-1.559-0.781-2.285-2.638-1.629-4.288l6.914-17.379c0.691-1.742,2.666-2.591,4.408-1.899
	c1.74,0.693,2.592,2.667,1.898,4.408l-6.914,17.379c-0.693,1.742-2.667,2.593-4.408,1.9
	C513.739,403.702,513.649,403.661,513.562,403.617"/>
<path fill="none" stroke="#00F472" stroke-width="0.5" stroke-miterlimit="10" d="M513.562,403.617
	c-1.559-0.781-2.285-2.638-1.629-4.288l6.914-17.379c0.691-1.742,2.666-2.591,4.408-1.899c1.74,0.693,2.592,2.667,1.898,4.408
	l-6.914,17.379c-0.693,1.742-2.667,2.593-4.408,1.9C513.739,403.702,513.649,403.661,513.562,403.617z"/>
<path d="M607.906,389.534c0,5.031-4.08,9.111-9.111,9.111s-9.109-4.08-9.109-9.111c0-5.033,4.078-9.112,9.109-9.112
	S607.906,384.501,607.906,389.534"/>
<circle fill="none" stroke="#00F472" stroke-width="0.5" stroke-miterlimit="10" cx="598.796" cy="389.534" r="9.11"/>
<path d="M575.285,386.163c1.725-0.24,3.377,0.877,3.771,2.608l4.158,18.238c0.418,1.828-0.727,3.646-2.555,4.063
	c-1.826,0.416-3.648-0.726-4.064-2.555l-4.158-18.237c-0.416-1.827,0.727-3.646,2.555-4.063
	C575.09,386.194,575.188,386.177,575.285,386.163"/>
<path fill="none" stroke="#00F472" stroke-width="0.5" stroke-miterlimit="10" d="M575.285,386.163
	c1.725-0.24,3.377,0.877,3.771,2.608l4.158,18.238c0.418,1.828-0.727,3.646-2.555,4.063c-1.826,0.416-3.648-0.726-4.064-2.555
	l-4.158-18.237c-0.416-1.827,0.727-3.646,2.555-4.063C575.09,386.194,575.188,386.177,575.285,386.163z"/>
<path d="M582.254,451.635c-1.697-0.27-2.949-1.786-2.852-3.539l0.906-16.429c0.105-1.873,1.707-3.305,3.58-3.203
	c1.869,0.106,3.305,1.706,3.201,3.578l-0.908,16.428c-0.104,1.872-1.703,3.306-3.578,3.202
	C582.486,451.667,582.369,451.654,582.254,451.635"/>
<path fill="none" stroke="#00F472" stroke-width="0.5" stroke-miterlimit="10" d="M582.254,451.635
	c-1.697-0.27-2.949-1.786-2.852-3.539l0.906-16.429c0.105-1.873,1.707-3.305,3.58-3.203c1.869,0.106,3.305,1.706,3.201,3.578
	l-0.908,16.428c-0.104,1.872-1.703,3.306-3.578,3.202C582.486,451.667,582.369,451.654,582.254,451.635z"/>
<path d="M605.514,453.104c-1.719,0-3.193-1.301-3.373-3.047l-1.682-16.368c-0.191-1.865,1.164-3.532,3.029-3.724
	c1.861-0.19,3.529,1.165,3.721,3.028l1.684,16.369c0.189,1.864-1.164,3.532-3.027,3.724
	C605.746,453.097,605.629,453.104,605.514,453.104"/>
<path fill="none" stroke="#00F472" stroke-width="0.5" stroke-miterlimit="10" d="M605.514,453.104
	c-1.719,0-3.193-1.301-3.373-3.047l-1.682-16.368c-0.191-1.865,1.164-3.532,3.029-3.724c1.861-0.19,3.529,1.165,3.721,3.028
	l1.684,16.369c0.189,1.864-1.164,3.532-3.027,3.724C605.746,453.097,605.629,453.104,605.514,453.104z"/>
<path d="M610.756,416.082c0,8.298-6.725,15.025-15.021,15.025c-8.299,0-15.029-6.727-15.029-15.025
	c0-8.299,6.73-15.026,15.029-15.026C604.031,401.056,610.756,407.783,610.756,416.082"/>
<path fill="none" stroke="#00F472" stroke-width="0.5" stroke-miterlimit="10" d="M610.756,416.082
	c0,8.298-6.725,15.025-15.021,15.025c-8.299,0-15.029-6.727-15.029-15.025c0-8.299,6.73-15.026,15.029-15.026
	C604.031,401.056,610.756,407.783,610.756,416.082z"/>
<path d="M608.426,411.828c-1.559-0.781-2.283-2.637-1.627-4.287l6.908-17.38c0.693-1.741,2.666-2.591,4.408-1.898
	c1.738,0.692,2.592,2.666,1.896,4.408l-6.91,17.38c-0.691,1.741-2.666,2.592-4.404,1.899
	C608.604,411.912,608.512,411.872,608.426,411.828"/>
<path fill="none" stroke="#00F472" stroke-width="0.5" stroke-miterlimit="10" d="M608.426,411.828
	c-1.559-0.781-2.283-2.637-1.627-4.287l6.908-17.38c0.693-1.741,2.666-2.591,4.408-1.898c1.738,0.692,2.592,2.666,1.896,4.408
	l-6.91,17.38c-0.691,1.741-2.666,2.592-4.404,1.899C608.604,411.912,608.512,411.872,608.426,411.828z"/>
<path d="M423.099,396.614c0,5.032-4.081,9.112-9.112,9.112s-9.11-4.08-9.11-9.112s4.079-9.111,9.11-9.111
	S423.099,391.583,423.099,396.614"/>
<circle fill="none" stroke="#00F472" stroke-width="0.5" stroke-miterlimit="10" cx="413.988" cy="396.614" r="9.111"/>
<path d="M390.479,393.245c1.726-0.24,3.376,0.877,3.771,2.608l4.158,18.237c0.417,1.828-0.728,3.646-2.554,4.063
	c-1.827,0.416-3.647-0.727-4.064-2.555l-4.157-18.237c-0.417-1.827,0.727-3.646,2.554-4.064
	C390.285,393.276,390.382,393.258,390.479,393.245"/>
<path fill="none" stroke="#00F472" stroke-width="0.5" stroke-miterlimit="10" d="M390.479,393.245
	c1.726-0.24,3.376,0.877,3.771,2.608l4.158,18.237c0.417,1.828-0.728,3.646-2.554,4.063c-1.827,0.416-3.647-0.727-4.064-2.555
	l-4.157-18.237c-0.417-1.827,0.727-3.646,2.554-4.064C390.285,393.276,390.382,393.258,390.479,393.245z"/>
<path d="M397.449,458.716c-1.698-0.27-2.949-1.786-2.852-3.539l0.907-16.429c0.104-1.872,1.705-3.306,3.577-3.203
	c1.869,0.105,3.305,1.706,3.202,3.578l-0.908,16.429c-0.104,1.871-1.705,3.305-3.577,3.202
	C397.68,458.747,397.563,458.735,397.449,458.716"/>
<path fill="none" stroke="#00F472" stroke-width="0.5" stroke-miterlimit="10" d="M397.449,458.716
	c-1.698-0.27-2.949-1.786-2.852-3.539l0.907-16.429c0.104-1.872,1.705-3.306,3.577-3.203c1.869,0.105,3.305,1.706,3.202,3.578
	l-0.908,16.429c-0.104,1.871-1.705,3.305-3.577,3.202C397.68,458.747,397.563,458.735,397.449,458.716z"/>
<path d="M420.707,460.185c-1.719,0-3.193-1.301-3.373-3.047l-1.683-16.368c-0.191-1.865,1.165-3.532,3.029-3.723
	c1.862-0.19,3.531,1.164,3.724,3.029l1.682,16.368c0.192,1.864-1.163,3.531-3.028,3.724
	C420.941,460.179,420.822,460.185,420.707,460.185"/>
<path fill="none" stroke="#00F472" stroke-width="0.5" stroke-miterlimit="10" d="M420.707,460.185
	c-1.719,0-3.193-1.301-3.373-3.047l-1.683-16.368c-0.191-1.865,1.165-3.532,3.029-3.723c1.862-0.19,3.531,1.164,3.724,3.029
	l1.682,16.368c0.192,1.864-1.163,3.531-3.028,3.724C420.941,460.179,420.822,460.185,420.707,460.185z"/>
<path d="M425.951,423.163c0,8.298-6.728,15.025-15.026,15.025c-8.299,0-15.025-6.727-15.025-15.025
	c0-8.299,6.727-15.026,15.025-15.026C419.224,408.137,425.951,414.864,425.951,423.163"/>
<circle fill="none" stroke="#00F472" stroke-width="0.5" stroke-miterlimit="10" cx="410.926" cy="423.163" r="15.026"/>
<path d="M423.619,418.909c-1.557-0.781-2.283-2.638-1.628-4.287l6.914-17.38c0.693-1.742,2.667-2.592,4.409-1.899
	c1.74,0.692,2.592,2.667,1.899,4.408l-6.915,17.38c-0.692,1.741-2.667,2.592-4.408,1.899
	C423.797,418.994,423.707,418.954,423.619,418.909"/>
<path fill="none" stroke="#00F472" stroke-width="0.5" stroke-miterlimit="10" d="M423.619,418.909
	c-1.557-0.781-2.283-2.638-1.628-4.287l6.914-17.38c0.693-1.742,2.667-2.592,4.409-1.899c1.74,0.692,2.592,2.667,1.899,4.408
	l-6.915,17.38c-0.692,1.741-2.667,2.592-4.408,1.899C423.797,418.994,423.707,418.954,423.619,418.909z"/>
<path d="M479.585,409.233c0,5.032-4.08,9.111-9.112,9.111c-5.032,0-9.11-4.079-9.11-9.111c0-5.031,4.078-9.111,9.11-9.111
	C475.505,400.122,479.585,404.202,479.585,409.233"/>
<circle fill="none" stroke="#00F472" stroke-width="0.5" stroke-miterlimit="10" cx="470.474" cy="409.233" r="9.111"/>
<path d="M446.966,405.863c1.725-0.239,3.376,0.878,3.771,2.608l4.158,18.238c0.416,1.827-0.727,3.646-2.554,4.062
	c-1.826,0.416-3.648-0.727-4.064-2.555l-4.157-18.237c-0.417-1.828,0.727-3.646,2.554-4.063
	C446.771,405.894,446.869,405.877,446.966,405.863"/>
<path fill="none" stroke="#00F472" stroke-width="0.5" stroke-miterlimit="10" d="M446.966,405.863
	c1.725-0.239,3.376,0.878,3.771,2.608l4.158,18.238c0.416,1.827-0.727,3.646-2.554,4.062c-1.826,0.416-3.648-0.727-4.064-2.555
	l-4.157-18.237c-0.417-1.828,0.727-3.646,2.554-4.063C446.771,405.894,446.869,405.877,446.966,405.863z"/>
<path d="M453.935,471.335c-1.696-0.27-2.949-1.786-2.851-3.539l0.907-16.429c0.104-1.872,1.705-3.306,3.576-3.202
	c1.869,0.105,3.306,1.705,3.202,3.576l-0.908,16.429c-0.104,1.872-1.704,3.306-3.576,3.202
	C454.167,471.367,454.05,471.354,453.935,471.335"/>
<path fill="none" stroke="#00F472" stroke-width="0.5" stroke-miterlimit="10" d="M453.935,471.335
	c-1.696-0.27-2.949-1.786-2.851-3.539l0.907-16.429c0.104-1.872,1.705-3.306,3.576-3.202c1.869,0.105,3.306,1.705,3.202,3.576
	l-0.908,16.429c-0.104,1.872-1.704,3.306-3.576,3.202C454.167,471.367,454.05,471.354,453.935,471.335z"/>
<path d="M477.193,472.804c-1.719,0-3.193-1.301-3.374-3.047l-1.682-16.368c-0.192-1.864,1.165-3.531,3.029-3.724
	c1.862-0.189,3.531,1.164,3.723,3.028l1.685,16.368c0.191,1.865-1.166,3.532-3.03,3.724
	C477.426,472.798,477.309,472.804,477.193,472.804"/>
<path fill="none" stroke="#00F472" stroke-width="0.5" stroke-miterlimit="10" d="M477.193,472.804
	c-1.719,0-3.193-1.301-3.374-3.047l-1.682-16.368c-0.192-1.864,1.165-3.531,3.029-3.724c1.862-0.189,3.531,1.164,3.723,3.028
	l1.685,16.368c0.191,1.865-1.166,3.532-3.03,3.724C477.426,472.798,477.309,472.804,477.193,472.804z"/>
<path d="M482.438,435.781c0,8.299-6.727,15.026-15.025,15.026c-8.299,0-15.027-6.727-15.027-15.026
	c0-8.298,6.728-15.025,15.027-15.025C475.71,420.756,482.438,427.483,482.438,435.781"/>
<circle fill="none" stroke="#00F472" stroke-width="0.5" stroke-miterlimit="10" cx="467.411" cy="435.781" r="15.026"/>
<path d="M480.106,431.528c-1.559-0.781-2.285-2.637-1.629-4.287l6.913-17.38c0.693-1.742,2.667-2.591,4.409-1.898
	c1.74,0.692,2.592,2.667,1.899,4.408l-6.915,17.38c-0.692,1.741-2.667,2.592-4.408,1.899
	C480.284,431.613,480.194,431.572,480.106,431.528"/>
<path fill="none" stroke="#00F472" stroke-width="0.5" stroke-miterlimit="10" d="M480.106,431.528
	c-1.559-0.781-2.285-2.637-1.629-4.287l6.913-17.38c0.693-1.742,2.667-2.591,4.409-1.898c1.74,0.692,2.592,2.667,1.899,4.408
	l-6.915,17.38c-0.692,1.741-2.667,2.592-4.408,1.899C480.284,431.613,480.194,431.572,480.106,431.528z"/>
<path d="M530.142,410.959c0,5.031-4.079,9.111-9.111,9.111c-5.031,0-9.11-4.08-9.11-9.111c0-5.032,4.079-9.112,9.11-9.112
	C526.062,401.847,530.142,405.928,530.142,410.959"/>
<circle fill="none" stroke="#00F472" stroke-width="0.5" stroke-miterlimit="10" cx="521.031" cy="410.959" r="9.111"/>
<path d="M497.522,407.589c1.726-0.24,3.376,0.878,3.772,2.607l4.158,18.238c0.416,1.828-0.729,3.647-2.556,4.063
	c-1.827,0.415-3.647-0.727-4.064-2.555l-4.157-18.237c-0.417-1.827,0.727-3.646,2.555-4.062
	C497.328,407.62,497.425,407.602,497.522,407.589"/>
<path fill="none" stroke="#00F472" stroke-width="0.5" stroke-miterlimit="10" d="M497.522,407.589
	c1.726-0.24,3.376,0.878,3.772,2.607l4.158,18.238c0.416,1.828-0.729,3.647-2.556,4.063c-1.827,0.415-3.647-0.727-4.064-2.555
	l-4.157-18.237c-0.417-1.827,0.727-3.646,2.555-4.062C497.328,407.62,497.425,407.602,497.522,407.589z"/>
<path d="M504.492,473.061c-1.697-0.27-2.949-1.786-2.852-3.539l0.907-16.43c0.104-1.871,1.704-3.305,3.575-3.201
	c1.869,0.105,3.307,1.705,3.203,3.577l-0.908,16.428c-0.104,1.872-1.705,3.306-3.576,3.202
	C504.723,473.092,504.605,473.08,504.492,473.061"/>
<path fill="none" stroke="#00F472" stroke-width="0.5" stroke-miterlimit="10" d="M504.492,473.061
	c-1.697-0.27-2.949-1.786-2.852-3.539l0.907-16.43c0.104-1.871,1.704-3.305,3.575-3.201c1.869,0.105,3.307,1.705,3.203,3.577
	l-0.908,16.428c-0.104,1.872-1.705,3.306-3.576,3.202C504.723,473.092,504.605,473.08,504.492,473.061z"/>
<path d="M527.75,474.53c-1.719,0-3.193-1.3-3.373-3.048l-1.682-16.368c-0.193-1.863,1.164-3.531,3.028-3.722
	c1.862-0.19,3.53,1.163,3.724,3.027l1.684,16.368c0.19,1.865-1.165,3.531-3.029,3.725C527.984,474.524,527.865,474.53,527.75,474.53
	"/>
<path fill="none" stroke="#00F472" stroke-width="0.5" stroke-miterlimit="10" d="M527.75,474.53c-1.719,0-3.193-1.3-3.373-3.048
	l-1.682-16.368c-0.193-1.863,1.164-3.531,3.028-3.722c1.862-0.19,3.53,1.163,3.724,3.027l1.684,16.368
	c0.19,1.865-1.165,3.531-3.029,3.725C527.984,474.524,527.865,474.53,527.75,474.53z"/>
<path d="M532.994,437.507c0,8.299-6.728,15.025-15.025,15.025c-8.299,0-15.025-6.727-15.025-15.025s6.727-15.025,15.025-15.025
	C526.267,422.482,532.994,429.208,532.994,437.507"/>
<circle fill="none" stroke="#00F472" stroke-width="0.5" stroke-miterlimit="10" cx="517.969" cy="437.507" r="15.025"/>
<path d="M530.662,433.254c-1.557-0.782-2.283-2.637-1.628-4.287l6.915-17.38c0.691-1.742,2.666-2.591,4.408-1.899
	c1.74,0.693,2.592,2.667,1.898,4.408l-6.914,17.38c-0.693,1.742-2.666,2.593-4.408,1.901
	C530.84,433.339,530.75,433.298,530.662,433.254"/>
<path fill="none" stroke="#00F472" stroke-width="0.5" stroke-miterlimit="10" d="M530.662,433.254
	c-1.557-0.782-2.283-2.637-1.628-4.287l6.915-17.38c0.691-1.742,2.666-2.591,4.408-1.899c1.74,0.693,2.592,2.667,1.898,4.408
	l-6.914,17.38c-0.693,1.742-2.666,2.593-4.408,1.901C530.84,433.339,530.75,433.298,530.662,433.254z"/>
<path d="M583.377,416.236c0,5.032-4.08,9.112-9.113,9.112c-5.031,0-9.111-4.08-9.111-9.112c0-5.031,4.08-9.11,9.111-9.11
	C579.297,407.126,583.377,411.205,583.377,416.236"/>
<circle fill="none" stroke="#00F472" stroke-width="0.5" stroke-miterlimit="10" cx="574.265" cy="416.236" r="9.112"/>
<path d="M550.756,412.867c1.727-0.24,3.377,0.877,3.773,2.608l4.156,18.238c0.416,1.828-0.727,3.646-2.555,4.062
	c-1.826,0.417-3.646-0.726-4.064-2.554l-4.156-18.237c-0.418-1.828,0.727-3.646,2.555-4.063
	C550.562,412.898,550.658,412.88,550.756,412.867"/>
<path fill="none" stroke="#00F472" stroke-width="0.5" stroke-miterlimit="10" d="M550.756,412.867
	c1.727-0.24,3.377,0.877,3.773,2.608l4.156,18.238c0.416,1.828-0.727,3.646-2.555,4.062c-1.826,0.417-3.646-0.726-4.064-2.554
	l-4.156-18.237c-0.418-1.828,0.727-3.646,2.555-4.063C550.562,412.898,550.658,412.88,550.756,412.867z"/>
<path d="M557.727,478.339c-1.699-0.271-2.949-1.786-2.854-3.539l0.908-16.43c0.104-1.872,1.705-3.306,3.576-3.202
	c1.869,0.105,3.307,1.706,3.203,3.577l-0.908,16.429c-0.105,1.872-1.705,3.305-3.578,3.202
	C557.957,478.37,557.84,478.357,557.727,478.339"/>
<path fill="none" stroke="#00F472" stroke-width="0.5" stroke-miterlimit="10" d="M557.727,478.339
	c-1.699-0.271-2.949-1.786-2.854-3.539l0.908-16.43c0.104-1.872,1.705-3.306,3.576-3.202c1.869,0.105,3.307,1.706,3.203,3.577
	l-0.908,16.429c-0.105,1.872-1.705,3.305-3.578,3.202C557.957,478.37,557.84,478.357,557.727,478.339z"/>
<path d="M580.984,479.808c-1.719,0-3.193-1.301-3.373-3.048l-1.684-16.368c-0.191-1.864,1.164-3.532,3.029-3.723
	c1.863-0.19,3.531,1.164,3.725,3.028l1.684,16.368c0.193,1.864-1.164,3.532-3.029,3.724
	C581.217,479.801,581.1,479.808,580.984,479.808"/>
<path fill="none" stroke="#00F472" stroke-width="0.5" stroke-miterlimit="10" d="M580.984,479.808
	c-1.719,0-3.193-1.301-3.373-3.048l-1.684-16.368c-0.191-1.864,1.164-3.532,3.029-3.723c1.863-0.19,3.531,1.164,3.725,3.028
	l1.684,16.368c0.193,1.864-1.164,3.532-3.029,3.724C581.217,479.801,581.1,479.808,580.984,479.808z"/>
<path d="M586.23,442.786c0,8.298-6.73,15.025-15.027,15.025c-8.299,0-15.027-6.728-15.027-15.025
	c0-8.298,6.729-15.025,15.027-15.025C579.5,427.76,586.23,434.487,586.23,442.786"/>
<circle fill="none" stroke="#00F472" stroke-width="0.5" stroke-miterlimit="10" cx="571.203" cy="442.786" r="15.027"/>
<path d="M583.898,438.532c-1.561-0.781-2.285-2.638-1.629-4.288l6.916-17.38c0.691-1.741,2.666-2.592,4.406-1.899
	c1.742,0.693,2.594,2.667,1.9,4.409l-6.914,17.379c-0.693,1.742-2.666,2.593-4.41,1.9
	C584.076,438.616,583.986,438.576,583.898,438.532"/>
<path fill="none" stroke="#00F472" stroke-width="0.5" stroke-miterlimit="10" d="M583.898,438.532
	c-1.561-0.781-2.285-2.638-1.629-4.288l6.916-17.38c0.691-1.741,2.666-2.592,4.406-1.899c1.742,0.693,2.594,2.667,1.9,4.409
	l-6.914,17.379c-0.693,1.742-2.666,2.593-4.41,1.9C584.076,438.616,583.986,438.576,583.898,438.532z"/>
<path d="M399.146,415.325c0,5.032-4.08,9.111-9.112,9.111c-5.031,0-9.111-4.079-9.111-9.111s4.08-9.111,9.111-9.111
	C395.065,406.213,399.146,410.293,399.146,415.325"/>
<circle fill="none" stroke="#00F472" stroke-width="0.5" stroke-miterlimit="10" cx="390.034" cy="415.325" r="9.111"/>
<path d="M366.526,411.955c1.726-0.24,3.377,0.877,3.771,2.607l4.159,18.238c0.417,1.828-0.728,3.646-2.555,4.063
	c-1.827,0.416-3.647-0.727-4.064-2.555l-4.158-18.237c-0.417-1.827,0.727-3.646,2.554-4.063
	C366.332,411.986,366.429,411.969,366.526,411.955"/>
<path fill="none" stroke="#00F472" stroke-width="0.5" stroke-miterlimit="10" d="M366.526,411.955
	c1.726-0.24,3.377,0.877,3.771,2.607l4.159,18.238c0.417,1.828-0.728,3.646-2.555,4.063c-1.827,0.416-3.647-0.727-4.064-2.555
	l-4.158-18.237c-0.417-1.827,0.727-3.646,2.554-4.063C366.332,411.986,366.429,411.969,366.526,411.955z"/>
<path d="M373.495,477.426c-1.697-0.27-2.949-1.785-2.852-3.538l0.908-16.43c0.103-1.872,1.704-3.306,3.576-3.202
	c1.869,0.105,3.304,1.706,3.202,3.577l-0.909,16.429c-0.103,1.871-1.705,3.305-3.576,3.201
	C373.727,477.458,373.61,477.446,373.495,477.426"/>
<path fill="none" stroke="#00F472" stroke-width="0.5" stroke-miterlimit="10" d="M373.495,477.426
	c-1.697-0.27-2.949-1.785-2.852-3.538l0.908-16.43c0.103-1.872,1.704-3.306,3.576-3.202c1.869,0.105,3.304,1.706,3.202,3.577
	l-0.909,16.429c-0.103,1.871-1.705,3.305-3.576,3.201C373.727,477.458,373.61,477.446,373.495,477.426z"/>
<path d="M396.753,478.895c-1.719,0-3.192-1.3-3.373-3.046l-1.683-16.369c-0.192-1.864,1.164-3.531,3.029-3.723
	c1.862-0.19,3.531,1.164,3.724,3.028l1.682,16.368c0.193,1.865-1.164,3.532-3.028,3.725
	C396.986,478.889,396.869,478.895,396.753,478.895"/>
<path fill="none" stroke="#00F472" stroke-width="0.5" stroke-miterlimit="10" d="M396.753,478.895c-1.719,0-3.192-1.3-3.373-3.046
	l-1.683-16.369c-0.192-1.864,1.164-3.531,3.029-3.723c1.862-0.19,3.531,1.164,3.724,3.028l1.682,16.368
	c0.193,1.865-1.164,3.532-3.028,3.725C396.986,478.889,396.869,478.895,396.753,478.895z"/>
<path d="M401.999,441.874c0,8.299-6.729,15.025-15.026,15.025c-8.298,0-15.026-6.727-15.026-15.025s6.728-15.026,15.026-15.026
	C395.27,426.848,401.999,433.575,401.999,441.874"/>
<circle fill="none" stroke="#00F472" stroke-width="0.5" stroke-miterlimit="10" cx="386.972" cy="441.874" r="15.026"/>
<path d="M399.666,437.62c-1.558-0.782-2.284-2.638-1.627-4.288l6.913-17.38c0.692-1.742,2.667-2.591,4.409-1.899
	c1.74,0.693,2.592,2.667,1.898,4.409l-6.914,17.379c-0.693,1.742-2.667,2.593-4.408,1.9
	C399.844,437.705,399.754,437.664,399.666,437.62"/>
<path fill="none" stroke="#00F472" stroke-width="0.5" stroke-miterlimit="10" d="M399.666,437.62
	c-1.558-0.782-2.284-2.638-1.627-4.288l6.913-17.38c0.692-1.742,2.667-2.591,4.409-1.899c1.74,0.693,2.592,2.667,1.898,4.409
	l-6.914,17.379c-0.693,1.742-2.667,2.593-4.408,1.9C399.844,437.705,399.754,437.664,399.666,437.62z"/>
<path d="M446.654,424.443c0,5.032-4.079,9.111-9.111,9.111c-5.031,0-9.111-4.08-9.111-9.111s4.08-9.11,9.111-9.11
	C442.575,415.333,446.654,419.411,446.654,424.443"/>
<circle fill="none" stroke="#00F472" stroke-width="0.5" stroke-miterlimit="10" cx="437.543" cy="424.443" r="9.111"/>
<path d="M414.035,421.073c1.727-0.241,3.376,0.877,3.772,2.608l4.158,18.238c0.417,1.826-0.728,3.646-2.555,4.062
	c-1.826,0.416-3.646-0.726-4.064-2.554l-4.157-18.237c-0.417-1.828,0.727-3.647,2.554-4.064
	C413.841,421.104,413.938,421.086,414.035,421.073"/>
<path fill="none" stroke="#00F472" stroke-width="0.5" stroke-miterlimit="10" d="M414.035,421.073
	c1.727-0.241,3.376,0.877,3.772,2.608l4.158,18.238c0.417,1.826-0.728,3.646-2.555,4.062c-1.826,0.416-3.646-0.726-4.064-2.554
	l-4.157-18.237c-0.417-1.828,0.727-3.647,2.554-4.064C413.841,421.104,413.938,421.086,414.035,421.073z"/>
<path d="M421.004,486.548c-1.697-0.271-2.949-1.788-2.852-3.541l0.907-16.43c0.104-1.872,1.706-3.307,3.577-3.203
	c1.869,0.105,3.305,1.706,3.202,3.577l-0.908,16.43c-0.104,1.875-1.705,3.308-3.577,3.205
	C421.236,486.579,421.119,486.567,421.004,486.548"/>
<path fill="none" stroke="#00F472" stroke-width="0.5" stroke-miterlimit="10" d="M421.004,486.548
	c-1.697-0.271-2.949-1.788-2.852-3.541l0.907-16.43c0.104-1.872,1.706-3.307,3.577-3.203c1.869,0.105,3.305,1.706,3.202,3.577
	l-0.908,16.43c-0.104,1.875-1.705,3.308-3.577,3.205C421.236,486.579,421.119,486.567,421.004,486.548z"/>
<path d="M444.262,488.017c-1.718,0-3.192-1.3-3.373-3.048l-1.682-16.371c-0.192-1.864,1.164-3.531,3.029-3.723
	c1.862-0.189,3.531,1.164,3.723,3.029l1.683,16.37c0.191,1.864-1.163,3.532-3.029,3.725
	C444.497,488.011,444.378,488.017,444.262,488.017"/>
<path fill="none" stroke="#00F472" stroke-width="0.5" stroke-miterlimit="10" d="M444.262,488.017c-1.718,0-3.192-1.3-3.373-3.048
	l-1.682-16.371c-0.192-1.864,1.164-3.531,3.029-3.723c1.862-0.189,3.531,1.164,3.723,3.029l1.683,16.37
	c0.191,1.864-1.163,3.532-3.029,3.725C444.497,488.011,444.378,488.017,444.262,488.017z"/>
<path d="M449.506,450.992c0,8.299-6.728,15.025-15.025,15.025c-8.299,0-15.027-6.727-15.027-15.025s6.728-15.026,15.027-15.026
	C442.779,435.966,449.506,442.693,449.506,450.992"/>
<circle fill="none" stroke="#00F472" stroke-width="0.5" stroke-miterlimit="10" cx="434.48" cy="450.992" r="15.026"/>
<path d="M447.175,446.737c-1.558-0.78-2.285-2.637-1.628-4.287l6.914-17.379c0.692-1.741,2.667-2.591,4.408-1.899
	s2.593,2.667,1.9,4.408l-6.915,17.381c-0.692,1.741-2.667,2.592-4.408,1.899C447.353,446.823,447.263,446.782,447.175,446.737"/>
<path fill="none" stroke="#00F472" stroke-width="0.5" stroke-miterlimit="10" d="M447.175,446.737
	c-1.558-0.78-2.285-2.637-1.628-4.287l6.914-17.379c0.692-1.741,2.667-2.591,4.408-1.899s2.593,2.667,1.9,4.408l-6.915,17.381
	c-0.692,1.741-2.667,2.592-4.408,1.899C447.353,446.823,447.263,446.782,447.175,446.737z"/>
<path d="M506.189,436.14c0,5.031-4.08,9.111-9.112,9.111c-5.032,0-9.111-4.08-9.111-9.111s4.079-9.111,9.111-9.111
	C502.109,427.029,506.189,431.109,506.189,436.14"/>
<circle fill="none" stroke="#00F472" stroke-width="0.5" stroke-miterlimit="10" cx="497.078" cy="436.14" r="9.112"/>
<path d="M473.569,432.77c1.727-0.239,3.377,0.878,3.772,2.609l4.157,18.237c0.417,1.827-0.728,3.646-2.554,4.062
	c-1.827,0.416-3.647-0.726-4.064-2.555l-4.157-18.236c-0.417-1.828,0.727-3.647,2.555-4.063
	C473.375,432.801,473.473,432.783,473.569,432.77"/>
<path fill="none" stroke="#00F472" stroke-width="0.5" stroke-miterlimit="10" d="M473.569,432.77
	c1.727-0.239,3.377,0.878,3.772,2.609l4.157,18.237c0.417,1.827-0.728,3.646-2.554,4.062c-1.827,0.416-3.647-0.726-4.064-2.555
	l-4.157-18.236c-0.417-1.828,0.727-3.647,2.555-4.063C473.375,432.801,473.473,432.783,473.569,432.77z"/>
<path d="M480.54,498.245c-1.699-0.269-2.95-1.785-2.853-3.538l0.907-16.434c0.104-1.87,1.706-3.305,3.576-3.201
	c1.869,0.105,3.306,1.705,3.202,3.577l-0.908,16.432c-0.104,1.872-1.705,3.305-3.576,3.202
	C480.77,498.276,480.653,498.263,480.54,498.245"/>
<path fill="none" stroke="#00F472" stroke-width="0.5" stroke-miterlimit="10" d="M480.54,498.245
	c-1.699-0.269-2.95-1.785-2.853-3.538l0.907-16.434c0.104-1.87,1.706-3.305,3.576-3.201c1.869,0.105,3.306,1.705,3.202,3.577
	l-0.908,16.432c-0.104,1.872-1.705,3.305-3.576,3.202C480.77,498.276,480.653,498.263,480.54,498.245z"/>
<path d="M503.797,499.714c-1.719,0-3.193-1.301-3.373-3.047l-1.683-16.371c-0.191-1.865,1.165-3.532,3.031-3.724
	c1.861-0.191,3.529,1.164,3.723,3.027l1.682,16.371c0.193,1.865-1.163,3.532-3.027,3.727
	C504.03,499.708,503.912,499.714,503.797,499.714"/>
<path fill="none" stroke="#00F472" stroke-width="0.5" stroke-miterlimit="10" d="M503.797,499.714
	c-1.719,0-3.193-1.301-3.373-3.047l-1.683-16.371c-0.191-1.865,1.165-3.532,3.031-3.724c1.861-0.191,3.529,1.164,3.723,3.027
	l1.682,16.371c0.193,1.865-1.163,3.532-3.027,3.727C504.03,499.708,503.912,499.714,503.797,499.714z"/>
<path d="M509.041,462.689c0,8.298-6.728,15.025-15.026,15.025c-8.298,0-15.026-6.728-15.026-15.025
	c0-8.299,6.729-15.025,15.026-15.025C502.313,447.664,509.041,454.39,509.041,462.689"/>
<circle fill="none" stroke="#00F472" stroke-width="0.5" stroke-miterlimit="10" cx="494.015" cy="462.689" r="15.026"/>
<path d="M506.709,458.434c-1.558-0.78-2.284-2.637-1.628-4.287l6.914-17.379c0.692-1.742,2.667-2.591,4.408-1.899
	s2.592,2.667,1.899,4.408l-6.914,17.381c-0.693,1.741-2.666,2.592-4.408,1.898C506.887,458.519,506.797,458.479,506.709,458.434"/>
<path fill="none" stroke="#00F472" stroke-width="0.5" stroke-miterlimit="10" d="M506.709,458.434
	c-1.558-0.78-2.284-2.637-1.628-4.287l6.914-17.379c0.692-1.742,2.667-2.591,4.408-1.899s2.592,2.667,1.899,4.408l-6.914,17.381
	c-0.693,1.741-2.666,2.592-4.408,1.898C506.887,458.519,506.797,458.479,506.709,458.434z"/>
<path d="M560.373,440.999c0,5.032-4.08,9.111-9.111,9.111c-5.033,0-9.111-4.079-9.111-9.111c0-5.031,4.078-9.11,9.111-9.11
	C556.293,431.888,560.373,435.968,560.373,440.999"/>
<circle fill="none" stroke="#00F472" stroke-width="0.5" stroke-miterlimit="10" cx="551.262" cy="440.999" r="9.111"/>
<path d="M527.753,437.629c1.726-0.24,3.377,0.878,3.771,2.608l4.159,18.238c0.414,1.827-0.729,3.646-2.556,4.063
	c-1.826,0.415-3.647-0.727-4.063-2.556l-4.158-18.236c-0.416-1.829,0.728-3.647,2.555-4.063
	C527.559,437.66,527.655,437.642,527.753,437.629"/>
<path fill="none" stroke="#00F472" stroke-width="0.5" stroke-miterlimit="10" d="M527.753,437.629
	c1.726-0.24,3.377,0.878,3.771,2.608l4.159,18.238c0.414,1.827-0.729,3.646-2.556,4.063c-1.826,0.415-3.647-0.727-4.063-2.556
	l-4.158-18.236c-0.416-1.829,0.728-3.647,2.555-4.063C527.559,437.66,527.655,437.642,527.753,437.629z"/>
<path d="M534.723,503.104c-1.697-0.268-2.949-1.785-2.852-3.538l0.906-16.431c0.104-1.873,1.705-3.307,3.578-3.205
	c1.867,0.107,3.305,1.707,3.201,3.579l-0.908,16.431c-0.104,1.871-1.705,3.306-3.576,3.203
	C534.953,503.137,534.838,503.125,534.723,503.104"/>
<path fill="none" stroke="#00F472" stroke-width="0.5" stroke-miterlimit="10" d="M534.723,503.104
	c-1.697-0.268-2.949-1.785-2.852-3.538l0.906-16.431c0.104-1.873,1.705-3.307,3.578-3.205c1.867,0.107,3.305,1.707,3.201,3.579
	l-0.908,16.431c-0.104,1.871-1.705,3.306-3.576,3.203C534.953,503.137,534.838,503.125,534.723,503.104z"/>
<path d="M557.98,504.572c-1.719,0-3.193-1.301-3.373-3.045l-1.684-16.369c-0.191-1.866,1.166-3.534,3.031-3.727
	c1.861-0.189,3.529,1.165,3.723,3.032l1.684,16.369c0.191,1.864-1.166,3.53-3.029,3.721
	C558.213,504.566,558.096,504.572,557.98,504.572"/>
<path fill="none" stroke="#00F472" stroke-width="0.5" stroke-miterlimit="10" d="M557.98,504.572c-1.719,0-3.193-1.301-3.373-3.045
	l-1.684-16.369c-0.191-1.866,1.166-3.534,3.031-3.727c1.861-0.189,3.529,1.165,3.723,3.032l1.684,16.369
	c0.191,1.864-1.166,3.53-3.029,3.721C558.213,504.566,558.096,504.572,557.98,504.572z"/>
<path d="M563.225,467.547c0,8.3-6.727,15.027-15.025,15.027s-15.026-6.728-15.026-15.027c0-8.298,6.728-15.024,15.026-15.024
	S563.225,459.25,563.225,467.547"/>
<circle fill="none" stroke="#00F472" stroke-width="0.5" stroke-miterlimit="10" cx="548.199" cy="467.547" r="15.026"/>
<path d="M560.893,463.294c-1.557-0.781-2.285-2.638-1.627-4.288l6.912-17.379c0.693-1.742,2.668-2.591,4.41-1.899
	c1.74,0.692,2.592,2.667,1.898,4.409l-6.914,17.379c-0.693,1.742-2.668,2.593-4.408,1.9
	C561.07,463.379,560.98,463.338,560.893,463.294"/>
<path fill="none" stroke="#00F472" stroke-width="0.5" stroke-miterlimit="10" d="M560.893,463.294
	c-1.557-0.781-2.285-2.638-1.627-4.288l6.912-17.379c0.693-1.742,2.668-2.591,4.41-1.899c1.74,0.692,2.592,2.667,1.898,4.409
	l-6.914,17.379c-0.693,1.742-2.668,2.593-4.408,1.9C561.07,463.379,560.98,463.338,560.893,463.294z"/>
<path d="M373.295,432.956c0,5.031-4.078,9.11-9.112,9.11c-5.031,0-9.11-4.079-9.11-9.11c0-5.032,4.08-9.112,9.11-9.112
	C369.217,423.844,373.295,427.923,373.295,432.956"/>
<circle fill="none" stroke="#00F472" stroke-width="0.5" stroke-miterlimit="10" cx="364.184" cy="432.956" r="9.111"/>
<path d="M340.675,429.585c1.726-0.24,3.377,0.878,3.772,2.608l4.158,18.238c0.415,1.827-0.728,3.646-2.556,4.063
	c-1.826,0.415-3.647-0.728-4.064-2.556l-4.157-18.236c-0.417-1.828,0.727-3.646,2.554-4.063
	C340.482,429.617,340.579,429.599,340.675,429.585"/>
<path fill="none" stroke="#00F472" stroke-width="0.5" stroke-miterlimit="10" d="M340.675,429.585
	c1.726-0.24,3.377,0.878,3.772,2.608l4.158,18.238c0.415,1.827-0.728,3.646-2.556,4.063c-1.826,0.415-3.647-0.728-4.064-2.556
	l-4.157-18.236c-0.417-1.828,0.727-3.646,2.554-4.063C340.482,429.617,340.579,429.599,340.675,429.585z"/>
<path d="M347.646,495.061c-1.698-0.271-2.949-1.787-2.852-3.539l0.907-16.433c0.104-1.872,1.705-3.306,3.576-3.202
	c1.87,0.105,3.306,1.705,3.202,3.576l-0.908,16.432c-0.104,1.872-1.705,3.306-3.576,3.203
	C347.876,495.092,347.76,495.079,347.646,495.061"/>
<path fill="none" stroke="#00F472" stroke-width="0.5" stroke-miterlimit="10" d="M347.646,495.061
	c-1.698-0.271-2.949-1.787-2.852-3.539l0.907-16.433c0.104-1.872,1.705-3.306,3.576-3.202c1.87,0.105,3.306,1.705,3.202,3.576
	l-0.908,16.432c-0.104,1.872-1.705,3.306-3.576,3.203C347.876,495.092,347.76,495.079,347.646,495.061z"/>
<path d="M370.903,496.53c-1.72,0-3.193-1.301-3.374-3.048l-1.682-16.371c-0.192-1.864,1.164-3.531,3.03-3.723
	c1.862-0.191,3.531,1.164,3.723,3.027l1.683,16.372c0.193,1.865-1.163,3.531-3.028,3.723
	C371.136,496.522,371.019,496.53,370.903,496.53"/>
<path fill="none" stroke="#00F472" stroke-width="0.5" stroke-miterlimit="10" d="M370.903,496.53c-1.72,0-3.193-1.301-3.374-3.048
	l-1.682-16.371c-0.192-1.864,1.164-3.531,3.03-3.723c1.862-0.191,3.531,1.164,3.723,3.027l1.683,16.372
	c0.193,1.865-1.163,3.531-3.028,3.723C371.136,496.522,371.019,496.53,370.903,496.53z"/>
<path d="M376.148,459.504c0,8.298-6.729,15.024-15.026,15.024c-8.299,0-15.026-6.727-15.026-15.024
	c0-8.3,6.728-15.026,15.026-15.026C369.419,444.478,376.148,451.205,376.148,459.504"/>
<circle fill="none" stroke="#00F472" stroke-width="0.5" stroke-miterlimit="10" cx="361.122" cy="459.504" r="15.026"/>
<path d="M373.815,455.25c-1.557-0.782-2.284-2.638-1.627-4.288l6.914-17.38c0.692-1.742,2.667-2.591,4.408-1.898
	c1.741,0.692,2.592,2.667,1.898,4.408l-6.914,17.381c-0.692,1.741-2.666,2.591-4.408,1.898
	C373.994,455.334,373.904,455.295,373.815,455.25"/>
<path fill="none" stroke="#00F472" stroke-width="0.5" stroke-miterlimit="10" d="M373.815,455.25
	c-1.557-0.782-2.284-2.638-1.627-4.288l6.914-17.38c0.692-1.742,2.667-2.591,4.408-1.898c1.741,0.692,2.592,2.667,1.898,4.408
	l-6.914,17.381c-0.692,1.741-2.666,2.591-4.408,1.898C373.994,455.334,373.904,455.295,373.815,455.25z"/>
<path d="M421.218,440.999c0,5.032-4.08,9.111-9.111,9.111s-9.111-4.079-9.111-9.111c0-5.031,4.08-9.11,9.111-9.11
	S421.218,435.968,421.218,440.999"/>
<circle fill="none" stroke="#00F472" stroke-width="0.5" stroke-miterlimit="10" cx="412.107" cy="440.999" r="9.111"/>
<path d="M388.599,437.629c1.726-0.24,3.376,0.878,3.771,2.608l4.158,18.238c0.417,1.827-0.728,3.646-2.555,4.063
	c-1.826,0.415-3.646-0.727-4.064-2.556l-4.157-18.236c-0.417-1.829,0.727-3.647,2.554-4.063
	C388.404,437.66,388.501,437.642,388.599,437.629"/>
<path fill="none" stroke="#00F472" stroke-width="0.5" stroke-miterlimit="10" d="M388.599,437.629
	c1.726-0.24,3.376,0.878,3.771,2.608l4.158,18.238c0.417,1.827-0.728,3.646-2.555,4.063c-1.826,0.415-3.646-0.727-4.064-2.556
	l-4.157-18.236c-0.417-1.829,0.727-3.647,2.554-4.063C388.404,437.66,388.501,437.642,388.599,437.629z"/>
<path d="M395.568,503.104c-1.698-0.268-2.949-1.785-2.853-3.538l0.908-16.431c0.104-1.873,1.705-3.307,3.576-3.205
	c1.869,0.107,3.305,1.707,3.203,3.579l-0.909,16.431c-0.103,1.871-1.704,3.306-3.576,3.203
	C395.8,503.137,395.683,503.125,395.568,503.104"/>
<path fill="none" stroke="#00F472" stroke-width="0.5" stroke-miterlimit="10" d="M395.568,503.104
	c-1.698-0.268-2.949-1.785-2.853-3.538l0.908-16.431c0.104-1.873,1.705-3.307,3.576-3.205c1.869,0.107,3.305,1.707,3.203,3.579
	l-0.909,16.431c-0.103,1.871-1.704,3.306-3.576,3.203C395.8,503.137,395.683,503.125,395.568,503.104z"/>
<path d="M418.826,504.572c-1.719,0-3.193-1.301-3.372-3.045l-1.683-16.369c-0.193-1.866,1.164-3.534,3.029-3.727
	c1.861-0.189,3.53,1.165,3.722,3.032l1.684,16.369c0.192,1.864-1.164,3.53-3.03,3.721
	C419.06,504.566,418.942,504.572,418.826,504.572"/>
<path fill="none" stroke="#00F472" stroke-width="0.5" stroke-miterlimit="10" d="M418.826,504.572
	c-1.719,0-3.193-1.301-3.372-3.045l-1.683-16.369c-0.193-1.866,1.164-3.534,3.029-3.727c1.861-0.189,3.53,1.165,3.722,3.032
	l1.684,16.369c0.192,1.864-1.164,3.53-3.03,3.721C419.06,504.566,418.942,504.572,418.826,504.572z"/>
<path d="M424.071,467.547c0,8.3-6.728,15.027-15.026,15.027c-8.298,0-15.026-6.728-15.026-15.027
	c0-8.298,6.729-15.024,15.026-15.024C417.343,452.523,424.071,459.25,424.071,467.547"/>
<circle fill="none" stroke="#00F472" stroke-width="0.5" stroke-miterlimit="10" cx="409.044" cy="467.547" r="15.026"/>
<path d="M421.738,463.294c-1.557-0.781-2.284-2.638-1.628-4.288l6.914-17.379c0.692-1.742,2.666-2.591,4.409-1.899
	c1.74,0.692,2.592,2.667,1.899,4.409l-6.916,17.379c-0.692,1.742-2.666,2.593-4.407,1.9
	C421.917,463.379,421.827,463.338,421.738,463.294"/>
<path fill="none" stroke="#00F472" stroke-width="0.5" stroke-miterlimit="10" d="M421.738,463.294
	c-1.557-0.781-2.284-2.638-1.628-4.288l6.914-17.379c0.692-1.742,2.666-2.591,4.409-1.899c1.74,0.692,2.592,2.667,1.899,4.409
	l-6.916,17.379c-0.692,1.742-2.666,2.593-4.407,1.9C421.917,463.379,421.827,463.338,421.738,463.294z"/>
<path d="M476.732,451.151c0,5.031-4.079,9.112-9.111,9.112c-5.032,0-9.111-4.081-9.111-9.112s4.079-9.11,9.111-9.11
	C472.653,442.041,476.732,446.12,476.732,451.151"/>
<circle fill="none" stroke="#00F472" stroke-width="0.5" stroke-miterlimit="10" cx="467.621" cy="451.151" r="9.111"/>
<path d="M444.113,447.781c1.725-0.239,3.377,0.878,3.771,2.608l4.158,18.237c0.416,1.828-0.728,3.646-2.555,4.063
	c-1.826,0.416-3.648-0.726-4.064-2.555l-4.158-18.236c-0.417-1.828,0.727-3.647,2.554-4.063
	C443.918,447.813,444.016,447.795,444.113,447.781"/>
<path fill="none" stroke="#00F472" stroke-width="0.5" stroke-miterlimit="10" d="M444.113,447.781
	c1.725-0.239,3.377,0.878,3.771,2.608l4.158,18.237c0.416,1.828-0.728,3.646-2.555,4.063c-1.826,0.416-3.648-0.726-4.064-2.555
	l-4.158-18.236c-0.417-1.828,0.727-3.647,2.554-4.063C443.918,447.813,444.016,447.795,444.113,447.781z"/>
<path d="M451.082,513.256c-1.697-0.27-2.949-1.785-2.851-3.537l0.907-16.431c0.104-1.87,1.705-3.305,3.577-3.201
	c1.868,0.105,3.306,1.706,3.202,3.576l-0.908,16.429c-0.104,1.873-1.705,3.305-3.576,3.201
	C451.313,513.287,451.197,513.273,451.082,513.256"/>
<path fill="none" stroke="#00F472" stroke-width="0.5" stroke-miterlimit="10" d="M451.082,513.256
	c-1.697-0.27-2.949-1.785-2.851-3.537l0.907-16.431c0.104-1.87,1.705-3.305,3.577-3.201c1.868,0.105,3.306,1.706,3.202,3.576
	l-0.908,16.429c-0.104,1.873-1.705,3.305-3.576,3.201C451.313,513.287,451.197,513.273,451.082,513.256z"/>
<path d="M474.34,514.727c-1.719,0-3.192-1.301-3.373-3.049l-1.683-16.368c-0.192-1.865,1.164-3.532,3.03-3.723
	c1.861-0.191,3.53,1.164,3.722,3.028l1.683,16.367c0.192,1.865-1.164,3.533-3.028,3.727
	C474.574,514.719,474.456,514.727,474.34,514.727"/>
<path fill="none" stroke="#00F472" stroke-width="0.5" stroke-miterlimit="10" d="M474.34,514.727c-1.719,0-3.192-1.301-3.373-3.049
	l-1.683-16.368c-0.192-1.865,1.164-3.532,3.03-3.723c1.861-0.191,3.53,1.164,3.722,3.028l1.683,16.367
	c0.192,1.865-1.164,3.533-3.028,3.727C474.574,514.719,474.456,514.727,474.34,514.727z"/>
<path d="M479.585,477.7c0,8.303-6.728,15.029-15.025,15.029c-8.299,0-15.027-6.727-15.027-15.029
	c0-8.298,6.728-15.025,15.027-15.025C472.857,462.674,479.585,469.402,479.585,477.7"/>
<circle fill="none" stroke="#00F472" stroke-width="0.5" stroke-miterlimit="10" cx="464.559" cy="477.7" r="15.026"/>
<path d="M477.253,473.446c-1.559-0.78-2.284-2.638-1.628-4.287l6.914-17.38c0.692-1.741,2.667-2.591,4.408-1.898
	c1.741,0.692,2.593,2.666,1.9,4.408l-6.915,17.38c-0.692,1.742-2.667,2.593-4.408,1.899
	C477.431,473.531,477.34,473.491,477.253,473.446"/>
<path fill="none" stroke="#00F472" stroke-width="0.5" stroke-miterlimit="10" d="M477.253,473.446
	c-1.559-0.78-2.284-2.638-1.628-4.287l6.914-17.38c0.692-1.741,2.667-2.591,4.408-1.898c1.741,0.692,2.593,2.666,1.9,4.408
	l-6.915,17.38c-0.692,1.742-2.667,2.593-4.408,1.899C477.431,473.531,477.34,473.491,477.253,473.446z"/>
<path d="M538.51,464.305c0,5.031-4.079,9.111-9.111,9.111c-5.03,0-9.109-4.08-9.109-9.111s4.079-9.111,9.109-9.111
	C534.431,455.194,538.51,459.274,538.51,464.305"/>
<circle fill="none" stroke="#00F472" stroke-width="0.5" stroke-miterlimit="10" cx="529.399" cy="464.305" r="9.11"/>
<path d="M505.891,460.935c1.727-0.239,3.377,0.878,3.772,2.608l4.158,18.238c0.417,1.829-0.728,3.649-2.556,4.065
	c-1.826,0.415-3.646-0.727-4.064-2.557l-4.156-18.238c-0.416-1.828,0.727-3.646,2.555-4.062
	C505.696,460.966,505.794,460.948,505.891,460.935"/>
<path fill="none" stroke="#00F472" stroke-width="0.5" stroke-miterlimit="10" d="M505.891,460.935
	c1.727-0.239,3.377,0.878,3.772,2.608l4.158,18.238c0.417,1.829-0.728,3.649-2.556,4.065c-1.826,0.415-3.646-0.727-4.064-2.557
	l-4.156-18.238c-0.416-1.828,0.727-3.646,2.555-4.062C505.696,460.966,505.794,460.948,505.891,460.935z"/>
<path d="M512.861,526.412c-1.697-0.271-2.95-1.789-2.853-3.541l0.907-16.43c0.104-1.871,1.705-3.305,3.576-3.201
	c1.869,0.105,3.305,1.705,3.203,3.576l-0.908,16.428c-0.104,1.875-1.705,3.307-3.576,3.203
	C513.092,526.439,512.975,526.428,512.861,526.412"/>
<path fill="none" stroke="#00F472" stroke-width="0.5" stroke-miterlimit="10" d="M512.861,526.412
	c-1.697-0.271-2.95-1.789-2.853-3.541l0.907-16.43c0.104-1.871,1.705-3.305,3.576-3.201c1.869,0.105,3.305,1.705,3.203,3.576
	l-0.908,16.428c-0.104,1.875-1.705,3.307-3.576,3.203C513.092,526.439,512.975,526.428,512.861,526.412z"/>
<path d="M536.119,527.879c-1.719,0-3.193-1.299-3.373-3.047l-1.683-16.369c-0.192-1.863,1.163-3.531,3.029-3.721
	c1.862-0.191,3.53,1.164,3.724,3.027l1.682,16.367c0.191,1.865-1.164,3.533-3.027,3.725
	C536.352,527.873,536.234,527.879,536.119,527.879"/>
<path fill="none" stroke="#00F472" stroke-width="0.5" stroke-miterlimit="10" d="M536.119,527.879
	c-1.719,0-3.193-1.299-3.373-3.047l-1.683-16.369c-0.192-1.863,1.163-3.531,3.029-3.721c1.862-0.191,3.53,1.164,3.724,3.027
	l1.682,16.367c0.191,1.865-1.164,3.533-3.027,3.725C536.352,527.873,536.234,527.879,536.119,527.879z"/>
<path d="M541.363,490.856c0,8.3-6.729,15.027-15.025,15.027c-8.299,0-15.026-6.727-15.026-15.027s6.728-15.027,15.026-15.027
	C534.635,475.829,541.363,482.556,541.363,490.856"/>
<circle fill="none" stroke="#00F472" stroke-width="0.5" stroke-miterlimit="10" cx="526.337" cy="490.856" r="15.026"/>
<path d="M539.031,486.603c-1.557-0.781-2.285-2.639-1.629-4.289l6.914-17.382c0.693-1.74,2.668-2.591,4.408-1.898
	c1.74,0.693,2.592,2.667,1.898,4.409l-6.912,17.382c-0.693,1.743-2.668,2.592-4.408,1.9
	C539.209,486.688,539.119,486.648,539.031,486.603"/>
<path fill="none" stroke="#00F472" stroke-width="0.5" stroke-miterlimit="10" d="M539.031,486.603
	c-1.557-0.781-2.285-2.639-1.629-4.289l6.914-17.382c0.693-1.74,2.668-2.591,4.408-1.898c1.74,0.693,2.592,2.667,1.898,4.409
	l-6.912,17.382c-0.693,1.743-2.668,2.592-4.408,1.9C539.209,486.688,539.119,486.648,539.031,486.603z"/>
</svg>
