<?xml version="1.0" encoding="utf-8"?>
<!-- Generator: Adobe Illustrator 16.0.0, SVG Export Plug-In . SVG Version: 6.00 Build 0)  -->
<!DOCTYPE svg PUBLIC "-//W3C//DTD SVG 1.1//EN" "http://www.w3.org/Graphics/SVG/1.1/DTD/svg11.dtd">
<svg version="1.1" id="Layer_1" xmlns="http://www.w3.org/2000/svg" xmlns:xlink="http://www.w3.org/1999/xlink" x="0px" y="0px"
	 width="1000px" height="1000px" viewBox="0 0 1000 1000" enable-background="new 0 0 1000 1000" xml:space="preserve">
<path fill="none" stroke="#000000" stroke-miterlimit="10" d="M24.521,676.321c0-185.032,107.313-353.27,275.097-431.278"/>
<path fill="none" stroke="#000000" stroke-miterlimit="10" d="M311.495,239.718c81.888-35.38,172.075-47.018,260.263-33.583"/>
<path fill="none" stroke="#000000" stroke-miterlimit="10" d="M575.276,206.684C805.932,243.59,975.645,442.533,975.742,676.12"/>
<path fill="none" stroke="#000000" stroke-miterlimit="10" d="M853.545,762.793c19.562-5.901,38.656-12.646,57.227-21.278"/>
<path fill="none" stroke="#000000" stroke-miterlimit="10" d="M24.521,676.321c0,15.112,9.435,27.381,19.554,36.67
	c16.875,15.491,36.102,24.855,56.724,33.516c33.837,14.21,68.602,23.493,104.296,31.162
	c71.558,15.376,143.276,22.749,216.184,26.079c130.655,5.968,304.667-2.462,432.267-40.955"/>
<path fill="none" stroke="#000000" stroke-miterlimit="10" d="M260.172,787.885c0-105.019,18.957-216.583,54.407-315.53
	c30.278-84.508,92.616-210.547,185.552-253.756"/>
<path fill="none" stroke="#000000" stroke-miterlimit="10" d="M299.618,245.043c63.056-29.316,132.38-37.261,200.513-26.444"/>
<path fill="none" stroke="#000000" stroke-miterlimit="10" d="M575.276,206.685c-27.501-4.512-50.416,0.417-75.145,11.914"/>
<path fill="none" stroke="#000000" stroke-miterlimit="10" d="M910.771,741.514c0-119.98-42.123-239.569-114.118-334.765
	c-71.367-94.365-176.059-169.025-296.521-188.15"/>
<path fill="none" stroke="#000000" stroke-miterlimit="10" d="M910.771,741.514c21.855-10.16,65.155-33.056,64.97-65.394"/>
<path fill="none" stroke="#000000" stroke-miterlimit="10" d="M262.002,564.469c237.769,38.621,475.669,76.39,713.707,113.31"/>
<path fill="none" stroke="#000000" stroke-miterlimit="10" d="M400.286,549.985c184.444,30.728,369.102,60.016,553.988,87.954"/>
<path fill="none" stroke="#000000" stroke-miterlimit="10" d="M667.993,555.422c45.806,7.308,91.615,14.581,137.433,21.818"/>
<path fill="none" stroke="#000000" stroke-miterlimit="10" d="M49.386,635.088c32.474-14.999,64.911-30.077,97.312-45.232"/>
<path fill="none" stroke="#000000" stroke-miterlimit="10" d="M35.801,704.296c109.718-48.63,218.556-99.009,326.418-151.638"/>
<path fill="none" stroke="#000000" stroke-miterlimit="10" d="M161.912,585.475c265.048,43.008,530.236,85.103,795.57,126.304"/>
<path fill="none" stroke="#000000" stroke-miterlimit="10" d="M166.332,768.365c155.535-71.03,310.645-142.944,465.13-216.234"/>
<path fill="none" stroke="#000000" stroke-miterlimit="10" d="M260.171,787.882c159.941-74.441,319.931-148.779,479.917-223.125"/>
<path fill="none" stroke="#000000" stroke-miterlimit="10" d="M368.793,800.512c154.465-73.319,309.493-145.392,465.105-216.243"/>
<path fill="none" stroke="#000000" stroke-miterlimit="10" d="M492.921,805.521c138.788-65.94,278.091-130.73,417.961-194.34"/>
<path fill="none" stroke="#000000" stroke-miterlimit="10" d="M638.072,799.982C745.908,747.344,854.686,696.88,964.38,648.247"/>
<path fill="none" stroke="#000000" stroke-miterlimit="10" d="M853.545,762.793c32.423-15.169,64.883-30.261,97.378-45.275"/>
<path fill="none" stroke="#000000" stroke-miterlimit="10" d="M89.491,611.132c273.75,43.519,547.513,86.955,821.279,130.384"/>
<path fill="none" stroke="#000000" stroke-miterlimit="10" d="M42.767,640.876c265.312,41.341,530.512,83.351,795.57,126.296"/>
<path fill="none" stroke="#000000" stroke-miterlimit="10" d="M740.091,564.758c0-71.231-7.035-138.971-29.875-207.289
	c-19.526-58.406-60.241-137.113-132.878-150.426"/>
<path fill="none" stroke="#000000" stroke-miterlimit="10" d="M24.552,674.916c238,37.063,475.906,74.69,713.667,113.265"/>
<path fill="none" stroke="#000000" stroke-miterlimit="10" d="M89.491,611.129c0-143.665,63.05-291.261,199.273-360.794"/>
<path fill="none" stroke="#000000" stroke-miterlimit="10" d="M46.104,714.804c184.819,27.924,369.414,57.153,553.792,87.857"/>
<path fill="none" stroke="#000000" stroke-miterlimit="10" d="M194.979,775.434c45.738,7.225,91.471,14.483,137.198,21.777"/>
<path fill="none" stroke="#000000" stroke-miterlimit="10" d="M975.709,674.79c-0.758-17.372-13.608-30.818-25.692-40.39
	c-21.304-16.876-44.888-26.763-69.905-35.792c-40.607-14.655-82.013-23.921-124.364-31.254
	c-84.898-14.7-169.536-20.243-255.503-20.248c-85.976-0.006-170.624,5.528-255.534,20.214c-42.32,7.32-83.696,16.57-124.279,31.187
	c-24.349,8.771-47.363,18.463-68.329,34.45c-12.614,9.621-26.636,23.592-27.538,41.604"/>
<path fill="none" stroke="#000000" stroke-miterlimit="10" d="M89.284,741.417c139.804-63.811,279.255-128.348,418.066-194.296"/>
<path d="M401.339,554.42c0,6.648-5.39,12.038-12.038,12.038c-6.649,0-12.039-5.39-12.039-12.038s5.39-12.038,12.039-12.038
	C395.949,542.382,401.339,547.771,401.339,554.42"/>
<circle fill="none" stroke="#00F472" stroke-width="0.5" stroke-miterlimit="10" cx="389.301" cy="554.42" r="12.038"/>
<path d="M358.239,549.967c2.28-0.315,4.462,1.16,4.983,3.446l5.494,24.097c0.55,2.415-0.961,4.819-3.375,5.369
	c-2.414,0.55-4.819-0.96-5.37-3.375l-5.493-24.097c-0.55-2.415,0.96-4.819,3.375-5.369
	C357.981,550.008,358.111,549.984,358.239,549.967"/>
<path fill="none" stroke="#00F472" stroke-width="0.5" stroke-miterlimit="10" d="M358.239,549.967
	c2.28-0.315,4.462,1.16,4.983,3.446l5.494,24.097c0.55,2.415-0.961,4.819-3.375,5.369c-2.414,0.55-4.819-0.96-5.37-3.375
	l-5.493-24.097c-0.55-2.415,0.96-4.819,3.375-5.369C357.981,550.008,358.111,549.984,358.239,549.967z"/>
<path d="M367.448,636.476c-2.242-0.356-3.896-2.359-3.768-4.677l1.2-21.707c0.136-2.473,2.252-4.367,4.725-4.23
	c2.47,0.139,4.367,2.252,4.23,4.725l-1.2,21.709c-0.136,2.473-2.252,4.367-4.725,4.23
	C367.753,636.516,367.599,636.5,367.448,636.476"/>
<path fill="none" stroke="#00F472" stroke-width="0.5" stroke-miterlimit="10" d="M367.448,636.476
	c-2.242-0.356-3.896-2.359-3.768-4.677l1.2-21.707c0.136-2.473,2.252-4.367,4.725-4.23c2.47,0.139,4.367,2.252,4.23,4.725
	l-1.2,21.709c-0.136,2.473-2.252,4.367-4.725,4.23C367.753,636.516,367.599,636.5,367.448,636.476z"/>
<path d="M398.179,638.416c-2.271,0-4.218-1.718-4.456-4.026l-2.224-21.626c-0.253-2.465,1.539-4.667,4.003-4.92
	c2.46-0.252,4.666,1.538,4.919,4.002l2.225,21.627c0.253,2.463-1.539,4.667-4.003,4.92
	C398.487,638.408,398.332,638.416,398.179,638.416"/>
<path fill="none" stroke="#00F472" stroke-width="0.5" stroke-miterlimit="10" d="M398.179,638.416
	c-2.271,0-4.218-1.718-4.456-4.026l-2.224-21.626c-0.253-2.465,1.539-4.667,4.003-4.92c2.46-0.252,4.666,1.538,4.919,4.002
	l2.225,21.627c0.253,2.463-1.539,4.667-4.003,4.92C398.487,638.408,398.332,638.416,398.179,638.416z"/>
<path d="M405.108,589.498c0,10.966-8.889,19.854-19.854,19.854c-10.965,0-19.854-8.888-19.854-19.854
	c0-10.965,8.888-19.854,19.854-19.854C396.219,569.645,405.108,578.533,405.108,589.498"/>
<circle fill="none" stroke="#00F472" stroke-width="0.5" stroke-miterlimit="10" cx="385.255" cy="589.498" r="19.854"/>
<path d="M402.027,583.878c-2.058-1.031-3.019-3.485-2.151-5.663l9.135-22.966c0.916-2.3,3.523-3.425,5.825-2.509
	c2.299,0.916,3.425,3.522,2.51,5.824l-9.136,22.965c-0.916,2.301-3.522,3.425-5.825,2.51
	C402.263,583.99,402.144,583.937,402.027,583.878"/>
<path fill="none" stroke="#00F472" stroke-width="0.5" stroke-miterlimit="10" d="M402.027,583.878
	c-2.058-1.031-3.019-3.485-2.151-5.663l9.135-22.966c0.916-2.3,3.523-3.425,5.825-2.509c2.299,0.916,3.425,3.522,2.51,5.824
	l-9.136,22.965c-0.916,2.301-3.522,3.425-5.825,2.51C402.263,583.99,402.144,583.937,402.027,583.878z"/>
<path d="M470.423,566.458c0,6.648-5.39,12.038-12.038,12.038c-6.649,0-12.039-5.39-12.039-12.038c0-6.647,5.39-12.038,12.039-12.038
	C465.034,554.42,470.423,559.811,470.423,566.458"/>
<circle fill="none" stroke="#00F472" stroke-width="0.5" stroke-miterlimit="10" cx="458.385" cy="566.458" r="12.039"/>
<path d="M427.324,562.005c2.28-0.315,4.462,1.161,4.983,3.446l5.494,24.097c0.55,2.415-0.961,4.819-3.375,5.37
	c-2.414,0.549-4.819-0.961-5.37-3.376l-5.493-24.097c-0.55-2.415,0.96-4.819,3.375-5.369
	C427.066,562.047,427.195,562.023,427.324,562.005"/>
<path fill="none" stroke="#00F472" stroke-width="0.5" stroke-miterlimit="10" d="M427.324,562.005
	c2.28-0.315,4.462,1.161,4.983,3.446l5.494,24.097c0.55,2.415-0.961,4.819-3.375,5.37c-2.414,0.549-4.819-0.961-5.37-3.376
	l-5.493-24.097c-0.55-2.415,0.96-4.819,3.375-5.369C427.066,562.047,427.195,562.023,427.324,562.005z"/>
<path d="M436.532,648.515c-2.242-0.357-3.896-2.36-3.768-4.677l1.2-21.708c0.136-2.473,2.252-4.367,4.725-4.229
	c2.47,0.138,4.367,2.252,4.23,4.725l-1.2,21.708c-0.136,2.473-2.252,4.367-4.725,4.23
	C436.838,648.555,436.684,648.538,436.532,648.515"/>
<path fill="none" stroke="#00F472" stroke-width="0.5" stroke-miterlimit="10" d="M436.532,648.515
	c-2.242-0.357-3.896-2.36-3.768-4.677l1.2-21.708c0.136-2.473,2.252-4.367,4.725-4.229c2.47,0.138,4.367,2.252,4.23,4.725
	l-1.2,21.708c-0.136,2.473-2.252,4.367-4.725,4.23C436.838,648.555,436.684,648.538,436.532,648.515z"/>
<path d="M467.263,650.455c-2.27,0-4.218-1.718-4.456-4.026l-2.225-21.627c-0.253-2.464,1.539-4.667,4.003-4.921
	c2.46-0.251,4.666,1.539,4.919,4.003l2.225,21.627c0.253,2.464-1.539,4.667-4.003,4.92
	C467.572,650.447,467.417,650.455,467.263,650.455"/>
<path fill="none" stroke="#00F472" stroke-width="0.5" stroke-miterlimit="10" d="M467.263,650.455c-2.27,0-4.218-1.718-4.456-4.026
	l-2.225-21.627c-0.253-2.464,1.539-4.667,4.003-4.921c2.46-0.251,4.666,1.539,4.919,4.003l2.225,21.627
	c0.253,2.464-1.539,4.667-4.003,4.92C467.572,650.447,467.417,650.455,467.263,650.455z"/>
<path d="M474.193,601.537c0,10.965-8.889,19.854-19.854,19.854c-10.965,0-19.854-8.889-19.854-19.854s8.888-19.854,19.854-19.854
	C465.304,581.684,474.193,590.572,474.193,601.537"/>
<circle fill="none" stroke="#00F472" stroke-width="0.5" stroke-miterlimit="10" cx="454.339" cy="601.537" r="19.854"/>
<path d="M471.112,595.917c-2.058-1.032-3.019-3.486-2.151-5.665l9.135-22.964c0.916-2.302,3.523-3.425,5.825-2.509
	c2.299,0.915,3.425,3.522,2.51,5.823l-9.136,22.966c-0.916,2.3-3.522,3.424-5.825,2.509
	C471.347,596.028,471.228,595.975,471.112,595.917"/>
<path fill="none" stroke="#00F472" stroke-width="0.5" stroke-miterlimit="10" d="M471.112,595.917
	c-2.058-1.032-3.019-3.486-2.151-5.665l9.135-22.964c0.916-2.302,3.523-3.425,5.825-2.509c2.299,0.915,3.425,3.522,2.51,5.823
	l-9.136,22.966c-0.916,2.3-3.522,3.424-5.825,2.509C471.347,596.028,471.228,595.975,471.112,595.917z"/>
<path d="M597.022,573.288c0,6.648-5.391,12.038-12.038,12.038c-6.648,0-12.039-5.39-12.039-12.038
	c0-6.647,5.391-12.038,12.039-12.038C591.632,561.25,597.022,566.641,597.022,573.288"/>
<circle fill="none" stroke="#00F472" stroke-width="0.5" stroke-miterlimit="10" cx="584.984" cy="573.288" r="12.039"/>
<path d="M553.923,568.836c2.28-0.316,4.461,1.16,4.983,3.445l5.493,24.097c0.551,2.416-0.961,4.82-3.375,5.37
	c-2.413,0.549-4.819-0.961-5.37-3.376l-5.493-24.097c-0.55-2.415,0.96-4.819,3.376-5.369
	C553.664,568.877,553.794,568.854,553.923,568.836"/>
<path fill="none" stroke="#00F472" stroke-width="0.5" stroke-miterlimit="10" d="M553.923,568.836
	c2.28-0.316,4.461,1.16,4.983,3.445l5.493,24.097c0.551,2.416-0.961,4.82-3.375,5.37c-2.413,0.549-4.819-0.961-5.37-3.376
	l-5.493-24.097c-0.55-2.415,0.96-4.819,3.376-5.369C553.664,568.877,553.794,568.854,553.923,568.836z"/>
<path d="M563.131,655.345c-2.242-0.356-3.896-2.36-3.768-4.677l1.199-21.707c0.136-2.473,2.253-4.367,4.725-4.23
	c2.47,0.138,4.367,2.252,4.231,4.725l-1.2,21.708c-0.136,2.473-2.252,4.367-4.725,4.23
	C563.437,655.385,563.281,655.369,563.131,655.345"/>
<path fill="none" stroke="#00F472" stroke-width="0.5" stroke-miterlimit="10" d="M563.131,655.345
	c-2.242-0.356-3.896-2.36-3.768-4.677l1.199-21.707c0.136-2.473,2.253-4.367,4.725-4.23c2.47,0.138,4.367,2.252,4.231,4.725
	l-1.2,21.708c-0.136,2.473-2.252,4.367-4.725,4.23C563.437,655.385,563.281,655.369,563.131,655.345z"/>
<path d="M593.862,657.285c-2.271,0-4.219-1.718-4.456-4.026l-2.225-21.627c-0.253-2.464,1.539-4.667,4.003-4.921
	c2.461-0.25,4.665,1.539,4.919,4.003l2.225,21.627c0.254,2.464-1.539,4.667-4.002,4.92
	C594.17,657.277,594.016,657.285,593.862,657.285"/>
<path fill="none" stroke="#00F472" stroke-width="0.5" stroke-miterlimit="10" d="M593.862,657.285
	c-2.271,0-4.219-1.718-4.456-4.026l-2.225-21.627c-0.253-2.464,1.539-4.667,4.003-4.921c2.461-0.25,4.665,1.539,4.919,4.003
	l2.225,21.627c0.254,2.464-1.539,4.667-4.002,4.92C594.17,657.277,594.016,657.285,593.862,657.285z"/>
<path d="M600.791,608.367c0,10.965-8.889,19.854-19.854,19.854s-19.854-8.889-19.854-19.854s8.889-19.854,19.854-19.854
	S600.791,597.402,600.791,608.367"/>
<circle fill="none" stroke="#00F472" stroke-width="0.5" stroke-miterlimit="10" cx="580.938" cy="608.367" r="19.854"/>
<path d="M597.711,602.747c-2.059-1.032-3.019-3.486-2.151-5.665l9.135-22.964c0.915-2.302,3.524-3.425,5.825-2.509
	c2.299,0.915,3.425,3.522,2.51,5.824l-9.137,22.965c-0.916,2.301-3.522,3.424-5.824,2.509
	C597.945,602.858,597.825,602.806,597.711,602.747"/>
<path fill="none" stroke="#00F472" stroke-width="0.5" stroke-miterlimit="10" d="M597.711,602.747
	c-2.059-1.032-3.019-3.486-2.151-5.665l9.135-22.964c0.915-2.302,3.524-3.425,5.825-2.509c2.299,0.915,3.425,3.522,2.51,5.824
	l-9.137,22.965c-0.916,2.301-3.522,3.424-5.824,2.509C597.945,602.858,597.825,602.806,597.711,602.747z"/>
<path d="M533.724,565.559c0,6.648-5.391,12.037-12.039,12.037c-6.649,0-12.039-5.389-12.039-12.037s5.39-12.039,12.039-12.039
	C528.333,553.52,533.724,558.91,533.724,565.559"/>
<circle fill="none" stroke="#00F472" stroke-width="0.5" stroke-miterlimit="10" cx="521.685" cy="565.559" r="12.039"/>
<path d="M490.623,561.105c2.28-0.316,4.462,1.16,4.983,3.445l5.494,24.098c0.55,2.414-0.961,4.818-3.376,5.369
	c-2.413,0.549-4.819-0.961-5.37-3.376l-5.494-24.097c-0.55-2.414,0.961-4.818,3.375-5.369
	C490.365,561.146,490.495,561.123,490.623,561.105"/>
<path fill="none" stroke="#00F472" stroke-width="0.5" stroke-miterlimit="10" d="M490.623,561.105
	c2.28-0.316,4.462,1.16,4.983,3.445l5.494,24.098c0.55,2.414-0.961,4.818-3.376,5.369c-2.413,0.549-4.819-0.961-5.37-3.376
	l-5.494-24.097c-0.55-2.414,0.961-4.818,3.375-5.369C490.365,561.146,490.495,561.123,490.623,561.105z"/>
<path d="M499.832,647.614c-2.243-0.357-3.896-2.36-3.768-4.677l1.2-21.708c0.136-2.473,2.252-4.367,4.724-4.229
	c2.47,0.138,4.368,2.252,4.231,4.725l-1.2,21.709c-0.136,2.473-2.253,4.366-4.725,4.229
	C500.137,647.654,499.983,647.638,499.832,647.614"/>
<path fill="none" stroke="#00F472" stroke-width="0.5" stroke-miterlimit="10" d="M499.832,647.614
	c-2.243-0.357-3.896-2.36-3.768-4.677l1.2-21.708c0.136-2.473,2.252-4.367,4.724-4.229c2.47,0.138,4.368,2.252,4.231,4.725
	l-1.2,21.709c-0.136,2.473-2.253,4.366-4.725,4.229C500.137,647.654,499.983,647.638,499.832,647.614z"/>
<path d="M530.562,649.555c-2.271,0-4.219-1.718-4.456-4.026l-2.225-21.626c-0.252-2.465,1.539-4.668,4.004-4.921
	c2.46-0.252,4.665,1.539,4.919,4.003l2.225,21.627c0.252,2.463-1.539,4.666-4.004,4.92
	C530.871,649.547,530.717,649.555,530.562,649.555"/>
<path fill="none" stroke="#00F472" stroke-width="0.5" stroke-miterlimit="10" d="M530.562,649.555
	c-2.271,0-4.219-1.718-4.456-4.026l-2.225-21.626c-0.252-2.465,1.539-4.668,4.004-4.921c2.46-0.252,4.665,1.539,4.919,4.003
	l2.225,21.627c0.252,2.463-1.539,4.666-4.004,4.92C530.871,649.547,530.717,649.555,530.562,649.555z"/>
<path d="M537.492,600.637c0,10.965-8.889,19.854-19.854,19.854c-10.966,0-19.854-8.889-19.854-19.854
	c0-10.966,8.888-19.854,19.854-19.854C528.604,580.783,537.492,589.671,537.492,600.637"/>
<circle fill="none" stroke="#00F472" stroke-width="0.5" stroke-miterlimit="10" cx="517.639" cy="600.637" r="19.854"/>
<path d="M534.411,595.017c-2.058-1.032-3.018-3.485-2.151-5.664l9.135-22.965c0.916-2.301,3.523-3.425,5.825-2.51
	c2.3,0.916,3.425,3.523,2.511,5.825l-9.137,22.965c-0.916,2.301-3.522,3.425-5.825,2.509
	C534.646,595.128,534.526,595.075,534.411,595.017"/>
<path fill="none" stroke="#00F472" stroke-width="0.5" stroke-miterlimit="10" d="M534.411,595.017
	c-2.058-1.032-3.018-3.485-2.151-5.664l9.135-22.965c0.916-2.301,3.523-3.425,5.825-2.51c2.3,0.916,3.425,3.523,2.511,5.825
	l-9.137,22.965c-0.916,2.301-3.522,3.425-5.825,2.509C534.646,595.128,534.526,595.075,534.411,595.017z"/>
<path d="M659.066,576.407c0,6.648-5.39,12.038-12.038,12.038c-6.649,0-12.039-5.39-12.039-12.038s5.39-12.038,12.039-12.038
	C653.677,564.369,659.066,569.759,659.066,576.407"/>
<circle fill="none" stroke="#00F472" stroke-width="0.5" stroke-miterlimit="10" cx="647.028" cy="576.407" r="12.039"/>
<path d="M615.967,571.954c2.28-0.315,4.462,1.161,4.983,3.446l5.493,24.097c0.55,2.415-0.961,4.819-3.375,5.37
	c-2.414,0.549-4.819-0.961-5.37-3.376l-5.493-24.097c-0.551-2.415,0.961-4.819,3.375-5.369
	C615.709,571.996,615.839,571.972,615.967,571.954"/>
<path fill="none" stroke="#00F472" stroke-width="0.5" stroke-miterlimit="10" d="M615.967,571.954
	c2.28-0.315,4.462,1.161,4.983,3.446l5.493,24.097c0.55,2.415-0.961,4.819-3.375,5.37c-2.414,0.549-4.819-0.961-5.37-3.376
	l-5.493-24.097c-0.551-2.415,0.961-4.819,3.375-5.369C615.709,571.996,615.839,571.972,615.967,571.954z"/>
<path d="M625.176,658.463c-2.243-0.355-3.897-2.359-3.769-4.676l1.199-21.708c0.137-2.473,2.253-4.366,4.726-4.23
	c2.47,0.139,4.366,2.253,4.229,4.726l-1.199,21.708c-0.136,2.473-2.253,4.367-4.726,4.23
	C625.48,658.504,625.327,658.488,625.176,658.463"/>
<path fill="none" stroke="#00F472" stroke-width="0.5" stroke-miterlimit="10" d="M625.176,658.463
	c-2.243-0.355-3.897-2.359-3.769-4.676l1.199-21.708c0.137-2.473,2.253-4.366,4.726-4.23c2.47,0.139,4.366,2.253,4.229,4.726
	l-1.199,21.708c-0.136,2.473-2.253,4.367-4.726,4.23C625.48,658.504,625.327,658.488,625.176,658.463z"/>
<path d="M655.906,660.404c-2.271,0-4.219-1.719-4.456-4.027l-2.224-21.626c-0.254-2.465,1.538-4.668,4.002-4.921
	c2.461-0.251,4.666,1.539,4.92,4.003l2.224,21.627c0.254,2.464-1.538,4.666-4.003,4.92
	C656.215,660.396,656.06,660.404,655.906,660.404"/>
<path fill="none" stroke="#00F472" stroke-width="0.5" stroke-miterlimit="10" d="M655.906,660.404
	c-2.271,0-4.219-1.719-4.456-4.027l-2.224-21.626c-0.254-2.465,1.538-4.668,4.002-4.921c2.461-0.251,4.666,1.539,4.92,4.003
	l2.224,21.627c0.254,2.464-1.538,4.666-4.003,4.92C656.215,660.396,656.06,660.404,655.906,660.404z"/>
<path d="M662.836,611.486c0,10.965-8.89,19.854-19.854,19.854c-10.965,0-19.854-8.889-19.854-19.854s8.889-19.854,19.854-19.854
	C653.946,591.633,662.836,600.521,662.836,611.486"/>
<circle fill="none" stroke="#00F472" stroke-width="0.5" stroke-miterlimit="10" cx="642.982" cy="611.486" r="19.854"/>
<path d="M659.755,605.865c-2.058-1.031-3.019-3.485-2.151-5.664l9.135-22.964c0.916-2.302,3.524-3.425,5.824-2.509
	c2.3,0.915,3.426,3.522,2.51,5.824l-9.135,22.964c-0.916,2.302-3.523,3.425-5.825,2.51
	C659.99,605.978,659.87,605.924,659.755,605.865"/>
<path fill="none" stroke="#00F472" stroke-width="0.5" stroke-miterlimit="10" d="M659.755,605.865
	c-2.058-1.031-3.019-3.485-2.151-5.664l9.135-22.964c0.916-2.302,3.524-3.425,5.824-2.509c2.3,0.915,3.426,3.522,2.51,5.824
	l-9.135,22.964c-0.916,2.302-3.523,3.425-5.825,2.51C659.99,605.978,659.87,605.924,659.755,605.865z"/>
<path d="M414.882,585.764c0,6.648-5.39,12.039-12.038,12.039c-6.649,0-12.039-5.391-12.039-12.039
	c0-6.647,5.39-12.038,12.039-12.038C409.492,573.726,414.882,579.116,414.882,585.764"/>
<circle fill="none" stroke="#00F472" stroke-width="0.5" stroke-miterlimit="10" cx="402.843" cy="585.764" r="12.039"/>
<path d="M371.782,581.311c2.28-0.315,4.462,1.161,4.983,3.446l5.494,24.097c0.55,2.415-0.961,4.819-3.375,5.37
	c-2.413,0.549-4.819-0.961-5.37-3.376l-5.493-24.097c-0.55-2.414,0.96-4.819,3.375-5.369
	C371.524,581.353,371.653,581.329,371.782,581.311"/>
<path fill="none" stroke="#00F472" stroke-width="0.5" stroke-miterlimit="10" d="M371.782,581.311
	c2.28-0.315,4.462,1.161,4.983,3.446l5.494,24.097c0.55,2.415-0.961,4.819-3.375,5.37c-2.413,0.549-4.819-0.961-5.37-3.376
	l-5.493-24.097c-0.55-2.414,0.96-4.819,3.375-5.369C371.524,581.353,371.653,581.329,371.782,581.311z"/>
<path d="M380.991,667.82c-2.243-0.357-3.897-2.36-3.769-4.677l1.2-21.708c0.136-2.473,2.252-4.367,4.725-4.229
	c2.47,0.138,4.367,2.252,4.23,4.725l-1.199,21.708c-0.136,2.474-2.253,4.367-4.725,4.23
	C381.296,667.86,381.142,667.844,380.991,667.82"/>
<path fill="none" stroke="#00F472" stroke-width="0.5" stroke-miterlimit="10" d="M380.991,667.82
	c-2.243-0.357-3.897-2.36-3.769-4.677l1.2-21.708c0.136-2.473,2.252-4.367,4.725-4.229c2.47,0.138,4.367,2.252,4.23,4.725
	l-1.199,21.708c-0.136,2.474-2.253,4.367-4.725,4.23C381.296,667.86,381.142,667.844,380.991,667.82z"/>
<path d="M411.721,669.761c-2.271,0-4.218-1.719-4.456-4.026l-2.224-21.627c-0.253-2.464,1.539-4.667,4.003-4.92
	c2.461-0.252,4.666,1.539,4.919,4.002l2.225,21.628c0.253,2.463-1.539,4.666-4.003,4.92
	C412.03,669.753,411.875,669.761,411.721,669.761"/>
<path fill="none" stroke="#00F472" stroke-width="0.5" stroke-miterlimit="10" d="M411.721,669.761
	c-2.271,0-4.218-1.719-4.456-4.026l-2.224-21.627c-0.253-2.464,1.539-4.667,4.003-4.92c2.461-0.252,4.666,1.539,4.919,4.002
	l2.225,21.628c0.253,2.463-1.539,4.666-4.003,4.92C412.03,669.753,411.875,669.761,411.721,669.761z"/>
<path d="M418.651,620.843c0,10.965-8.889,19.854-19.854,19.854c-10.965,0-19.854-8.889-19.854-19.854
	c0-10.966,8.889-19.854,19.854-19.854C409.762,600.989,418.651,609.877,418.651,620.843"/>
<circle fill="none" stroke="#00F472" stroke-width="0.5" stroke-miterlimit="10" cx="398.797" cy="620.843" r="19.854"/>
<path d="M415.57,615.223c-2.058-1.032-3.019-3.485-2.151-5.664l9.135-22.965c0.916-2.301,3.524-3.426,5.825-2.51
	c2.299,0.916,3.425,3.523,2.51,5.825l-9.136,22.965c-0.916,2.3-3.523,3.425-5.825,2.509
	C415.806,615.334,415.685,615.281,415.57,615.223"/>
<path fill="none" stroke="#00F472" stroke-width="0.5" stroke-miterlimit="10" d="M415.57,615.223
	c-2.058-1.032-3.019-3.485-2.151-5.664l9.135-22.965c0.916-2.301,3.524-3.426,5.825-2.51c2.299,0.916,3.425,3.523,2.51,5.825
	l-9.136,22.965c-0.916,2.3-3.523,3.425-5.825,2.509C415.806,615.334,415.685,615.281,415.57,615.223z"/>
<path d="M489.518,602.438c0,6.648-5.39,12.038-12.038,12.038c-6.649,0-12.039-5.39-12.039-12.038s5.39-12.038,12.039-12.038
	C484.128,590.399,489.518,595.789,489.518,602.438"/>
<circle fill="none" stroke="#00F472" stroke-width="0.5" stroke-miterlimit="10" cx="477.479" cy="602.438" r="12.038"/>
<path d="M446.418,597.984c2.28-0.315,4.462,1.16,4.983,3.446l5.494,24.097c0.55,2.415-0.961,4.819-3.375,5.369
	c-2.413,0.55-4.819-0.96-5.37-3.375l-5.493-24.097c-0.55-2.415,0.961-4.819,3.375-5.369
	C446.16,598.025,446.29,598.002,446.418,597.984"/>
<path fill="none" stroke="#00F472" stroke-width="0.5" stroke-miterlimit="10" d="M446.418,597.984
	c2.28-0.315,4.462,1.16,4.983,3.446l5.494,24.097c0.55,2.415-0.961,4.819-3.375,5.369c-2.413,0.55-4.819-0.96-5.37-3.375
	l-5.493-24.097c-0.55-2.415,0.961-4.819,3.375-5.369C446.16,598.025,446.29,598.002,446.418,597.984z"/>
<path d="M455.626,684.493c-2.243-0.356-3.896-2.359-3.769-4.677l1.2-21.707c0.136-2.473,2.252-4.367,4.725-4.23
	c2.47,0.138,4.367,2.252,4.23,4.725l-1.2,21.709c-0.136,2.473-2.252,4.367-4.725,4.23
	C455.932,684.533,455.777,684.518,455.626,684.493"/>
<path fill="none" stroke="#00F472" stroke-width="0.5" stroke-miterlimit="10" d="M455.626,684.493
	c-2.243-0.356-3.896-2.359-3.769-4.677l1.2-21.707c0.136-2.473,2.252-4.367,4.725-4.23c2.47,0.138,4.367,2.252,4.23,4.725
	l-1.2,21.709c-0.136,2.473-2.252,4.367-4.725,4.23C455.932,684.533,455.777,684.518,455.626,684.493z"/>
<path d="M486.357,686.434c-2.271,0-4.218-1.718-4.456-4.026l-2.224-21.626c-0.253-2.465,1.539-4.667,4.003-4.92
	c2.46-0.252,4.666,1.538,4.919,4.002l2.224,21.627c0.253,2.464-1.539,4.666-4.003,4.92
	C486.666,686.426,486.511,686.434,486.357,686.434"/>
<path fill="none" stroke="#00F472" stroke-width="0.5" stroke-miterlimit="10" d="M486.357,686.434
	c-2.271,0-4.218-1.718-4.456-4.026l-2.224-21.626c-0.253-2.465,1.539-4.667,4.003-4.92c2.46-0.252,4.666,1.538,4.919,4.002
	l2.224,21.627c0.253,2.464-1.539,4.666-4.003,4.92C486.666,686.426,486.511,686.434,486.357,686.434z"/>
<path d="M493.287,637.516c0,10.966-8.889,19.854-19.854,19.854c-10.965,0-19.854-8.888-19.854-19.854
	c0-10.965,8.888-19.854,19.854-19.854C484.397,617.662,493.287,626.551,493.287,637.516"/>
<circle fill="none" stroke="#00F472" stroke-width="0.5" stroke-miterlimit="10" cx="473.433" cy="637.516" r="19.854"/>
<path d="M490.206,631.896c-2.058-1.031-3.018-3.485-2.151-5.663l9.135-22.966c0.916-2.3,3.523-3.425,5.825-2.509
	c2.299,0.916,3.425,3.522,2.51,5.824l-9.136,22.965c-0.916,2.301-3.523,3.425-5.824,2.509
	C490.441,632.008,490.321,631.953,490.206,631.896"/>
<path fill="none" stroke="#00F472" stroke-width="0.5" stroke-miterlimit="10" d="M490.206,631.896
	c-2.058-1.031-3.018-3.485-2.151-5.663l9.135-22.966c0.916-2.3,3.523-3.425,5.825-2.509c2.299,0.916,3.425,3.522,2.51,5.824
	l-9.136,22.965c-0.916,2.301-3.523,3.425-5.824,2.509C490.441,632.008,490.321,631.953,490.206,631.896z"/>
<path d="M556.318,604.718c0,6.648-5.39,12.038-12.037,12.038c-6.649,0-12.039-5.39-12.039-12.038s5.39-12.039,12.039-12.039
	C550.929,592.679,556.318,598.069,556.318,604.718"/>
<circle fill="none" stroke="#00F472" stroke-width="0.5" stroke-miterlimit="10" cx="544.28" cy="604.718" r="12.038"/>
<path d="M513.219,600.265c2.28-0.316,4.463,1.16,4.983,3.446l5.494,24.097c0.551,2.414-0.962,4.819-3.375,5.369
	c-2.414,0.55-4.819-0.961-5.37-3.375l-5.494-24.097c-0.55-2.415,0.961-4.819,3.376-5.369
	C512.962,600.306,513.091,600.282,513.219,600.265"/>
<path fill="none" stroke="#00F472" stroke-width="0.5" stroke-miterlimit="10" d="M513.219,600.265
	c2.28-0.316,4.463,1.16,4.983,3.446l5.494,24.097c0.551,2.414-0.962,4.819-3.375,5.369c-2.414,0.55-4.819-0.961-5.37-3.375
	l-5.494-24.097c-0.55-2.415,0.961-4.819,3.376-5.369C512.962,600.306,513.091,600.282,513.219,600.265z"/>
<path d="M522.428,686.773c-2.243-0.356-3.896-2.359-3.769-4.677l1.2-21.708c0.136-2.473,2.252-4.367,4.725-4.229
	c2.47,0.138,4.368,2.252,4.23,4.725l-1.2,21.709c-0.136,2.473-2.252,4.367-4.725,4.229
	C522.733,686.813,522.579,686.797,522.428,686.773"/>
<path fill="none" stroke="#00F472" stroke-width="0.5" stroke-miterlimit="10" d="M522.428,686.773
	c-2.243-0.356-3.896-2.359-3.769-4.677l1.2-21.708c0.136-2.473,2.252-4.367,4.725-4.229c2.47,0.138,4.368,2.252,4.23,4.725
	l-1.2,21.709c-0.136,2.473-2.252,4.367-4.725,4.229C522.733,686.813,522.579,686.797,522.428,686.773z"/>
<path d="M553.158,688.714c-2.271,0-4.218-1.718-4.455-4.026l-2.225-21.626c-0.253-2.465,1.539-4.668,4.003-4.921
	c2.46-0.252,4.666,1.539,4.919,4.003l2.226,21.627c0.252,2.464-1.539,4.666-4.004,4.92
	C553.467,688.707,553.312,688.714,553.158,688.714"/>
<path fill="none" stroke="#00F472" stroke-width="0.5" stroke-miterlimit="10" d="M553.158,688.714
	c-2.271,0-4.218-1.718-4.455-4.026l-2.225-21.626c-0.253-2.465,1.539-4.668,4.003-4.921c2.46-0.252,4.666,1.539,4.919,4.003
	l2.226,21.627c0.252,2.464-1.539,4.666-4.004,4.92C553.467,688.707,553.312,688.714,553.158,688.714z"/>
<path d="M560.088,639.797c0,10.965-8.889,19.854-19.854,19.854s-19.854-8.889-19.854-19.854c0-10.966,8.889-19.854,19.854-19.854
	S560.088,628.831,560.088,639.797"/>
<circle fill="none" stroke="#00F472" stroke-width="0.5" stroke-miterlimit="10" cx="540.234" cy="639.797" r="19.854"/>
<path d="M557.007,634.176c-2.058-1.032-3.019-3.485-2.15-5.664l9.135-22.965c0.916-2.301,3.523-3.424,5.824-2.51
	c2.3,0.916,3.425,3.523,2.511,5.825l-9.137,22.965c-0.915,2.301-3.523,3.425-5.824,2.509
	C557.243,634.287,557.123,634.233,557.007,634.176"/>
<path fill="none" stroke="#00F472" stroke-width="0.5" stroke-miterlimit="10" d="M557.007,634.176
	c-2.058-1.032-3.019-3.485-2.15-5.664l9.135-22.965c0.916-2.301,3.523-3.424,5.824-2.51c2.3,0.916,3.425,3.523,2.511,5.825
	l-9.137,22.965c-0.915,2.301-3.523,3.425-5.824,2.509C557.243,634.287,557.123,634.233,557.007,634.176z"/>
<path d="M626.656,611.691c0,6.647-5.389,12.037-12.037,12.037c-6.649,0-12.039-5.39-12.039-12.037
	c0-6.648,5.39-12.038,12.039-12.038C621.268,599.653,626.656,605.043,626.656,611.691"/>
<circle fill="none" stroke="#00F472" stroke-width="0.5" stroke-miterlimit="10" cx="614.618" cy="611.691" r="12.038"/>
<path d="M583.557,607.238c2.281-0.316,4.463,1.16,4.984,3.445l5.494,24.098c0.55,2.415-0.962,4.819-3.376,5.369
	c-2.414,0.549-4.819-0.96-5.37-3.375l-5.493-24.097c-0.551-2.415,0.96-4.819,3.375-5.37
	C583.3,607.279,583.43,607.256,583.557,607.238"/>
<path fill="none" stroke="#00F472" stroke-width="0.5" stroke-miterlimit="10" d="M583.557,607.238
	c2.281-0.316,4.463,1.16,4.984,3.445l5.494,24.098c0.55,2.415-0.962,4.819-3.376,5.369c-2.414,0.549-4.819-0.96-5.37-3.375
	l-5.493-24.097c-0.551-2.415,0.96-4.819,3.375-5.37C583.3,607.279,583.43,607.256,583.557,607.238z"/>
<path d="M592.766,693.747c-2.242-0.356-3.896-2.359-3.768-4.677l1.199-21.707c0.137-2.473,2.253-4.367,4.726-4.23
	c2.47,0.138,4.366,2.252,4.229,4.725l-1.199,21.709c-0.137,2.473-2.253,4.367-4.726,4.23
	C593.071,693.787,592.917,693.771,592.766,693.747"/>
<path fill="none" stroke="#00F472" stroke-width="0.5" stroke-miterlimit="10" d="M592.766,693.747
	c-2.242-0.356-3.896-2.359-3.768-4.677l1.199-21.707c0.137-2.473,2.253-4.367,4.726-4.23c2.47,0.138,4.366,2.252,4.229,4.725
	l-1.199,21.709c-0.137,2.473-2.253,4.367-4.726,4.23C593.071,693.787,592.917,693.771,592.766,693.747z"/>
<path d="M623.497,695.688c-2.271,0-4.218-1.718-4.456-4.026l-2.225-21.627c-0.253-2.464,1.539-4.667,4.003-4.92
	c2.461-0.251,4.666,1.538,4.92,4.002l2.225,21.628c0.253,2.463-1.539,4.666-4.004,4.92
	C623.806,695.68,623.649,695.688,623.497,695.688"/>
<path fill="none" stroke="#00F472" stroke-width="0.5" stroke-miterlimit="10" d="M623.497,695.688
	c-2.271,0-4.218-1.718-4.456-4.026l-2.225-21.627c-0.253-2.464,1.539-4.667,4.003-4.92c2.461-0.251,4.666,1.538,4.92,4.002
	l2.225,21.628c0.253,2.463-1.539,4.666-4.004,4.92C623.806,695.68,623.649,695.688,623.497,695.688z"/>
<path d="M630.427,646.77c0,10.966-8.89,19.854-19.854,19.854c-10.966,0-19.854-8.888-19.854-19.854
	c0-10.965,8.888-19.854,19.854-19.854C621.537,626.916,630.427,635.805,630.427,646.77"/>
<circle fill="none" stroke="#00F472" stroke-width="0.5" stroke-miterlimit="10" cx="610.573" cy="646.77" r="19.854"/>
<path d="M627.346,641.149c-2.059-1.032-3.02-3.485-2.151-5.665l9.136-22.964c0.915-2.301,3.523-3.425,5.823-2.509
	s3.426,3.522,2.51,5.824l-9.136,22.965c-0.916,2.301-3.522,3.425-5.824,2.509C627.58,641.262,627.461,641.207,627.346,641.149"/>
<path fill="none" stroke="#00F472" stroke-width="0.5" stroke-miterlimit="10" d="M627.346,641.149
	c-2.059-1.032-3.02-3.485-2.151-5.665l9.136-22.964c0.915-2.301,3.523-3.425,5.823-2.509s3.426,3.522,2.51,5.824l-9.136,22.965
	c-0.916,2.301-3.522,3.425-5.824,2.509C627.58,641.262,627.461,641.207,627.346,641.149z"/>
<path d="M383.232,610.486c0,6.647-5.39,12.037-12.038,12.037c-6.649,0-12.039-5.39-12.039-12.037c0-6.648,5.39-12.038,12.039-12.038
	C377.842,598.448,383.232,603.838,383.232,610.486"/>
<circle fill="none" stroke="#00F472" stroke-width="0.5" stroke-miterlimit="10" cx="371.193" cy="610.486" r="12.039"/>
<path d="M340.132,606.033c2.28-0.316,4.462,1.161,4.983,3.446l5.494,24.097c0.55,2.415-0.961,4.819-3.375,5.369
	c-2.414,0.55-4.82-0.96-5.37-3.375l-5.493-24.097c-0.55-2.416,0.96-4.819,3.375-5.37
	C339.875,606.074,340.004,606.051,340.132,606.033"/>
<path fill="none" stroke="#00F472" stroke-width="0.5" stroke-miterlimit="10" d="M340.132,606.033
	c2.28-0.316,4.462,1.161,4.983,3.446l5.494,24.097c0.55,2.415-0.961,4.819-3.375,5.369c-2.414,0.55-4.82-0.96-5.37-3.375
	l-5.493-24.097c-0.55-2.416,0.96-4.819,3.375-5.37C339.875,606.074,340.004,606.051,340.132,606.033z"/>
<path d="M349.341,692.542c-2.243-0.356-3.896-2.359-3.769-4.676l1.2-21.708c0.136-2.473,2.252-4.367,4.725-4.23
	c2.469,0.139,4.367,2.253,4.23,4.725l-1.2,21.709c-0.136,2.473-2.252,4.367-4.725,4.23
	C349.646,692.582,349.492,692.566,349.341,692.542"/>
<path fill="none" stroke="#00F472" stroke-width="0.5" stroke-miterlimit="10" d="M349.341,692.542
	c-2.243-0.356-3.896-2.359-3.769-4.676l1.2-21.708c0.136-2.473,2.252-4.367,4.725-4.23c2.469,0.139,4.367,2.253,4.23,4.725
	l-1.2,21.709c-0.136,2.473-2.252,4.367-4.725,4.23C349.646,692.582,349.492,692.566,349.341,692.542z"/>
<path d="M380.072,694.482c-2.271,0-4.218-1.718-4.456-4.026l-2.224-21.627c-0.253-2.464,1.539-4.667,4.003-4.92
	c2.46-0.251,4.666,1.538,4.919,4.002l2.225,21.628c0.253,2.463-1.539,4.666-4.003,4.92
	C380.38,694.475,380.225,694.482,380.072,694.482"/>
<path fill="none" stroke="#00F472" stroke-width="0.5" stroke-miterlimit="10" d="M380.072,694.482
	c-2.271,0-4.218-1.718-4.456-4.026l-2.224-21.627c-0.253-2.464,1.539-4.667,4.003-4.92c2.46-0.251,4.666,1.538,4.919,4.002
	l2.225,21.628c0.253,2.463-1.539,4.666-4.003,4.92C380.38,694.475,380.225,694.482,380.072,694.482z"/>
<path d="M387.001,645.564c0,10.966-8.89,19.854-19.854,19.854c-10.965,0-19.854-8.888-19.854-19.854
	c0-10.965,8.888-19.854,19.854-19.854C378.112,625.711,387.001,634.6,387.001,645.564"/>
<circle fill="none" stroke="#00F472" stroke-width="0.5" stroke-miterlimit="10" cx="367.148" cy="645.564" r="19.854"/>
<path d="M383.92,639.945c-2.058-1.033-3.019-3.486-2.151-5.665l9.135-22.965c0.916-2.301,3.524-3.425,5.825-2.509
	c2.299,0.916,3.424,3.522,2.51,5.824l-9.136,22.965c-0.916,2.301-3.523,3.425-5.825,2.51
	C384.156,640.057,384.036,640.002,383.92,639.945"/>
<path fill="none" stroke="#00F472" stroke-width="0.5" stroke-miterlimit="10" d="M383.92,639.945
	c-2.058-1.033-3.019-3.486-2.151-5.665l9.135-22.965c0.916-2.301,3.524-3.425,5.825-2.509c2.299,0.916,3.424,3.522,2.51,5.824
	l-9.136,22.965c-0.916,2.301-3.523,3.425-5.825,2.51C384.156,640.057,384.036,640.002,383.92,639.945z"/>
<path d="M446.006,622.533c0,6.648-5.39,12.039-12.038,12.039c-6.649,0-12.039-5.391-12.039-12.039s5.39-12.038,12.039-12.038
	C440.616,610.495,446.006,615.885,446.006,622.533"/>
<circle fill="none" stroke="#00F472" stroke-width="0.5" stroke-miterlimit="10" cx="433.968" cy="622.533" r="12.039"/>
<path d="M402.906,618.081c2.28-0.316,4.462,1.16,4.983,3.446l5.494,24.097c0.55,2.415-0.961,4.819-3.375,5.369
	c-2.413,0.55-4.819-0.961-5.37-3.375l-5.493-24.097c-0.55-2.415,0.96-4.819,3.375-5.37
	C402.649,618.122,402.778,618.099,402.906,618.081"/>
<path fill="none" stroke="#00F472" stroke-width="0.5" stroke-miterlimit="10" d="M402.906,618.081
	c2.28-0.316,4.462,1.16,4.983,3.446l5.494,24.097c0.55,2.415-0.961,4.819-3.375,5.369c-2.413,0.55-4.819-0.961-5.37-3.375
	l-5.493-24.097c-0.55-2.415,0.96-4.819,3.375-5.37C402.649,618.122,402.778,618.099,402.906,618.081z"/>
<path d="M412.115,704.59c-2.243-0.356-3.896-2.359-3.769-4.676l1.2-21.709c0.136-2.473,2.252-4.367,4.725-4.229
	c2.47,0.138,4.367,2.252,4.23,4.725l-1.2,21.708c-0.136,2.474-2.252,4.367-4.725,4.23C412.42,704.63,412.266,704.614,412.115,704.59
	"/>
<path fill="none" stroke="#00F472" stroke-width="0.5" stroke-miterlimit="10" d="M412.115,704.59
	c-2.243-0.356-3.896-2.359-3.769-4.676l1.2-21.709c0.136-2.473,2.252-4.367,4.725-4.229c2.47,0.138,4.367,2.252,4.23,4.725
	l-1.2,21.708c-0.136,2.474-2.252,4.367-4.725,4.23C412.42,704.63,412.266,704.614,412.115,704.59z"/>
<path d="M442.846,706.53c-2.271,0-4.218-1.718-4.456-4.026l-2.224-21.627c-0.253-2.464,1.539-4.667,4.003-4.92
	c2.461-0.252,4.666,1.539,4.92,4.002l2.224,21.628c0.253,2.463-1.539,4.666-4.003,4.92
	C443.154,706.522,442.999,706.53,442.846,706.53"/>
<path fill="none" stroke="#00F472" stroke-width="0.5" stroke-miterlimit="10" d="M442.846,706.53c-2.271,0-4.218-1.718-4.456-4.026
	l-2.224-21.627c-0.253-2.464,1.539-4.667,4.003-4.92c2.461-0.252,4.666,1.539,4.92,4.002l2.224,21.628
	c0.253,2.463-1.539,4.666-4.003,4.92C443.154,706.522,442.999,706.53,442.846,706.53z"/>
<path d="M449.775,657.613c0,10.965-8.889,19.854-19.854,19.854c-10.965,0-19.854-8.889-19.854-19.854
	c0-10.966,8.888-19.854,19.854-19.854C440.887,637.76,449.775,646.647,449.775,657.613"/>
<circle fill="none" stroke="#00F472" stroke-width="0.5" stroke-miterlimit="10" cx="429.922" cy="657.613" r="19.854"/>
<path d="M446.694,651.992c-2.058-1.032-3.019-3.485-2.151-5.664l9.136-22.964c0.916-2.302,3.523-3.426,5.824-2.51
	c2.299,0.915,3.425,3.523,2.51,5.824l-9.136,22.965c-0.916,2.301-3.523,3.425-5.825,2.509
	C446.93,652.104,446.811,652.051,446.694,651.992"/>
<path fill="none" stroke="#00F472" stroke-width="0.5" stroke-miterlimit="10" d="M446.694,651.992
	c-2.058-1.032-3.019-3.485-2.151-5.664l9.136-22.964c0.916-2.302,3.523-3.426,5.824-2.51c2.299,0.915,3.425,3.523,2.51,5.824
	l-9.136,22.965c-0.916,2.301-3.523,3.425-5.825,2.509C446.93,652.104,446.811,652.051,446.694,651.992z"/>
<path d="M524.669,637.989c0,6.648-5.39,12.038-12.038,12.038s-12.039-5.39-12.039-12.038s5.39-12.038,12.039-12.038
	S524.669,631.341,524.669,637.989"/>
<circle fill="none" stroke="#00F472" stroke-width="0.5" stroke-miterlimit="10" cx="512.631" cy="637.989" r="12.038"/>
<path d="M481.569,633.536c2.28-0.316,4.462,1.161,4.983,3.446l5.494,24.097c0.55,2.415-0.961,4.819-3.375,5.37
	c-2.414,0.549-4.819-0.961-5.37-3.376l-5.493-24.097c-0.55-2.415,0.96-4.819,3.375-5.369
	C481.312,633.578,481.441,633.554,481.569,633.536"/>
<path fill="none" stroke="#00F472" stroke-width="0.5" stroke-miterlimit="10" d="M481.569,633.536
	c2.28-0.316,4.462,1.161,4.983,3.446l5.494,24.097c0.55,2.415-0.961,4.819-3.375,5.37c-2.414,0.549-4.819-0.961-5.37-3.376
	l-5.493-24.097c-0.55-2.415,0.96-4.819,3.375-5.369C481.312,633.578,481.441,633.554,481.569,633.536z"/>
<path d="M490.778,720.045c-2.243-0.355-3.896-2.359-3.769-4.676l1.2-21.708c0.136-2.473,2.252-4.366,4.725-4.23
	c2.47,0.139,4.367,2.253,4.23,4.726l-1.2,21.708c-0.136,2.473-2.252,4.367-4.725,4.23
	C491.083,720.086,490.929,720.07,490.778,720.045"/>
<path fill="none" stroke="#00F472" stroke-width="0.5" stroke-miterlimit="10" d="M490.778,720.045
	c-2.243-0.355-3.896-2.359-3.769-4.676l1.2-21.708c0.136-2.473,2.252-4.366,4.725-4.23c2.47,0.139,4.367,2.253,4.23,4.726
	l-1.2,21.708c-0.136,2.473-2.252,4.367-4.725,4.23C491.083,720.086,490.929,720.07,490.778,720.045z"/>
<path d="M521.509,721.986c-2.271,0-4.218-1.719-4.455-4.027l-2.226-21.626c-0.253-2.465,1.539-4.668,4.003-4.921
	c2.461-0.251,4.667,1.539,4.92,4.003l2.226,21.627c0.252,2.464-1.539,4.666-4.004,4.92
	C521.817,721.979,521.662,721.986,521.509,721.986"/>
<path fill="none" stroke="#00F472" stroke-width="0.5" stroke-miterlimit="10" d="M521.509,721.986
	c-2.271,0-4.218-1.719-4.455-4.027l-2.226-21.626c-0.253-2.465,1.539-4.668,4.003-4.921c2.461-0.251,4.667,1.539,4.92,4.003
	l2.226,21.627c0.252,2.464-1.539,4.666-4.004,4.92C521.817,721.979,521.662,721.986,521.509,721.986z"/>
<path d="M528.438,673.068c0,10.965-8.889,19.854-19.854,19.854c-10.965,0-19.854-8.889-19.854-19.854s8.888-19.854,19.854-19.854
	C519.55,653.215,528.438,662.104,528.438,673.068"/>
<circle fill="none" stroke="#00F472" stroke-width="0.5" stroke-miterlimit="10" cx="508.585" cy="673.068" r="19.854"/>
<path d="M525.357,667.447c-2.058-1.031-3.019-3.485-2.15-5.664l9.135-22.964c0.916-2.302,3.523-3.425,5.824-2.509
	c2.3,0.915,3.425,3.522,2.511,5.824l-9.137,22.964c-0.916,2.302-3.523,3.425-5.824,2.509
	C525.593,667.56,525.474,667.506,525.357,667.447"/>
<path fill="none" stroke="#00F472" stroke-width="0.5" stroke-miterlimit="10" d="M525.357,667.447
	c-2.058-1.031-3.019-3.485-2.15-5.664l9.135-22.964c0.916-2.302,3.523-3.425,5.824-2.509c2.3,0.915,3.425,3.522,2.511,5.824
	l-9.137,22.964c-0.916,2.302-3.523,3.425-5.824,2.509C525.593,667.56,525.474,667.506,525.357,667.447z"/>
<path d="M596.263,644.41c0,6.648-5.39,12.038-12.038,12.038s-12.039-5.39-12.039-12.038s5.391-12.038,12.039-12.038
	S596.263,637.762,596.263,644.41"/>
<circle fill="none" stroke="#00F472" stroke-width="0.5" stroke-miterlimit="10" cx="584.224" cy="644.41" r="12.039"/>
<path d="M553.163,639.957c2.28-0.315,4.462,1.161,4.983,3.446l5.494,24.097c0.55,2.415-0.961,4.819-3.376,5.369
	c-2.413,0.55-4.819-0.96-5.37-3.375l-5.493-24.097c-0.55-2.415,0.961-4.819,3.376-5.369
	C552.905,639.998,553.034,639.975,553.163,639.957"/>
<path fill="none" stroke="#00F472" stroke-width="0.5" stroke-miterlimit="10" d="M553.163,639.957
	c2.28-0.315,4.462,1.161,4.983,3.446l5.494,24.097c0.55,2.415-0.961,4.819-3.376,5.369c-2.413,0.55-4.819-0.96-5.37-3.375
	l-5.493-24.097c-0.55-2.415,0.961-4.819,3.376-5.369C552.905,639.998,553.034,639.975,553.163,639.957z"/>
<path d="M562.371,726.466c-2.242-0.356-3.896-2.359-3.769-4.677l1.2-21.707c0.137-2.473,2.252-4.367,4.726-4.23
	c2.47,0.139,4.366,2.252,4.229,4.726l-1.199,21.708c-0.136,2.473-2.252,4.367-4.725,4.23
	C562.677,726.506,562.522,726.49,562.371,726.466"/>
<path fill="none" stroke="#00F472" stroke-width="0.5" stroke-miterlimit="10" d="M562.371,726.466
	c-2.242-0.356-3.896-2.359-3.769-4.677l1.2-21.707c0.137-2.473,2.252-4.367,4.726-4.23c2.47,0.139,4.366,2.252,4.229,4.726
	l-1.199,21.708c-0.136,2.473-2.252,4.367-4.725,4.23C562.677,726.506,562.522,726.49,562.371,726.466z"/>
<path d="M593.103,728.407c-2.271,0-4.219-1.719-4.456-4.027l-2.225-21.626c-0.253-2.465,1.539-4.667,4.004-4.92
	c2.461-0.252,4.665,1.539,4.919,4.002l2.224,21.627c0.254,2.463-1.539,4.667-4.002,4.92
	C593.411,728.398,593.256,728.407,593.103,728.407"/>
<path fill="none" stroke="#00F472" stroke-width="0.5" stroke-miterlimit="10" d="M593.103,728.407
	c-2.271,0-4.219-1.719-4.456-4.027l-2.225-21.626c-0.253-2.465,1.539-4.667,4.004-4.92c2.461-0.252,4.665,1.539,4.919,4.002
	l2.224,21.627c0.254,2.463-1.539,4.667-4.002,4.92C593.411,728.398,593.256,728.407,593.103,728.407z"/>
<path d="M600.032,679.488c0,10.966-8.89,19.854-19.854,19.854c-10.966,0-19.854-8.888-19.854-19.854
	c0-10.965,8.888-19.854,19.854-19.854C591.143,659.635,600.032,668.523,600.032,679.488"/>
<circle fill="none" stroke="#00F472" stroke-width="0.5" stroke-miterlimit="10" cx="580.179" cy="679.488" r="19.854"/>
<path d="M596.951,673.868c-2.059-1.031-3.019-3.485-2.152-5.663l9.136-22.966c0.916-2.3,3.523-3.425,5.825-2.509
	c2.299,0.916,3.425,3.522,2.51,5.824l-9.137,22.965c-0.916,2.301-3.521,3.425-5.824,2.51
	C597.187,673.98,597.066,673.927,596.951,673.868"/>
<path fill="none" stroke="#00F472" stroke-width="0.5" stroke-miterlimit="10" d="M596.951,673.868
	c-2.059-1.031-3.019-3.485-2.152-5.663l9.136-22.966c0.916-2.3,3.523-3.425,5.825-2.509c2.299,0.916,3.425,3.522,2.51,5.824
	l-9.137,22.965c-0.916,2.301-3.521,3.425-5.824,2.51C597.187,673.98,597.066,673.927,596.951,673.868z"/>
<path d="M349.076,633.781c0,6.648-5.39,12.039-12.038,12.039c-6.649,0-12.039-5.391-12.039-12.039s5.39-12.038,12.039-12.038
	C343.687,621.743,349.076,627.133,349.076,633.781"/>
<circle fill="none" stroke="#00F472" stroke-width="0.5" stroke-miterlimit="10" cx="337.038" cy="633.781" r="12.039"/>
<path d="M305.976,629.328c2.28-0.315,4.462,1.161,4.983,3.446l5.494,24.097c0.55,2.415-0.961,4.819-3.375,5.37
	c-2.414,0.549-4.819-0.961-5.37-3.376l-5.493-24.097c-0.55-2.414,0.96-4.819,3.375-5.369
	C305.719,629.369,305.848,629.347,305.976,629.328"/>
<path fill="none" stroke="#00F472" stroke-width="0.5" stroke-miterlimit="10" d="M305.976,629.328
	c2.28-0.315,4.462,1.161,4.983,3.446l5.494,24.097c0.55,2.415-0.961,4.819-3.375,5.37c-2.414,0.549-4.819-0.961-5.37-3.376
	l-5.493-24.097c-0.55-2.414,0.96-4.819,3.375-5.369C305.719,629.369,305.848,629.347,305.976,629.328z"/>
<path d="M315.185,715.837c-2.242-0.356-3.896-2.359-3.768-4.676l1.2-21.708c0.136-2.473,2.252-4.367,4.725-4.23
	c2.47,0.139,4.367,2.253,4.23,4.726l-1.2,21.708c-0.136,2.473-2.252,4.367-4.725,4.23
	C315.49,715.878,315.336,715.861,315.185,715.837"/>
<path fill="none" stroke="#00F472" stroke-width="0.5" stroke-miterlimit="10" d="M315.185,715.837
	c-2.242-0.356-3.896-2.359-3.768-4.676l1.2-21.708c0.136-2.473,2.252-4.367,4.725-4.23c2.47,0.139,4.367,2.253,4.23,4.726
	l-1.2,21.708c-0.136,2.473-2.252,4.367-4.725,4.23C315.49,715.878,315.336,715.861,315.185,715.837z"/>
<path d="M345.916,717.778c-2.271,0-4.218-1.719-4.456-4.027l-2.224-21.626c-0.253-2.464,1.539-4.667,4.003-4.92
	c2.461-0.252,4.666,1.539,4.92,4.002l2.224,21.627c0.253,2.464-1.539,4.667-4.003,4.921
	C346.224,717.771,346.069,717.778,345.916,717.778"/>
<path fill="none" stroke="#00F472" stroke-width="0.5" stroke-miterlimit="10" d="M345.916,717.778
	c-2.271,0-4.218-1.719-4.456-4.027l-2.224-21.626c-0.253-2.464,1.539-4.667,4.003-4.92c2.461-0.252,4.666,1.539,4.92,4.002
	l2.224,21.627c0.253,2.464-1.539,4.667-4.003,4.921C346.224,717.771,346.069,717.778,345.916,717.778z"/>
<path d="M352.845,668.86c0,10.965-8.889,19.854-19.854,19.854c-10.965,0-19.854-8.889-19.854-19.854
	c0-10.966,8.888-19.854,19.854-19.854C343.956,649.007,352.845,657.895,352.845,668.86"/>
<circle fill="none" stroke="#00F472" stroke-width="0.5" stroke-miterlimit="10" cx="332.992" cy="668.86" r="19.854"/>
<path d="M349.764,663.24c-2.058-1.032-3.018-3.485-2.151-5.664l9.136-22.965c0.916-2.301,3.523-3.426,5.824-2.51
	c2.299,0.916,3.425,3.523,2.51,5.825l-9.136,22.965c-0.915,2.3-3.522,3.425-5.824,2.509C350,663.352,349.88,663.298,349.764,663.24"
	/>
<path fill="none" stroke="#00F472" stroke-width="0.5" stroke-miterlimit="10" d="M349.764,663.24
	c-2.058-1.032-3.018-3.485-2.151-5.664l9.136-22.965c0.916-2.301,3.523-3.426,5.824-2.51c2.299,0.916,3.425,3.523,2.51,5.825
	l-9.136,22.965c-0.915,2.3-3.522,3.425-5.824,2.509C350,663.352,349.88,663.298,349.764,663.24z"/>
<path d="M412.396,644.41c0,6.648-5.39,12.038-12.038,12.038c-6.649,0-12.039-5.39-12.039-12.038s5.39-12.038,12.039-12.038
	C407.007,632.372,412.396,637.762,412.396,644.41"/>
<circle fill="none" stroke="#00F472" stroke-width="0.5" stroke-miterlimit="10" cx="400.358" cy="644.41" r="12.038"/>
<path d="M369.297,639.957c2.28-0.315,4.462,1.161,4.983,3.446l5.494,24.097c0.55,2.415-0.961,4.819-3.375,5.369
	c-2.414,0.55-4.819-0.96-5.37-3.375l-5.493-24.097c-0.55-2.415,0.96-4.819,3.375-5.369
	C369.04,639.998,369.168,639.975,369.297,639.957"/>
<path fill="none" stroke="#00F472" stroke-width="0.5" stroke-miterlimit="10" d="M369.297,639.957
	c2.28-0.315,4.462,1.161,4.983,3.446l5.494,24.097c0.55,2.415-0.961,4.819-3.375,5.369c-2.414,0.55-4.819-0.96-5.37-3.375
	l-5.493-24.097c-0.55-2.415,0.96-4.819,3.375-5.369C369.04,639.998,369.168,639.975,369.297,639.957z"/>
<path d="M378.505,726.466c-2.242-0.356-3.897-2.359-3.769-4.677l1.2-21.707c0.136-2.473,2.252-4.367,4.725-4.23
	c2.47,0.139,4.367,2.252,4.23,4.726l-1.2,21.708c-0.136,2.473-2.252,4.367-4.725,4.23
	C378.811,726.506,378.657,726.49,378.505,726.466"/>
<path fill="none" stroke="#00F472" stroke-width="0.5" stroke-miterlimit="10" d="M378.505,726.466
	c-2.242-0.356-3.897-2.359-3.769-4.677l1.2-21.707c0.136-2.473,2.252-4.367,4.725-4.23c2.47,0.139,4.367,2.252,4.23,4.726
	l-1.2,21.708c-0.136,2.473-2.252,4.367-4.725,4.23C378.811,726.506,378.657,726.49,378.505,726.466z"/>
<path d="M409.236,728.407c-2.271,0-4.218-1.719-4.456-4.027l-2.224-21.626c-0.253-2.465,1.539-4.667,4.003-4.92
	c2.46-0.252,4.666,1.539,4.919,4.002l2.224,21.627c0.253,2.463-1.539,4.667-4.002,4.92
	C409.545,728.398,409.39,728.407,409.236,728.407"/>
<path fill="none" stroke="#00F472" stroke-width="0.5" stroke-miterlimit="10" d="M409.236,728.407
	c-2.271,0-4.218-1.719-4.456-4.027l-2.224-21.626c-0.253-2.465,1.539-4.667,4.003-4.92c2.46-0.252,4.666,1.539,4.919,4.002
	l2.224,21.627c0.253,2.463-1.539,4.667-4.002,4.92C409.545,728.398,409.39,728.407,409.236,728.407z"/>
<path d="M416.166,679.488c0,10.966-8.889,19.854-19.854,19.854c-10.965,0-19.854-8.888-19.854-19.854
	c0-10.965,8.888-19.854,19.854-19.854C407.277,659.635,416.166,668.523,416.166,679.488"/>
<circle fill="none" stroke="#00F472" stroke-width="0.5" stroke-miterlimit="10" cx="396.312" cy="679.488" r="19.854"/>
<path d="M413.085,673.868c-2.058-1.031-3.019-3.485-2.151-5.663l9.135-22.966c0.916-2.3,3.523-3.425,5.825-2.509
	c2.299,0.916,3.425,3.522,2.51,5.824l-9.136,22.965c-0.915,2.301-3.522,3.425-5.824,2.51
	C413.321,673.98,413.2,673.927,413.085,673.868"/>
<path fill="none" stroke="#00F472" stroke-width="0.5" stroke-miterlimit="10" d="M413.085,673.868
	c-2.058-1.031-3.019-3.485-2.151-5.663l9.135-22.966c0.916-2.3,3.523-3.425,5.825-2.509c2.299,0.916,3.425,3.522,2.51,5.824
	l-9.136,22.965c-0.915,2.301-3.522,3.425-5.824,2.51C413.321,673.98,413.2,673.927,413.085,673.868z"/>
<path d="M485.749,657.823c0,6.648-5.39,12.039-12.039,12.039c-6.649,0-12.039-5.391-12.039-12.039
	c0-6.647,5.39-12.038,12.039-12.038C480.358,645.785,485.749,651.176,485.749,657.823"/>
<circle fill="none" stroke="#00F472" stroke-width="0.5" stroke-miterlimit="10" cx="473.71" cy="657.823" r="12.039"/>
<path d="M442.648,653.371c2.281-0.316,4.462,1.161,4.983,3.446l5.494,24.097c0.55,2.415-0.961,4.819-3.375,5.37
	c-2.414,0.549-4.819-0.962-5.37-3.376l-5.493-24.097c-0.55-2.415,0.96-4.819,3.375-5.37
	C442.391,653.412,442.52,653.389,442.648,653.371"/>
<path fill="none" stroke="#00F472" stroke-width="0.5" stroke-miterlimit="10" d="M442.648,653.371
	c2.281-0.316,4.462,1.161,4.983,3.446l5.494,24.097c0.55,2.415-0.961,4.819-3.375,5.37c-2.414,0.549-4.819-0.962-5.37-3.376
	l-5.493-24.097c-0.55-2.415,0.96-4.819,3.375-5.37C442.391,653.412,442.52,653.389,442.648,653.371z"/>
<path d="M451.857,739.88c-2.243-0.356-3.896-2.359-3.768-4.676l1.2-21.708c0.136-2.473,2.252-4.367,4.725-4.23
	c2.469,0.139,4.367,2.253,4.23,4.725l-1.2,21.709c-0.136,2.473-2.252,4.366-4.725,4.23
	C452.163,739.92,452.008,739.904,451.857,739.88"/>
<path fill="none" stroke="#00F472" stroke-width="0.5" stroke-miterlimit="10" d="M451.857,739.88
	c-2.243-0.356-3.896-2.359-3.768-4.676l1.2-21.708c0.136-2.473,2.252-4.367,4.725-4.23c2.469,0.139,4.367,2.253,4.23,4.725
	l-1.2,21.709c-0.136,2.473-2.252,4.366-4.725,4.23C452.163,739.92,452.008,739.904,451.857,739.88z"/>
<path d="M482.588,741.82c-2.271,0-4.218-1.718-4.456-4.026l-2.224-21.627c-0.253-2.464,1.539-4.667,4.003-4.92
	c2.46-0.251,4.665,1.539,4.919,4.002l2.225,21.628c0.253,2.463-1.539,4.666-4.003,4.92
	C482.896,741.812,482.741,741.82,482.588,741.82"/>
<path fill="none" stroke="#00F472" stroke-width="0.5" stroke-miterlimit="10" d="M482.588,741.82c-2.271,0-4.218-1.718-4.456-4.026
	l-2.224-21.627c-0.253-2.464,1.539-4.667,4.003-4.92c2.46-0.251,4.665,1.539,4.919,4.002l2.225,21.628
	c0.253,2.463-1.539,4.666-4.003,4.92C482.896,741.812,482.741,741.82,482.588,741.82z"/>
<path d="M489.518,692.903c0,10.965-8.889,19.854-19.854,19.854c-10.965,0-19.854-8.889-19.854-19.854
	c0-10.966,8.889-19.854,19.854-19.854C480.628,673.05,489.518,681.938,489.518,692.903"/>
<circle fill="none" stroke="#00F472" stroke-width="0.5" stroke-miterlimit="10" cx="469.664" cy="692.903" r="19.854"/>
<path d="M486.437,687.282c-2.058-1.032-3.018-3.485-2.151-5.664l9.135-22.964c0.916-2.302,3.524-3.426,5.825-2.51
	c2.3,0.916,3.425,3.523,2.51,5.824l-9.136,22.965c-0.916,2.301-3.523,3.425-5.825,2.51
	C486.672,687.394,486.553,687.342,486.437,687.282"/>
<path fill="none" stroke="#00F472" stroke-width="0.5" stroke-miterlimit="10" d="M486.437,687.282
	c-2.058-1.032-3.018-3.485-2.151-5.664l9.135-22.964c0.916-2.302,3.524-3.426,5.825-2.51c2.3,0.916,3.425,3.523,2.51,5.824
	l-9.136,22.965c-0.916,2.301-3.523,3.425-5.825,2.51C486.672,687.394,486.553,687.342,486.437,687.282z"/>
<path d="M567.377,675.205c0,6.647-5.391,12.037-12.038,12.037c-6.649,0-12.04-5.39-12.04-12.037c0-6.648,5.391-12.039,12.04-12.039
	C561.986,663.166,567.377,668.557,567.377,675.205"/>
<circle fill="none" stroke="#00F472" stroke-width="0.5" stroke-miterlimit="10" cx="555.338" cy="675.205" r="12.039"/>
<path d="M524.276,670.751c2.28-0.315,4.463,1.161,4.984,3.446l5.493,24.097c0.55,2.415-0.961,4.819-3.375,5.37
	c-2.414,0.549-4.819-0.961-5.37-3.376l-5.493-24.097c-0.551-2.414,0.961-4.818,3.375-5.369
	C524.02,670.793,524.148,670.77,524.276,670.751"/>
<path fill="none" stroke="#00F472" stroke-width="0.5" stroke-miterlimit="10" d="M524.276,670.751
	c2.28-0.315,4.463,1.161,4.984,3.446l5.493,24.097c0.55,2.415-0.961,4.819-3.375,5.37c-2.414,0.549-4.819-0.961-5.37-3.376
	l-5.493-24.097c-0.551-2.414,0.961-4.818,3.375-5.369C524.02,670.793,524.148,670.77,524.276,670.751z"/>
<path d="M533.486,757.261c-2.243-0.357-3.896-2.36-3.769-4.677l1.199-21.708c0.137-2.473,2.253-4.367,4.726-4.229
	c2.47,0.138,4.366,2.252,4.229,4.725l-1.2,21.709c-0.136,2.473-2.252,4.366-4.725,4.229
	C533.791,757.301,533.637,757.284,533.486,757.261"/>
<path fill="none" stroke="#00F472" stroke-width="0.5" stroke-miterlimit="10" d="M533.486,757.261
	c-2.243-0.357-3.896-2.36-3.769-4.677l1.199-21.708c0.137-2.473,2.253-4.367,4.726-4.229c2.47,0.138,4.366,2.252,4.229,4.725
	l-1.2,21.709c-0.136,2.473-2.252,4.366-4.725,4.229C533.791,757.301,533.637,757.284,533.486,757.261z"/>
<path d="M564.217,759.201c-2.271,0-4.219-1.718-4.457-4.026l-2.223-21.627c-0.254-2.464,1.538-4.667,4.002-4.921
	c2.461-0.251,4.666,1.539,4.92,4.003l2.224,21.628c0.254,2.463-1.538,4.666-4.003,4.92
	C564.524,759.193,564.369,759.201,564.217,759.201"/>
<path fill="none" stroke="#00F472" stroke-width="0.5" stroke-miterlimit="10" d="M564.217,759.201
	c-2.271,0-4.219-1.718-4.457-4.026l-2.223-21.627c-0.254-2.464,1.538-4.667,4.002-4.921c2.461-0.251,4.666,1.539,4.92,4.003
	l2.224,21.628c0.254,2.463-1.538,4.666-4.003,4.92C564.524,759.193,564.369,759.201,564.217,759.201z"/>
<path d="M571.146,710.283c0,10.965-8.89,19.854-19.854,19.854c-10.966,0-19.854-8.889-19.854-19.854
	c0-10.966,8.888-19.854,19.854-19.854C562.257,690.43,571.146,699.317,571.146,710.283"/>
<circle fill="none" stroke="#00F472" stroke-width="0.5" stroke-miterlimit="10" cx="551.293" cy="710.283" r="19.854"/>
<path d="M568.065,704.663c-2.059-1.032-3.019-3.485-2.152-5.665l9.136-22.964c0.916-2.301,3.524-3.425,5.824-2.51
	c2.299,0.916,3.425,3.523,2.51,5.825l-9.136,22.965c-0.915,2.3-3.522,3.425-5.824,2.509
	C568.301,704.774,568.18,704.721,568.065,704.663"/>
<path fill="none" stroke="#00F472" stroke-width="0.5" stroke-miterlimit="10" d="M568.065,704.663
	c-2.059-1.032-3.019-3.485-2.152-5.665l9.136-22.964c0.916-2.301,3.524-3.425,5.824-2.51c2.299,0.916,3.425,3.523,2.51,5.825
	l-9.136,22.965c-0.915,2.3-3.522,3.425-5.824,2.509C568.301,704.774,568.18,704.721,568.065,704.663z"/>
</svg>
