<?xml version="1.0" encoding="utf-8"?>
<!-- Generator: Adobe Illustrator 16.0.0, SVG Export Plug-In . SVG Version: 6.00 Build 0)  -->
<!DOCTYPE svg PUBLIC "-//W3C//DTD SVG 1.1//EN" "http://www.w3.org/Graphics/SVG/1.1/DTD/svg11.dtd">
<svg version="1.1" id="Layer_1" xmlns="http://www.w3.org/2000/svg" xmlns:xlink="http://www.w3.org/1999/xlink" x="0px" y="0px"
	 width="150px" height="150px" viewBox="0 0 150 150" enable-background="new 0 0 150 150" xml:space="preserve">
<polygon fill="none" stroke="#000000" stroke-width="0.256" stroke-linecap="round" stroke-linejoin="round" stroke-miterlimit="10" points="
	97.883,107.186 74.999,138.688 52.11,107.186 "/>
<polygon fill="none" stroke="#000000" stroke-width="0.256" stroke-linecap="round" stroke-linejoin="round" stroke-miterlimit="10" points="
	97.883,107.186 113.936,129.275 74.999,138.688 "/>
<polygon fill="none" stroke="#000000" stroke-width="0.256" stroke-linecap="round" stroke-linejoin="round" stroke-miterlimit="10" points="
	36.063,129.275 74.999,138.688 52.11,107.186 "/>
<polygon fill="none" stroke="#000000" stroke-width="0.256" stroke-linecap="round" stroke-linejoin="round" stroke-miterlimit="10" points="
	74.999,138.688 97.883,146.121 52.11,146.121 "/>
<polygon fill="none" stroke="#000000" stroke-width="0.256" stroke-linecap="round" stroke-linejoin="round" stroke-miterlimit="10" points="
	113.936,129.275 74.999,138.688 97.883,146.121 "/>
<polygon fill="none" stroke="#000000" stroke-width="0.256" stroke-linecap="round" stroke-linejoin="round" stroke-miterlimit="10" points="
	134.912,119.215 97.883,146.121 113.936,129.275 "/>
<polygon fill="none" stroke="#000000" stroke-width="0.256" stroke-linecap="round" stroke-linejoin="round" stroke-miterlimit="10" points="
	134.912,95.154 149.059,75.685 134.912,119.215 "/>
<polygon fill="none" stroke="#000000" stroke-width="0.256" stroke-linecap="round" stroke-linejoin="round" stroke-miterlimit="10" points="
	113.936,129.275 134.912,95.154 134.912,119.215 "/>
<polygon fill="none" stroke="#000000" stroke-width="0.256" stroke-linecap="round" stroke-linejoin="round" stroke-miterlimit="10" points="
	134.912,95.154 97.883,107.186 113.936,129.275 "/>
<polygon fill="none" stroke="#000000" stroke-width="0.256" stroke-linecap="round" stroke-linejoin="round" stroke-miterlimit="10" points="
	97.883,107.186 74.999,75.685 112.023,63.653 "/>
<polygon fill="none" stroke="#000000" stroke-width="0.256" stroke-linecap="round" stroke-linejoin="round" stroke-miterlimit="10" points="
	134.912,95.154 112.023,63.653 97.883,107.186 "/>
<polygon fill="none" stroke="#000000" stroke-width="0.256" stroke-linecap="round" stroke-linejoin="round" stroke-miterlimit="10" points="
	137.994,55.217 134.912,95.154 149.059,75.685 "/>
<polygon fill="none" stroke="#000000" stroke-width="0.256" stroke-linecap="round" stroke-linejoin="round" stroke-miterlimit="10" points="
	112.023,63.653 137.994,55.217 134.912,95.154 "/>
<polygon fill="none" stroke="#000000" stroke-width="0.256" stroke-linecap="round" stroke-linejoin="round" stroke-miterlimit="10" points="
	112.023,63.653 74.999,36.749 74.999,75.685 "/>
<polygon fill="none" stroke="#000000" stroke-width="0.256" stroke-linecap="round" stroke-linejoin="round" stroke-miterlimit="10" points="
	112.023,24.717 74.999,36.749 112.023,63.653 "/>
<polygon fill="none" stroke="#000000" stroke-width="0.256" stroke-linecap="round" stroke-linejoin="round" stroke-miterlimit="10" points="
	137.994,55.217 134.912,32.152 149.059,75.685 "/>
<polygon fill="none" stroke="#000000" stroke-width="0.256" stroke-linecap="round" stroke-linejoin="round" stroke-miterlimit="10" points="
	112.023,24.717 137.994,55.217 134.912,32.152 "/>
<polygon fill="none" stroke="#000000" stroke-width="0.256" stroke-linecap="round" stroke-linejoin="round" stroke-miterlimit="10" points="
	112.023,24.717 112.023,63.653 137.994,55.217 "/>
<polygon fill="none" stroke="#000000" stroke-width="0.256" stroke-linecap="round" stroke-linejoin="round" stroke-miterlimit="10" points="
	74.999,9.443 112.023,24.717 74.999,36.749 "/>
<polygon fill="none" stroke="#000000" stroke-width="0.256" stroke-linecap="round" stroke-linejoin="round" stroke-miterlimit="10" points="
	112.023,24.717 97.883,5.252 134.912,32.152 "/>
<polygon fill="none" stroke="#000000" stroke-width="0.256" stroke-linecap="round" stroke-linejoin="round" stroke-miterlimit="10" points="
	74.999,9.443 112.023,24.717 97.883,5.252 "/>
<polygon fill="none" stroke="#000000" stroke-width="0.256" stroke-linecap="round" stroke-linejoin="round" stroke-miterlimit="10" points="
	97.883,5.252 52.11,5.252 74.999,9.443 "/>
<polygon fill="none" stroke="#000000" stroke-width="0.256" stroke-linecap="round" stroke-linejoin="round" stroke-miterlimit="10" points="
	74.999,9.443 37.968,24.717 52.11,5.252 "/>
<polygon fill="none" stroke="#000000" stroke-width="0.256" stroke-linecap="round" stroke-linejoin="round" stroke-miterlimit="10" points="
	37.968,24.717 52.11,5.252 15.084,32.152 "/>
<polygon fill="none" stroke="#000000" stroke-width="0.256" stroke-linecap="round" stroke-linejoin="round" stroke-miterlimit="10" points="
	74.999,9.443 37.968,24.717 74.999,36.749 "/>
<polygon fill="none" stroke="#000000" stroke-width="0.256" stroke-linecap="round" stroke-linejoin="round" stroke-miterlimit="10" points="
	37.968,24.717 37.968,63.653 11.996,55.217 "/>
<polygon fill="none" stroke="#000000" stroke-width="0.256" stroke-linecap="round" stroke-linejoin="round" stroke-miterlimit="10" points="
	37.968,24.717 11.996,55.217 15.084,32.152 "/>
<polygon fill="none" stroke="#000000" stroke-width="0.256" stroke-linecap="round" stroke-linejoin="round" stroke-miterlimit="10" points="
	11.996,55.217 15.084,32.152 0.941,75.685 "/>
<polygon fill="none" stroke="#000000" stroke-width="0.256" stroke-linecap="round" stroke-linejoin="round" stroke-miterlimit="10" points="
	37.968,24.717 74.999,36.749 37.968,63.653 "/>
<polygon fill="none" stroke="#000000" stroke-width="0.256" stroke-linecap="round" stroke-linejoin="round" stroke-miterlimit="10" points="
	37.968,63.653 74.999,36.749 74.999,75.685 "/>
<polygon fill="none" stroke="#000000" stroke-width="0.256" stroke-linecap="round" stroke-linejoin="round" stroke-miterlimit="10" points="
	37.968,63.653 11.996,55.217 15.084,95.154 "/>
<polygon fill="none" stroke="#000000" stroke-width="0.256" stroke-linecap="round" stroke-linejoin="round" stroke-miterlimit="10" points="
	11.996,55.217 15.084,95.154 0.941,75.685 "/>
<polygon fill="none" stroke="#000000" stroke-width="0.256" stroke-linecap="round" stroke-linejoin="round" stroke-miterlimit="10" points="
	15.084,95.154 37.968,63.653 52.11,107.186 "/>
<polygon fill="none" stroke="#000000" stroke-width="0.256" stroke-linecap="round" stroke-linejoin="round" stroke-miterlimit="10" points="
	52.11,107.186 74.999,75.685 37.968,63.653 "/>
<polygon fill="none" stroke="#000000" stroke-width="0.256" stroke-linecap="round" stroke-linejoin="round" stroke-miterlimit="10" points="
	74.999,75.685 52.11,107.186 97.883,107.186 "/>
<polygon fill="none" stroke="#000000" stroke-width="0.256" stroke-linecap="round" stroke-linejoin="round" stroke-miterlimit="10" points="
	15.084,95.154 52.11,107.186 36.063,129.275 "/>
<polygon fill="none" stroke="#000000" stroke-width="0.256" stroke-linecap="round" stroke-linejoin="round" stroke-miterlimit="10" points="
	36.063,129.275 15.084,95.154 15.084,119.215 "/>
<polygon fill="none" stroke="#000000" stroke-width="0.256" stroke-linecap="round" stroke-linejoin="round" stroke-miterlimit="10" points="
	15.084,95.154 0.941,75.685 15.084,119.215 "/>
<polygon fill="none" stroke="#000000" stroke-width="0.256" stroke-linecap="round" stroke-linejoin="round" stroke-miterlimit="10" points="
	15.084,119.215 52.11,146.121 36.063,129.275 "/>
<polygon fill="none" stroke="#000000" stroke-width="0.256" stroke-linecap="round" stroke-linejoin="round" stroke-miterlimit="10" points="
	36.063,129.275 74.999,138.688 52.11,146.121 "/>
</svg>
