<svg id="ba7b5502-96a8-45c8-b5bf-a472d0045704" data-name="Ebene 1" xmlns="http://www.w3.org/2000/svg" width="705.26" height="705.42" viewBox="0 0 705.26 705.42">
  <defs>
    <style>
      .\35 d5bca12-335e-49a1-82ba-dde0be5a1ce2 {
        isolation: isolate;
      }

      .\30 386d351-17e1-4e7b-82a4-93babb2f54f2, .\32 0dae38d-05d4-48e3-8025-8db0d67291f6, .\32 81e3727-600f-4b2f-9bcc-cbb401367fc6, .\32 94f8124-30de-4276-b442-1c2f0bbc1a6a, .\32 a55cc56-3ccc-4e3e-aef4-1290355d5fac, .\34 f918379-6a5d-47c2-b8cd-fe097f1f80ef, .\35 15c4eb3-ba37-476d-8207-cfab3cc999ef, .\38 4f3455c-b655-4e9e-8ef0-cc14f2e41c93, .\39 cf949e2-46f2-48a3-8a84-30f12023bb83, .a1e22a52-cb45-4ad8-853f-e466eef4b17a, .add34418-9a9a-4f31-8c5a-9856a95562b6, .ba9a322e-72bb-4034-b978-8dfbba6a3a31, .d4104a2c-cc55-40c0-924a-34ed81e3f592 {
        fill: none;
      }

      .\30 386d351-17e1-4e7b-82a4-93babb2f54f2, .\32 0dae38d-05d4-48e3-8025-8db0d67291f6, .\32 81e3727-600f-4b2f-9bcc-cbb401367fc6, .\32 94f8124-30de-4276-b442-1c2f0bbc1a6a, .\32 a55cc56-3ccc-4e3e-aef4-1290355d5fac, .\34 f918379-6a5d-47c2-b8cd-fe097f1f80ef, .\35 15c4eb3-ba37-476d-8207-cfab3cc999ef, .\38 4f3455c-b655-4e9e-8ef0-cc14f2e41c93, .\39 cf949e2-46f2-48a3-8a84-30f12023bb83, .a1e22a52-cb45-4ad8-853f-e466eef4b17a, .add34418-9a9a-4f31-8c5a-9856a95562b6, .d4104a2c-cc55-40c0-924a-34ed81e3f592 {
        stroke: #000;
      }

      .\30 386d351-17e1-4e7b-82a4-93babb2f54f2, .\32 81e3727-600f-4b2f-9bcc-cbb401367fc6, .\32 94f8124-30de-4276-b442-1c2f0bbc1a6a, .\32 a55cc56-3ccc-4e3e-aef4-1290355d5fac, .\34 f918379-6a5d-47c2-b8cd-fe097f1f80ef, .\35 15c4eb3-ba37-476d-8207-cfab3cc999ef, .\38 4f3455c-b655-4e9e-8ef0-cc14f2e41c93, .\39 cf949e2-46f2-48a3-8a84-30f12023bb83, .a1e22a52-cb45-4ad8-853f-e466eef4b17a, .d4104a2c-cc55-40c0-924a-34ed81e3f592 {
        stroke-linecap: round;
        stroke-linejoin: round;
      }

      .\30 386d351-17e1-4e7b-82a4-93babb2f54f2, .\32 0dae38d-05d4-48e3-8025-8db0d67291f6, .\32 81e3727-600f-4b2f-9bcc-cbb401367fc6, .\32 94f8124-30de-4276-b442-1c2f0bbc1a6a, .\32 a55cc56-3ccc-4e3e-aef4-1290355d5fac, .\34 f918379-6a5d-47c2-b8cd-fe097f1f80ef, .\35 15c4eb3-ba37-476d-8207-cfab3cc999ef, .\39 cf949e2-46f2-48a3-8a84-30f12023bb83, .a1e22a52-cb45-4ad8-853f-e466eef4b17a, .add34418-9a9a-4f31-8c5a-9856a95562b6 {
        stroke-width: 0.25px;
      }

      .a1e22a52-cb45-4ad8-853f-e466eef4b17a {
        stroke-dasharray: 2.05 2.05;
      }

      .\32 81e3727-600f-4b2f-9bcc-cbb401367fc6 {
        stroke-dasharray: 2.02 2.02;
      }

      .\34 f918379-6a5d-47c2-b8cd-fe097f1f80ef {
        stroke-dasharray: 1.99 1.99;
      }

      .\32 a55cc56-3ccc-4e3e-aef4-1290355d5fac {
        stroke-dasharray: 1.98 1.98;
      }

      .\30 386d351-17e1-4e7b-82a4-93babb2f54f2 {
        stroke-dasharray: 1.99 1.99;
      }

      .\39 cf949e2-46f2-48a3-8a84-30f12023bb83 {
        stroke-dasharray: 2 2;
      }

      .\35 15c4eb3-ba37-476d-8207-cfab3cc999ef {
        stroke-dasharray: 2.01 2.01;
      }

      .\38 4f3455c-b655-4e9e-8ef0-cc14f2e41c93 {
        stroke-width: 0.1px;
      }

      .\32 0dae38d-05d4-48e3-8025-8db0d67291f6, .add34418-9a9a-4f31-8c5a-9856a95562b6 {
        stroke-miterlimit: 10;
      }

      .add34418-9a9a-4f31-8c5a-9856a95562b6 {
        stroke-dasharray: 2.01 2.01;
      }
    </style>
  </defs>
  <title>mandala1</title>
  <g>
    <g class="5d5bca12-335e-49a1-82ba-dde0be5a1ce2">
      <g class="5d5bca12-335e-49a1-82ba-dde0be5a1ce2">
        <path d="M322.06,362.42v-3.83a2.88,2.88,0,0,1,3.13-3c1.76,0,3.14.89,3.14,2.85v3.84a2.86,2.86,0,0,1-3.13,3C323.44,365.29,322.06,364.41,322.06,362.42Zm5.13-.08v-3.91a1.81,1.81,0,0,0-2-1.88,1.83,1.83,0,0,0-2,2v3.76A2,2,0,0,0,327.19,362.34Z" transform="translate(-10.75 -9.95)"/>
        <path d="M332,355.75h1.47l2.16,4.67h0l2.14-4.67h1.39v9.38h-1v-7.84h0L336,362h-0.8L333,357.3h0v7.83h-1v-9.38Z" transform="translate(-10.75 -9.95)"/>
        <path d="M343.07,355.75h1.14l3.93,7.1h0v-7.1h1v9.38h-1l-4.09-7.46h0v7.46h-1v-9.38Z" transform="translate(-10.75 -9.95)"/>
        <path d="M353.07,355.75h1.14v9.38h-1.14v-9.38Z" transform="translate(-10.75 -9.95)"/>
        <path d="M358.1,355.75h3.1c1.67,0,2.89.83,2.89,2.6v4a2.61,2.61,0,0,1-2.89,2.76h-3.1v-9.38Zm3,8.43a1.71,1.71,0,0,0,1.88-1.81V358.5a1.68,1.68,0,0,0-1.85-1.8h-1.84v7.48h1.82Z" transform="translate(-10.75 -9.95)"/>
        <path d="M367.52,362.42v-3.83a2.88,2.88,0,0,1,3.13-3c1.76,0,3.14.89,3.14,2.85v3.84a2.86,2.86,0,0,1-3.13,3C368.9,365.29,367.52,364.41,367.52,362.42Zm5.13-.08v-3.91a1.81,1.81,0,0,0-2-1.88,1.83,1.83,0,0,0-2,2v3.76A2,2,0,0,0,372.65,362.34Z" transform="translate(-10.75 -9.95)"/>
        <path d="M377.45,355.75h1.47l2.16,4.67h0l2.14-4.67h1.39v9.38h-1v-7.84h0L381.44,362h-0.8l-2.14-4.71h0v7.83h-1v-9.38Z" transform="translate(-10.75 -9.95)"/>
        <path d="M388.53,355.75h5.22v1h-4.08v3.08h3.25v1h-3.25v3.39h4.08v1h-5.22v-9.38Z" transform="translate(-10.75 -9.95)"/>
      </g>
    </g>
    <rect class="ba9a322e-72bb-4034-b978-8dfbba6a3a31" x="177.75" y="163.2" width="132.84" height="23.31"/>
    <rect class="d4104a2c-cc55-40c0-924a-34ed81e3f592" x="177.75" y="163.2" width="132.84" height="23.31"/>
    <g class="5d5bca12-335e-49a1-82ba-dde0be5a1ce2">
      <g class="5d5bca12-335e-49a1-82ba-dde0be5a1ce2">
        <path d="M216.78,187.94v-0.53h0.42V188a1.66,1.66,0,0,0,1.88,1.54A2.25,2.25,0,0,0,219,185h-0.88v-0.38H219a1.86,1.86,0,0,0,1.84-2.12,1.77,1.77,0,0,0-1.88-2,1.52,1.52,0,0,0-1.71,1.62v0.46h-0.39v-0.45a1.91,1.91,0,0,1,2.16-2,2.07,2.07,0,0,1,2.24,2.22,2.25,2.25,0,0,1-1.54,2.37v0a2.26,2.26,0,0,1,1.76,2.45,2.4,2.4,0,0,1-2.42,2.62C217.44,189.88,216.78,188.89,216.78,187.94Z" transform="translate(-10.75 -9.95)"/>
        <path d="M226.18,187.59v-5.17a2.14,2.14,0,0,1,2.33-2.25c1.33,0,2.29.7,2.29,1.8v0.57h-0.38V182a1.69,1.69,0,0,0-1.92-1.53,1.77,1.77,0,0,0-1.91,1.83v2.81a2.49,2.49,0,0,1,2.17-1.29,2,2,0,0,1,2.14,1.93v1.95a2.1,2.1,0,0,1-2.38,2.12A2.22,2.22,0,0,1,226.18,187.59Zm4.31,0.26v-1.92a1.6,1.6,0,0,0-1.8-1.66,2.07,2.07,0,0,0-2.09,1.92v1.47a1.85,1.85,0,0,0,2,1.84A1.7,1.7,0,0,0,230.49,187.85Z" transform="translate(-10.75 -9.95)"/>
        <path d="M235.62,187.6v-5.16a2.27,2.27,0,0,1,2.49-2.26,2.19,2.19,0,0,1,2.43,2.24v5.18A2.47,2.47,0,0,1,235.62,187.6Zm4.5,0v-5.16a2,2,0,0,0-4.08,0v5.14a1.87,1.87,0,0,0,2.06,1.91A1.82,1.82,0,0,0,240.12,187.57Z" transform="translate(-10.75 -9.95)"/>
        <path d="M250.46,180.35h0.42l2.49,8.88h0l2.53-8.88h0.41l-2.72,9.4h-0.43Z" transform="translate(-10.75 -9.95)"/>
        <path d="M261,180.35h0.41v9.38H261v-9.38Z" transform="translate(-10.75 -9.95)"/>
        <path d="M266.75,180.35h2.79a2.32,2.32,0,0,1,2.6,2.46v4.31a2.42,2.42,0,0,1-2.62,2.6h-2.78v-9.38Zm2.7,9a2,2,0,0,0,2.28-2.17V182.9a2,2,0,0,0-2.24-2.17h-2.33v8.62h2.29Z" transform="translate(-10.75 -9.95)"/>
        <path d="M277.27,180.35h4.63v0.38h-4.22v3.89H281V185h-3.37v4.35h4.22v0.38h-4.63v-9.38Z" transform="translate(-10.75 -9.95)"/>
        <path d="M286.33,187.23V183a2.66,2.66,0,0,1,2.85-2.84,2.54,2.54,0,0,1,2.84,2.62V187a2.66,2.66,0,0,1-2.85,2.85A2.53,2.53,0,0,1,286.33,187.23Zm5.27-.13v-4.26a2.43,2.43,0,0,0-4.85.22v4.08a2.2,2.2,0,0,0,2.43,2.33A2.22,2.22,0,0,0,291.61,187.1Z" transform="translate(-10.75 -9.95)"/>
      </g>
    </g>
    <rect class="ba9a322e-72bb-4034-b978-8dfbba6a3a31" x="486" y="296.65" width="132.84" height="23.31"/>
    <rect class="d4104a2c-cc55-40c0-924a-34ed81e3f592" x="486" y="296.65" width="132.84" height="23.31"/>
    <g class="5d5bca12-335e-49a1-82ba-dde0be5a1ce2">
      <path d="M535.75,313.8h0.41v5.29l4.38-5.29H541l-3,3.59,3.08,5.79h-0.49l-2.89-5.45-1.58,1.87v3.58h-0.41V313.8Z" transform="translate(-10.75 -9.95)"/>
      <path d="M545.26,313.8h4.63v0.38h-4.22v3.89H549v0.37h-3.37v4.35h4.22v0.38h-4.63V313.8Z" transform="translate(-10.75 -9.95)"/>
      <path d="M556.07,319.09l-2.45-5.29H554l2.28,4.84,2.21-4.84h0.42l-2.46,5.3v4.08h-0.41v-4.09Z" transform="translate(-10.75 -9.95)"/>
      <path d="M563.09,313.8h0.46l4.6,8.56h0V313.8h0.36v9.38h-0.39l-4.66-8.76h0v8.76h-0.37V313.8Z" transform="translate(-10.75 -9.95)"/>
      <path d="M573.11,320.68v-4.2a2.66,2.66,0,0,1,2.85-2.84,2.54,2.54,0,0,1,2.84,2.62v4.21a2.66,2.66,0,0,1-2.85,2.85A2.53,2.53,0,0,1,573.11,320.68Zm5.27-.13v-4.26a2.43,2.43,0,0,0-4.85.22v4.08a2.2,2.2,0,0,0,2.43,2.33A2.22,2.22,0,0,0,578.38,320.55Z" transform="translate(-10.75 -9.95)"/>
      <path d="M585.06,314.18h-2.78V313.8h5.93v0.38h-2.75v9h-0.41v-9Z" transform="translate(-10.75 -9.95)"/>
      <path d="M592.22,313.8h4.63v0.38h-4.22v3.89H596v0.37h-3.37v4.35h4.22v0.38h-4.63V313.8Z" transform="translate(-10.75 -9.95)"/>
    </g>
    <rect class="ba9a322e-72bb-4034-b978-8dfbba6a3a31" x="280.3" y="496.44" width="132.84" height="23.31"/>
    <rect class="d4104a2c-cc55-40c0-924a-34ed81e3f592" x="279.68" y="567.52" width="132.84" height="23.31"/>
    <g class="5d5bca12-335e-49a1-82ba-dde0be5a1ce2">
      <g class="5d5bca12-335e-49a1-82ba-dde0be5a1ce2">
        <path d="M306.48,584.6h0.41V594h-0.41V584.6Z" transform="translate(-10.75 -9.95)"/>
        <path d="M313.54,584.6H314l4.6,8.56h0V584.6H319V594h-0.39l-4.66-8.76h0V594h-0.37V584.6Z" transform="translate(-10.75 -9.95)"/>
        <path d="M327.6,585h-2.77V584.6h5.93V585H328v9H327.6v-9Z" transform="translate(-10.75 -9.95)"/>
        <path d="M336.6,584.6h4.63V585H337v3.89h3.37v0.37H337v4.35h4.22V594H336.6V584.6Z" transform="translate(-10.75 -9.95)"/>
        <path d="M347.45,584.6h2.45a2.6,2.6,0,0,1,.34,5.18l2.55,4.2h-0.49l-2.5-4.14h-1.95V594h-0.41V584.6Zm2.26,4.88a2,2,0,0,0,2.35-2.26,2,2,0,0,0-2.24-2.25h-2v4.51h1.85Z" transform="translate(-10.75 -9.95)"/>
        <path d="M359,584.6h4.63V585h-4.22v3.89h3.35v0.37h-3.35V594H359V584.6Z" transform="translate(-10.75 -9.95)"/>
        <path d="M370.95,584.56h0.51l2.79,9.42h-0.43l-1-3.41h-3.29l-1,3.41h-0.41Zm1.76,5.66L371.18,585h0l-1.55,5.17h3.09Z" transform="translate(-10.75 -9.95)"/>
        <path d="M379.84,591.53v-4.42a2.6,2.6,0,0,1,2.83-2.67,2.28,2.28,0,0,1,2.58,2.18v0.84h-0.38v-0.64a2,2,0,0,0-2.25-2,2.19,2.19,0,0,0-2.37,2.35v4.21a2.16,2.16,0,0,0,2.42,2.38,1.9,1.9,0,0,0,2.2-1.91V591.1h0.38v0.8c0,1.28-.91,2.22-2.58,2.22S379.84,593.24,379.84,591.53Z" transform="translate(-10.75 -9.95)"/>
        <path d="M391.61,584.6h4.63V585H392v3.89h3.37v0.37H392v4.35h4.22V594h-4.63V584.6Z" transform="translate(-10.75 -9.95)"/>
        <path d="M401.44,593.14l0.26-.32a3.27,3.27,0,0,0,2.39.91,1.93,1.93,0,0,0,2-2,2.44,2.44,0,0,0-1.68-2.24l-1.08-.55a2.51,2.51,0,0,1-1.67-2.24,2.28,2.28,0,0,1,2.45-2.29,3.39,3.39,0,0,1,2.32.8l-0.24.29a3.36,3.36,0,0,0-2.17-.72,1.84,1.84,0,0,0-1.93,1.85,2.14,2.14,0,0,0,1.5,1.95l1,0.53a2.82,2.82,0,0,1,1.89,2.58,2.33,2.33,0,0,1-2.49,2.42A3.63,3.63,0,0,1,401.44,593.14Z" transform="translate(-10.75 -9.95)"/>
      </g>
    </g>
    <rect class="ba9a322e-72bb-4034-b978-8dfbba6a3a31" x="486" y="338.6" width="132.84" height="23.31"/>
    <rect class="d4104a2c-cc55-40c0-924a-34ed81e3f592" x="486" y="338.6" width="132.84" height="23.31"/>
    <g class="5d5bca12-335e-49a1-82ba-dde0be5a1ce2">
      <g class="5d5bca12-335e-49a1-82ba-dde0be5a1ce2">
        <path d="M512.66,355.75h2.42a2.41,2.41,0,0,1,2.53,2.64,2.58,2.58,0,0,1-2.8,2.78h-1.74v4h-0.41v-9.38Zm2,5.05a2.19,2.19,0,0,0,2.47-2.38,2,2,0,0,0-2.09-2.29h-2v4.67h1.63Z" transform="translate(-10.75 -9.95)"/>
        <path d="M522.26,355.75h2.45a2.6,2.6,0,0,1,.34,5.18l2.55,4.2h-0.49l-2.5-4.14h-1.95v4.14h-0.41v-9.38Zm2.26,4.88a2,2,0,0,0,2.35-2.26,2,2,0,0,0-2.24-2.25h-2v4.51h1.86Z" transform="translate(-10.75 -9.95)"/>
        <path d="M532.06,355.75h4.63v0.38h-4.22V360h3.37v0.37h-3.37v4.35h4.22v0.38h-4.63v-9.38Z" transform="translate(-10.75 -9.95)"/>
        <path d="M540.19,364.29l0.26-.32a3.27,3.27,0,0,0,2.39.91,1.93,1.93,0,0,0,2-2,2.44,2.44,0,0,0-1.68-2.24l-1.08-.55a2.51,2.51,0,0,1-1.67-2.24,2.28,2.28,0,0,1,2.45-2.29,3.38,3.38,0,0,1,2.31.8l-0.24.29a3.36,3.36,0,0,0-2.17-.72,1.84,1.84,0,0,0-1.93,1.85,2.14,2.14,0,0,0,1.5,1.95l1,0.53a2.82,2.82,0,0,1,1.89,2.58,2.33,2.33,0,0,1-2.49,2.42A3.63,3.63,0,0,1,540.19,364.29Z" transform="translate(-10.75 -9.95)"/>
        <path d="M549.95,355.75h4.63v0.38h-4.22V360h3.37v0.37h-3.37v4.35h4.22v0.38h-4.63v-9.38Z" transform="translate(-10.75 -9.95)"/>
        <path d="M559.1,355.75h0.46l4.6,8.56h0v-8.56h0.36v9.38h-0.39l-4.66-8.76h0v8.76H559.1v-9.38Z" transform="translate(-10.75 -9.95)"/>
        <path d="M571.47,356.13h-2.78v-0.38h5.93v0.38h-2.75v9h-0.41v-9Z" transform="translate(-10.75 -9.95)"/>
        <path d="M580,355.71h0.51l2.79,9.42h-0.43l-1-3.41H578.6l-1,3.41h-0.41Zm1.76,5.66-1.53-5.17h0l-1.55,5.17h3.09Z" transform="translate(-10.75 -9.95)"/>
        <path d="M588.64,356.13h-2.78v-0.38h5.93v0.38H589v9h-0.41v-9Z" transform="translate(-10.75 -9.95)"/>
        <path d="M595.94,355.75h0.41v9.38h-0.41v-9.38Z" transform="translate(-10.75 -9.95)"/>
        <path d="M601.05,362.63v-4.2a2.66,2.66,0,0,1,2.85-2.84,2.54,2.54,0,0,1,2.84,2.62v4.21a2.66,2.66,0,0,1-2.85,2.85A2.53,2.53,0,0,1,601.05,362.63Zm5.27-.13v-4.26a2.43,2.43,0,0,0-4.85.22v4.08a2.2,2.2,0,0,0,2.43,2.33A2.22,2.22,0,0,0,606.33,362.5Z" transform="translate(-10.75 -9.95)"/>
        <path d="M611.46,355.75h0.46l4.6,8.56h0v-8.56h0.36v9.38h-0.39l-4.66-8.76h0v8.76h-0.37v-9.38Z" transform="translate(-10.75 -9.95)"/>
      </g>
    </g>
    <rect class="ba9a322e-72bb-4034-b978-8dfbba6a3a31" x="88.39" y="296.65" width="132.84" height="23.31"/>
    <rect class="d4104a2c-cc55-40c0-924a-34ed81e3f592" x="88.39" y="296.65" width="132.84" height="23.31"/>
    <g class="5d5bca12-335e-49a1-82ba-dde0be5a1ce2">
      <g class="5d5bca12-335e-49a1-82ba-dde0be5a1ce2">
        <path d="M121.94,321.39v-0.53h0.42v0.55a1.66,1.66,0,0,0,1.88,1.54,2.25,2.25,0,0,0-.05-4.49H123.3v-0.38h0.88A1.86,1.86,0,0,0,126,316a1.77,1.77,0,0,0-1.88-2,1.52,1.52,0,0,0-1.71,1.62v0.46H122v-0.45a1.91,1.91,0,0,1,2.16-2,2.07,2.07,0,0,1,2.24,2.22,2.24,2.24,0,0,1-1.54,2.37v0a2.25,2.25,0,0,1,1.76,2.45,2.4,2.4,0,0,1-2.42,2.62C122.59,323.32,121.94,322.34,121.94,321.39Z" transform="translate(-10.75 -9.95)"/>
        <path d="M130.76,321v-5.17a2.14,2.14,0,0,1,2.33-2.25c1.33,0,2.29.7,2.29,1.8V316H135V315.5a1.69,1.69,0,0,0-1.92-1.53,1.77,1.77,0,0,0-1.91,1.83v2.81a2.49,2.49,0,0,1,2.17-1.29,2,2,0,0,1,2.14,1.93v1.95a2.1,2.1,0,0,1-2.38,2.12A2.22,2.22,0,0,1,130.76,321Zm4.31,0.26v-1.92a1.6,1.6,0,0,0-1.8-1.66,2.07,2.07,0,0,0-2.09,1.92v1.47a1.85,1.85,0,0,0,2,1.84A1.7,1.7,0,0,0,135.08,321.3Z" transform="translate(-10.75 -9.95)"/>
        <path d="M139.64,321v-5.16a2.27,2.27,0,0,1,2.49-2.26,2.19,2.19,0,0,1,2.43,2.24V321A2.47,2.47,0,0,1,139.64,321Zm4.5,0v-5.16a2,2,0,0,0-4.08,0V321a1.87,1.87,0,0,0,2.06,1.91A1.82,1.82,0,0,0,144.14,321Z" transform="translate(-10.75 -9.95)"/>
        <path d="M153.82,320.73v-4.42a2.6,2.6,0,0,1,2.83-2.67,2.28,2.28,0,0,1,2.58,2.18v0.84h-0.38V316a2,2,0,0,0-2.25-2,2.19,2.19,0,0,0-2.37,2.35v4.21a2.16,2.16,0,0,0,2.42,2.38,1.9,1.9,0,0,0,2.2-1.91V320.3h0.38v0.8c0,1.28-.91,2.22-2.58,2.22S153.82,322.44,153.82,320.73Z" transform="translate(-10.75 -9.95)"/>
        <path d="M163.75,313.8h0.41v9.38h-0.41V313.8Z" transform="translate(-10.75 -9.95)"/>
        <path d="M169,313.8h0.46l4.6,8.56h0V313.8h0.35v9.38H174l-4.66-8.76h0v8.76H169V313.8Z" transform="translate(-10.75 -9.95)"/>
        <path d="M179.24,313.8h4.63v0.38h-4.22v3.89H183v0.37h-3.37v4.35h4.22v0.38h-4.63V313.8Z" transform="translate(-10.75 -9.95)"/>
        <path d="M188.25,313.8h0.55l2.6,5h0l2.58-5h0.57v9.38h-0.42v-8.75h0l-2.55,5h-0.35l-2.54-4.95h0v8.73h-0.39V313.8Z" transform="translate(-10.75 -9.95)"/>
        <path d="M201.56,313.76h0.51l2.79,9.42h-0.43l-1-3.41h-3.29l-1,3.41h-0.41Zm1.76,5.66-1.53-5.17h0l-1.55,5.17h3.09Z" transform="translate(-10.75 -9.95)"/>
      </g>
    </g>
    <rect class="ba9a322e-72bb-4034-b978-8dfbba6a3a31" x="88.39" y="338.6" width="132.84" height="23.31"/>
    <rect class="d4104a2c-cc55-40c0-924a-34ed81e3f592" x="88.39" y="338.6" width="132.84" height="23.31"/>
    <g class="5d5bca12-335e-49a1-82ba-dde0be5a1ce2">
      <g class="5d5bca12-335e-49a1-82ba-dde0be5a1ce2">
        <path d="M113.75,355.75h2.42a2.41,2.41,0,0,1,2.53,2.64,2.58,2.58,0,0,1-2.8,2.78h-1.74v4h-0.41v-9.38Zm2,5.05a2.19,2.19,0,0,0,2.47-2.38,2,2,0,0,0-2.09-2.29h-2v4.67h1.63Z" transform="translate(-10.75 -9.95)"/>
        <path d="M123.21,355.75h0.41v9h4.22v0.38h-4.63v-9.38Z" transform="translate(-10.75 -9.95)"/>
        <path d="M134.15,355.71h0.51l2.79,9.42H137l-1-3.41h-3.29l-1,3.41h-0.41Zm1.76,5.66-1.53-5.17h0l-1.55,5.17h3.09Z" transform="translate(-10.75 -9.95)"/>
        <path d="M141.59,355.75H142l4.6,8.56h0v-8.56H147v9.38h-0.39L142,356.37h0v8.76h-0.37v-9.38Z" transform="translate(-10.75 -9.95)"/>
        <path d="M151.85,355.75h4.63v0.38h-4.22V360h3.37v0.37h-3.37v4.35h4.22v0.38h-4.63v-9.38Z" transform="translate(-10.75 -9.95)"/>
        <path d="M162.82,356.13H160v-0.38H166v0.38h-2.75v9h-0.41v-9Z" transform="translate(-10.75 -9.95)"/>
        <path d="M171.22,355.71h0.51l2.79,9.42h-0.43l-1-3.41H169.8l-1,3.41h-0.41Zm1.76,5.66-1.53-5.17h0l-1.55,5.17H173Z" transform="translate(-10.75 -9.95)"/>
        <path d="M178.66,355.75h2.45a2.6,2.6,0,0,1,.34,5.18l2.55,4.2h-0.49L181,361h-1.95v4.14h-0.41v-9.38Zm2.26,4.88a2,2,0,0,0,2.35-2.26,2,2,0,0,0-2.24-2.25h-2v4.51h1.85Z" transform="translate(-10.75 -9.95)"/>
        <path d="M188.31,355.75h0.41v9.38h-0.41v-9.38Z" transform="translate(-10.75 -9.95)"/>
        <path d="M193.48,362.67v-6.92h0.41v6.76a2.18,2.18,0,0,0,2.38,2.39,2.13,2.13,0,0,0,2.34-2.31v-6.84H199v6.88A2.76,2.76,0,0,1,193.48,362.67Z" transform="translate(-10.75 -9.95)"/>
        <path d="M203.77,355.75h0.55l2.6,5h0l2.58-5h0.57v9.38h-0.42v-8.75h0l-2.55,5h-0.35l-2.54-4.95h0v8.73h-0.39v-9.38Z" transform="translate(-10.75 -9.95)"/>
      </g>
    </g>
    <rect class="ba9a322e-72bb-4034-b978-8dfbba6a3a31" x="88.39" y="380.55" width="132.84" height="23.31"/>
    <rect class="d4104a2c-cc55-40c0-924a-34ed81e3f592" x="88.39" y="380.55" width="132.84" height="23.31"/>
    <g class="5d5bca12-335e-49a1-82ba-dde0be5a1ce2">
      <g class="5d5bca12-335e-49a1-82ba-dde0be5a1ce2">
        <path d="M111,397.71h0.41v9.38H111v-9.38Z" transform="translate(-10.75 -9.95)"/>
        <path d="M119,397.71h0.46l4.6,8.56h0v-8.56h0.35v9.38H124l-4.66-8.76h0v8.76H119v-9.38Z" transform="translate(-10.75 -9.95)"/>
        <path d="M132,397.71h2.79a2.31,2.31,0,0,1,2.6,2.46v4.31a2.42,2.42,0,0,1-2.62,2.6H132v-9.38Zm2.7,9a2,2,0,0,0,2.28-2.17v-4.27a2,2,0,0,0-2.24-2.17H132.4v8.62h2.29Z" transform="translate(-10.75 -9.95)"/>
        <path d="M144.67,404.63v-6.92h0.41v6.76a2.18,2.18,0,0,0,2.38,2.39,2.13,2.13,0,0,0,2.34-2.31v-6.84h0.38v6.88A2.76,2.76,0,0,1,144.67,404.63Z" transform="translate(-10.75 -9.95)"/>
        <path d="M157.08,406.24l0.26-.32a3.27,3.27,0,0,0,2.39.91,1.93,1.93,0,0,0,2-2,2.44,2.44,0,0,0-1.68-2.24l-1.08-.55a2.51,2.51,0,0,1-1.67-2.24,2.28,2.28,0,0,1,2.45-2.29,3.38,3.38,0,0,1,2.31.8l-0.24.29a3.36,3.36,0,0,0-2.17-.72,1.84,1.84,0,0,0-1.93,1.85,2.14,2.14,0,0,0,1.5,1.95l1,0.53a2.82,2.82,0,0,1,1.89,2.58,2.33,2.33,0,0,1-2.49,2.42A3.63,3.63,0,0,1,157.08,406.24Z" transform="translate(-10.75 -9.95)"/>
        <path d="M171.16,398.09h-2.77v-0.38h5.93v0.38h-2.75v9h-0.41v-9Z" transform="translate(-10.75 -9.95)"/>
        <path d="M181.08,397.71h2.45a2.6,2.6,0,0,1,.34,5.18l2.55,4.2h-0.49l-2.5-4.14h-1.95v4.14h-0.41v-9.38Zm2.26,4.88a2,2,0,0,0,2.35-2.26,2,2,0,0,0-2.24-2.25h-2v4.51h1.85Z" transform="translate(-10.75 -9.95)"/>
        <path d="M193.5,397.71h0.41v9.38H193.5v-9.38Z" transform="translate(-10.75 -9.95)"/>
        <path d="M203.65,397.67h0.51l2.79,9.42h-0.43l-1-3.41h-3.29l-1,3.41h-0.41Zm1.76,5.66-1.53-5.17h0l-1.55,5.17h3.09Z" transform="translate(-10.75 -9.95)"/>
        <path d="M213.85,397.71h0.41v9h4.22v0.38h-4.63v-9.38Z" transform="translate(-10.75 -9.95)"/>
      </g>
    </g>
    <rect class="ba9a322e-72bb-4034-b978-8dfbba6a3a31" x="385.18" y="163.2" width="132.84" height="23.31"/>
    <rect class="d4104a2c-cc55-40c0-924a-34ed81e3f592" x="385.18" y="163.2" width="132.84" height="23.31"/>
    <g class="5d5bca12-335e-49a1-82ba-dde0be5a1ce2">
      <g class="5d5bca12-335e-49a1-82ba-dde0be5a1ce2">
        <path d="M414.56,188.89l0.26-.32a3.27,3.27,0,0,0,2.39.91,1.93,1.93,0,0,0,2-2,2.44,2.44,0,0,0-1.68-2.24l-1.08-.55a2.51,2.51,0,0,1-1.67-2.24,2.28,2.28,0,0,1,2.45-2.29,3.39,3.39,0,0,1,2.32.8l-0.24.29a3.36,3.36,0,0,0-2.17-.72,1.84,1.84,0,0,0-1.93,1.85,2.14,2.14,0,0,0,1.5,1.95l1,0.53a2.82,2.82,0,0,1,1.89,2.58,2.33,2.33,0,0,1-2.49,2.42A3.62,3.62,0,0,1,414.56,188.89Z" transform="translate(-10.75 -9.95)"/>
        <path d="M428.89,180.35h0.41v4.3H434v-4.3h0.41v9.38H434V185H429.3v4.7h-0.41v-9.38Z" transform="translate(-10.75 -9.95)"/>
        <path d="M446.11,180.31h0.51l2.79,9.42H449l-1-3.41h-3.29l-1,3.41h-0.41Zm1.76,5.66-1.53-5.17h0L444.78,186h3.09Z" transform="translate(-10.75 -9.95)"/>
        <path d="M458.25,180.35H461a2.32,2.32,0,0,1,2.6,2.46v4.31a2.42,2.42,0,0,1-2.62,2.6h-2.78v-9.38Zm2.7,9a2,2,0,0,0,2.28-2.17V182.9a2,2,0,0,0-2.24-2.17h-2.33v8.62H461Z" transform="translate(-10.75 -9.95)"/>
        <path d="M472.92,180.35h4.63v0.38h-4.22v3.89h3.37V185h-3.37v4.35h4.22v0.38h-4.63v-9.38Z" transform="translate(-10.75 -9.95)"/>
        <path d="M486.64,180.35h2.45a2.6,2.6,0,0,1,.34,5.18l2.55,4.2H491.5l-2.5-4.14h-1.95v4.14h-0.41v-9.38Zm2.26,4.88a2,2,0,0,0,2.35-2.26,2,2,0,0,0-2.24-2.25h-2v4.51h1.86Z" transform="translate(-10.75 -9.95)"/>
        <path d="M500.25,188.89l0.26-.32a3.27,3.27,0,0,0,2.39.91,1.93,1.93,0,0,0,2-2,2.44,2.44,0,0,0-1.68-2.24l-1.08-.55a2.51,2.51,0,0,1-1.67-2.24,2.28,2.28,0,0,1,2.45-2.29,3.38,3.38,0,0,1,2.31.8l-0.24.29a3.36,3.36,0,0,0-2.17-.72,1.84,1.84,0,0,0-1.93,1.85,2.14,2.14,0,0,0,1.5,1.95l1,0.53a2.82,2.82,0,0,1,1.89,2.58,2.33,2.33,0,0,1-2.49,2.42A3.63,3.63,0,0,1,500.25,188.89Z" transform="translate(-10.75 -9.95)"/>
      </g>
    </g>
    <rect class="ba9a322e-72bb-4034-b978-8dfbba6a3a31" x="486" y="380.55" width="132.84" height="23.31"/>
    <rect class="d4104a2c-cc55-40c0-924a-34ed81e3f592" x="486" y="380.55" width="132.84" height="23.31"/>
    <g class="5d5bca12-335e-49a1-82ba-dde0be5a1ce2">
      <path d="M521.59,397.7H522v9h4.22v0.38h-4.63V397.7Z" transform="translate(-10.75 -9.95)"/>
      <path d="M530.37,397.7h0.41v9.38h-0.41V397.7Z" transform="translate(-10.75 -9.95)"/>
      <path d="M534.87,397.7h0.42l2.49,8.88h0l2.53-8.88h0.41l-2.72,9.4h-0.43Z" transform="translate(-10.75 -9.95)"/>
      <path d="M544.8,397.7h4.63v0.38h-4.22V402h3.37v0.37h-3.37v4.35h4.22v0.38H544.8V397.7Z" transform="translate(-10.75 -9.95)"/>
      <path d="M558.18,406.24l0.26-.32a3.27,3.27,0,0,0,2.39.91,1.93,1.93,0,0,0,2-2,2.44,2.44,0,0,0-1.68-2.24l-1.08-.55a2.51,2.51,0,0,1-1.67-2.24,2.28,2.28,0,0,1,2.45-2.29,3.38,3.38,0,0,1,2.31.8l-0.24.29a3.36,3.36,0,0,0-2.17-.72,1.84,1.84,0,0,0-1.93,1.85,2.14,2.14,0,0,0,1.5,1.95l1,0.53a2.82,2.82,0,0,1,1.89,2.58,2.33,2.33,0,0,1-2.49,2.42A3.63,3.63,0,0,1,558.18,406.24Z" transform="translate(-10.75 -9.95)"/>
      <path d="M567.79,397.7h0.41V402h4.71v-4.3h0.41v9.38h-0.41v-4.7H568.2v4.7h-0.41V397.7Z" transform="translate(-10.75 -9.95)"/>
      <path d="M577.88,404.58v-4.2a2.66,2.66,0,0,1,2.85-2.84,2.54,2.54,0,0,1,2.84,2.62v4.21a2.66,2.66,0,0,1-2.85,2.85A2.53,2.53,0,0,1,577.88,404.58Zm5.27-.13v-4.26a2.43,2.43,0,0,0-4.85.22v4.08a2.2,2.2,0,0,0,2.43,2.33A2.22,2.22,0,0,0,583.16,404.45Z" transform="translate(-10.75 -9.95)"/>
      <path d="M587.39,397.7h0.42l1.8,8.73h0l1.87-8.73H592l1.83,8.71h0l1.82-8.71h0.41l-2,9.4H593.6l-1.85-8.83h0l-1.87,8.83h-0.42Z" transform="translate(-10.75 -9.95)"/>
      <path d="M599.51,406.24l0.26-.32a3.27,3.27,0,0,0,2.39.91,1.93,1.93,0,0,0,2-2,2.44,2.44,0,0,0-1.68-2.24l-1.08-.55a2.51,2.51,0,0,1-1.67-2.24,2.28,2.28,0,0,1,2.45-2.29,3.38,3.38,0,0,1,2.31.8l-0.24.29a3.36,3.36,0,0,0-2.17-.72,1.84,1.84,0,0,0-1.93,1.85,2.14,2.14,0,0,0,1.5,1.95l1,0.53a2.82,2.82,0,0,1,1.89,2.58,2.33,2.33,0,0,1-2.49,2.42A3.63,3.63,0,0,1,599.51,406.24Z" transform="translate(-10.75 -9.95)"/>
    </g>
    <g>
      <line class="294f8124-30de-4276-b442-1c2f0bbc1a6a" x1="286.79" y1="350.21" x2="285.79" y2="350.21"/>
      <line class="a1e22a52-cb45-4ad8-853f-e466eef4b17a" x1="283.74" y1="350.21" x2="223.26" y2="350.21"/>
      <line class="294f8124-30de-4276-b442-1c2f0bbc1a6a" x1="222.23" y1="350.21" x2="221.23" y2="350.21"/>
    </g>
    <g>
      <line class="294f8124-30de-4276-b442-1c2f0bbc1a6a" x1="347.03" y1="350.25" x2="346.03" y2="350.25"/>
      <path class="281e3727-600f-4b2f-9bcc-cbb401367fc6" d="M354.76,360.2H292.58a7,7,0,0,0-7,7v28a7,7,0,0,1-7,7H234" transform="translate(-10.75 -9.95)"/>
      <line class="294f8124-30de-4276-b442-1c2f0bbc1a6a" x1="222.23" y1="392.2" x2="221.23" y2="392.2"/>
    </g>
    <g>
      <line class="294f8124-30de-4276-b442-1c2f0bbc1a6a" x1="221.23" y1="308.19" x2="222.23" y2="308.19"/>
      <path class="281e3727-600f-4b2f-9bcc-cbb401367fc6" d="M235,318.14h43.59a7,7,0,0,1,7,7h0v28a7,7,0,0,0,7,7h63.19" transform="translate(-10.75 -9.95)"/>
      <line class="294f8124-30de-4276-b442-1c2f0bbc1a6a" x1="346.03" y1="350.14" x2="347.03" y2="350.14"/>
    </g>
    <g>
      <line class="294f8124-30de-4276-b442-1c2f0bbc1a6a" x1="485.98" y1="350.21" x2="484.98" y2="350.21"/>
      <line class="a1e22a52-cb45-4ad8-853f-e466eef4b17a" x1="482.93" y1="350.21" x2="422.45" y2="350.21"/>
      <line class="294f8124-30de-4276-b442-1c2f0bbc1a6a" x1="421.43" y1="350.21" x2="420.43" y2="350.21"/>
    </g>
    <g>
      <line class="294f8124-30de-4276-b442-1c2f0bbc1a6a" x1="485.98" y1="392.2" x2="484.98" y2="392.2"/>
      <path class="281e3727-600f-4b2f-9bcc-cbb401367fc6" d="M493.71,402.15H450.12a7,7,0,0,1-7-7v-28a7,7,0,0,0-7-7H372.95" transform="translate(-10.75 -9.95)"/>
      <line class="294f8124-30de-4276-b442-1c2f0bbc1a6a" x1="361.19" y1="350.25" x2="360.19" y2="350.25"/>
    </g>
    <g>
      <line class="294f8124-30de-4276-b442-1c2f0bbc1a6a" x1="347.03" y1="350.25" x2="348.03" y2="350.25"/>
      <path class="4f918379-6a5d-47c2-b8cd-fe097f1f80ef" d="M360.77,360.2l75.37-.1a7,7,0,0,0,7-7v-28h0a7,7,0,0,1,7-7h44.62" transform="translate(-10.75 -9.95)"/>
      <line class="294f8124-30de-4276-b442-1c2f0bbc1a6a" x1="484.98" y1="308.19" x2="485.98" y2="308.19"/>
    </g>
    <g>
      <line class="294f8124-30de-4276-b442-1c2f0bbc1a6a" x1="347.1" y1="305.97" x2="347.1" y2="304.97"/>
      <path class="2a55cc56-3ccc-4e3e-aef4-1290355d5fac" d="M357.85,312.94v-6.15a51.46,51.46,0,0,0-51.46-51.46h0a51.46,51.46,0,0,1-51.46-51.46v-5.41" transform="translate(-10.75 -9.95)"/>
      <line class="294f8124-30de-4276-b442-1c2f0bbc1a6a" x1="244.17" y1="187.51" x2="244.17" y2="186.51"/>
    </g>
    <g>
      <line class="294f8124-30de-4276-b442-1c2f0bbc1a6a" x1="347.1" y1="305.97" x2="347.1" y2="304.97"/>
      <path class="0386d351-17e1-4e7b-82a4-93babb2f54f2" d="M357.85,312.93v-5.36a52.25,52.25,0,0,1,52.25-52.25h0a52.25,52.25,0,0,0,52.25-52.25v-4.63" transform="translate(-10.75 -9.95)"/>
      <line class="294f8124-30de-4276-b442-1c2f0bbc1a6a" x1="451.6" y1="187.51" x2="451.6" y2="186.51"/>
    </g>
    <rect class="ba9a322e-72bb-4034-b978-8dfbba6a3a31" x="176.75" y="497.62" width="132.84" height="23.31"/>
    <rect class="d4104a2c-cc55-40c0-924a-34ed81e3f592" x="176.75" y="497.62" width="132.84" height="23.31"/>
    <g class="5d5bca12-335e-49a1-82ba-dde0be5a1ce2">
      <g class="5d5bca12-335e-49a1-82ba-dde0be5a1ce2">
        <path d="M237.27,514.5h0.51l2.79,9.42h-0.43l-1-3.41h-3.29l-1,3.41h-0.41Zm1.76,5.66L237.5,515h0l-1.55,5.17H239Z" transform="translate(-10.75 -9.95)"/>
        <path d="M246,514.54h2.42a2.41,2.41,0,0,1,2.53,2.64,2.58,2.58,0,0,1-2.8,2.78h-1.74v4H246v-9.38Zm2,5.05a2.19,2.19,0,0,0,2.47-2.38,2,2,0,0,0-2.09-2.29h-2v4.67h1.63Z" transform="translate(-10.75 -9.95)"/>
        <path d="M256.79,514.54h2.42a2.41,2.41,0,0,1,2.53,2.64,2.58,2.58,0,0,1-2.8,2.78H257.2v4h-0.41v-9.38Zm2,5.05a2.19,2.19,0,0,0,2.47-2.38,2,2,0,0,0-2.09-2.29h-2v4.67h1.63Z" transform="translate(-10.75 -9.95)"/>
        <path d="M266.93,523.07l0.26-.32a3.27,3.27,0,0,0,2.39.91,1.93,1.93,0,0,0,2-2,2.44,2.44,0,0,0-1.68-2.24l-1.08-.55a2.51,2.51,0,0,1-1.67-2.24,2.28,2.28,0,0,1,2.45-2.29,3.38,3.38,0,0,1,2.31.8l-0.24.29a3.36,3.36,0,0,0-2.17-.72,1.84,1.84,0,0,0-1.93,1.85,2.14,2.14,0,0,0,1.5,1.95l1,0.53a2.82,2.82,0,0,1,1.89,2.58,2.33,2.33,0,0,1-2.49,2.42A3.63,3.63,0,0,1,266.93,523.07Z" transform="translate(-10.75 -9.95)"/>
      </g>
    </g>
    <rect class="ba9a322e-72bb-4034-b978-8dfbba6a3a31" x="384.17" y="497.62" width="132.84" height="23.31"/>
    <rect class="d4104a2c-cc55-40c0-924a-34ed81e3f592" x="384.17" y="497.62" width="132.84" height="23.31"/>
    <g class="5d5bca12-335e-49a1-82ba-dde0be5a1ce2">
      <g class="5d5bca12-335e-49a1-82ba-dde0be5a1ce2">
        <path d="M431.66,521.47v-4.35a2.67,2.67,0,0,1,2.84-2.74,2.35,2.35,0,0,1,2.64,2.21v0.74h-0.39v-0.62c0-1.1-.82-1.93-2.3-1.93a2.26,2.26,0,0,0-2.38,2.42v4.21a2.16,2.16,0,0,0,2.43,2.28,2,2,0,0,0,2.3-2.09v-2h-2.24v-0.39h2.64v2.47a2.4,2.4,0,0,1-2.71,2.35C432.81,524.06,431.66,523.18,431.66,521.47Z" transform="translate(-10.75 -9.95)"/>
        <path d="M447.89,514.5h0.51l2.79,9.42h-0.43l-1-3.41h-3.29l-1,3.41h-0.41Zm1.76,5.66L448.13,515h0l-1.55,5.17h3.09Z" transform="translate(-10.75 -9.95)"/>
        <path d="M459.27,514.54h0.55l2.6,5h0l2.58-5h0.57v9.38h-0.42v-8.75h0l-2.55,5h-0.35l-2.54-4.95h0v8.73h-0.39v-9.38Z" transform="translate(-10.75 -9.95)"/>
        <path d="M474.36,514.54H479v0.38h-4.22v3.89h3.37v0.37h-3.37v4.35H479v0.38h-4.63v-9.38Z" transform="translate(-10.75 -9.95)"/>
        <path d="M486.29,523.07l0.26-.32a3.27,3.27,0,0,0,2.39.91,1.93,1.93,0,0,0,2-2,2.44,2.44,0,0,0-1.68-2.24l-1.08-.55a2.51,2.51,0,0,1-1.67-2.24,2.28,2.28,0,0,1,2.45-2.29,3.38,3.38,0,0,1,2.31.8l-0.24.29a3.36,3.36,0,0,0-2.17-.72,1.84,1.84,0,0,0-1.93,1.85,2.14,2.14,0,0,0,1.5,1.95l1,0.53a2.82,2.82,0,0,1,1.89,2.58,2.33,2.33,0,0,1-2.49,2.42A3.63,3.63,0,0,1,486.29,523.07Z" transform="translate(-10.75 -9.95)"/>
      </g>
    </g>
    <g>
      <line class="294f8124-30de-4276-b442-1c2f0bbc1a6a" x1="243.74" y1="497.62" x2="243.74" y2="496.62"/>
      <path class="9cf949e2-46f2-48a3-8a84-30f12023bb83" d="M254.49,504.58v-4.4c0-28.42,23-33.91,51.46-33.91h0a51.46,51.46,0,0,0,51.46-51.46v-7.13" transform="translate(-10.75 -9.95)"/>
      <line class="294f8124-30de-4276-b442-1c2f0bbc1a6a" x1="346.66" y1="396.72" x2="346.66" y2="395.72"/>
    </g>
    <g>
      <line class="294f8124-30de-4276-b442-1c2f0bbc1a6a" x1="451.16" y1="497.62" x2="451.16" y2="496.62"/>
      <path class="515c4eb3-ba37-476d-8207-cfab3cc999ef" d="M461.91,504.57V501c0-28.86-23.39-34.69-52.25-34.69h0A52.25,52.25,0,0,1,357.42,414v-6.34" transform="translate(-10.75 -9.95)"/>
      <line class="294f8124-30de-4276-b442-1c2f0bbc1a6a" x1="346.66" y1="396.72" x2="346.66" y2="395.72"/>
    </g>
    <g>
      <polygon class="294f8124-30de-4276-b442-1c2f0bbc1a6a" points="361.4 370.74 346.72 390.95 332.04 370.74 361.4 370.74"/>
      <polygon class="294f8124-30de-4276-b442-1c2f0bbc1a6a" points="361.4 370.74 371.69 384.91 346.72 390.95 361.4 370.74"/>
      <polygon class="294f8124-30de-4276-b442-1c2f0bbc1a6a" points="321.75 384.91 346.72 390.95 332.04 370.74 321.75 384.91"/>
      <polygon class="294f8124-30de-4276-b442-1c2f0bbc1a6a" points="346.72 390.95 361.4 395.71 332.04 395.71 346.72 390.95"/>
      <polygon class="294f8124-30de-4276-b442-1c2f0bbc1a6a" points="371.69 384.91 346.72 390.95 361.4 395.71 371.69 384.91"/>
      <polygon class="294f8124-30de-4276-b442-1c2f0bbc1a6a" points="385.15 378.46 361.4 395.71 371.69 384.91 385.15 378.46"/>
      <polygon class="294f8124-30de-4276-b442-1c2f0bbc1a6a" points="385.15 363.03 394.22 350.54 385.15 378.46 385.15 363.03"/>
      <polygon class="294f8124-30de-4276-b442-1c2f0bbc1a6a" points="371.69 384.91 385.15 363.03 385.15 378.46 371.69 384.91"/>
      <polygon class="294f8124-30de-4276-b442-1c2f0bbc1a6a" points="385.15 363.03 361.4 370.74 371.69 384.91 385.15 363.03"/>
      <polygon class="294f8124-30de-4276-b442-1c2f0bbc1a6a" points="361.4 370.74 346.72 350.54 370.47 342.83 361.4 370.74"/>
      <polygon class="294f8124-30de-4276-b442-1c2f0bbc1a6a" points="385.15 363.03 370.47 342.83 361.4 370.74 385.15 363.03"/>
      <polygon class="294f8124-30de-4276-b442-1c2f0bbc1a6a" points="387.13 337.42 385.15 363.03 394.22 350.54 387.13 337.42"/>
      <polygon class="294f8124-30de-4276-b442-1c2f0bbc1a6a" points="370.47 342.83 387.13 337.42 385.15 363.03 370.47 342.83"/>
      <polygon class="294f8124-30de-4276-b442-1c2f0bbc1a6a" points="370.47 342.83 346.72 325.57 346.72 350.54 370.47 342.83"/>
      <polygon class="294f8124-30de-4276-b442-1c2f0bbc1a6a" points="370.47 317.86 346.72 325.57 370.47 342.83 370.47 317.86"/>
      <polygon class="294f8124-30de-4276-b442-1c2f0bbc1a6a" points="387.13 337.42 385.15 322.63 394.22 350.54 387.13 337.42"/>
      <polygon class="294f8124-30de-4276-b442-1c2f0bbc1a6a" points="370.47 317.86 387.13 337.42 385.15 322.63 370.47 317.86"/>
      <polygon class="294f8124-30de-4276-b442-1c2f0bbc1a6a" points="370.47 317.86 370.47 342.83 387.13 337.42 370.47 317.86"/>
      <polygon class="294f8124-30de-4276-b442-1c2f0bbc1a6a" points="346.72 308.06 370.47 317.86 346.72 325.57 346.72 308.06"/>
      <polygon class="294f8124-30de-4276-b442-1c2f0bbc1a6a" points="370.47 317.86 361.4 305.37 385.15 322.63 370.47 317.86"/>
      <polygon class="294f8124-30de-4276-b442-1c2f0bbc1a6a" points="346.72 308.06 370.47 317.86 361.4 305.37 346.72 308.06"/>
      <polygon class="294f8124-30de-4276-b442-1c2f0bbc1a6a" points="361.4 305.37 332.04 305.37 346.72 308.06 361.4 305.37"/>
      <polygon class="294f8124-30de-4276-b442-1c2f0bbc1a6a" points="346.72 308.06 322.97 317.86 332.04 305.37 346.72 308.06"/>
      <polygon class="294f8124-30de-4276-b442-1c2f0bbc1a6a" points="322.97 317.86 332.04 305.37 308.3 322.63 322.97 317.86"/>
      <polygon class="294f8124-30de-4276-b442-1c2f0bbc1a6a" points="346.72 308.06 322.97 317.86 346.72 325.57 346.72 308.06"/>
      <polygon class="294f8124-30de-4276-b442-1c2f0bbc1a6a" points="322.97 317.86 322.97 342.83 306.32 337.42 322.97 317.86"/>
      <polygon class="294f8124-30de-4276-b442-1c2f0bbc1a6a" points="322.97 317.86 306.32 337.42 308.3 322.63 322.97 317.86"/>
      <polygon class="294f8124-30de-4276-b442-1c2f0bbc1a6a" points="306.32 337.42 308.3 322.63 299.22 350.54 306.32 337.42"/>
      <polygon class="294f8124-30de-4276-b442-1c2f0bbc1a6a" points="322.97 317.86 346.72 325.57 322.97 342.83 322.97 317.86"/>
      <polygon class="294f8124-30de-4276-b442-1c2f0bbc1a6a" points="322.97 342.83 346.72 325.57 346.72 350.54 322.97 342.83"/>
      <polygon class="294f8124-30de-4276-b442-1c2f0bbc1a6a" points="322.97 342.83 306.32 337.42 308.3 363.03 322.97 342.83"/>
      <polygon class="294f8124-30de-4276-b442-1c2f0bbc1a6a" points="306.32 337.42 308.3 363.03 299.22 350.54 306.32 337.42"/>
      <polygon class="294f8124-30de-4276-b442-1c2f0bbc1a6a" points="308.3 363.03 322.97 342.83 332.04 370.74 308.3 363.03"/>
      <polygon class="294f8124-30de-4276-b442-1c2f0bbc1a6a" points="332.04 370.74 346.72 350.54 322.97 342.83 332.04 370.74"/>
      <polygon class="294f8124-30de-4276-b442-1c2f0bbc1a6a" points="346.72 350.54 332.04 370.74 361.4 370.75 346.72 350.54"/>
      <polygon class="294f8124-30de-4276-b442-1c2f0bbc1a6a" points="308.3 363.03 332.04 370.74 321.75 384.91 308.3 363.03"/>
      <polygon class="294f8124-30de-4276-b442-1c2f0bbc1a6a" points="321.75 384.91 308.3 363.03 308.3 378.46 321.75 384.91"/>
      <polygon class="294f8124-30de-4276-b442-1c2f0bbc1a6a" points="308.3 363.03 299.22 350.54 308.3 378.46 308.3 363.03"/>
      <polygon class="294f8124-30de-4276-b442-1c2f0bbc1a6a" points="308.3 378.46 332.04 395.71 321.75 384.91 308.3 378.46"/>
      <polygon class="294f8124-30de-4276-b442-1c2f0bbc1a6a" points="321.75 384.91 346.72 390.95 332.04 395.71 321.75 384.91"/>
    </g>
    <g>
      <polygon class="294f8124-30de-4276-b442-1c2f0bbc1a6a" points="653.08 352.71 688.48 243.75 688.48 461.67 653.08 352.71"/>
      <polygon class="294f8124-30de-4276-b442-1c2f0bbc1a6a" points="608.29 167.34 653.08 352.71 688.48 243.75 608.29 167.34"/>
      <polygon class="294f8124-30de-4276-b442-1c2f0bbc1a6a" points="560.4 67.46 688.48 243.75 608.29 167.34 560.4 67.46"/>
      <polygon class="294f8124-30de-4276-b442-1c2f0bbc1a6a" points="445.84 67.46 353.15 0.13 560.4 67.46 445.84 67.46"/>
      <polygon class="294f8124-30de-4276-b442-1c2f0bbc1a6a" points="608.29 167.34 445.84 67.46 560.4 67.46 608.29 167.34"/>
      <polygon class="294f8124-30de-4276-b442-1c2f0bbc1a6a" points="255.7 52.78 445.84 67.46 353.15 0.13 255.7 52.78"/>
      <polygon class="294f8124-30de-4276-b442-1c2f0bbc1a6a" points="255.7 52.78 145.91 67.46 353.15 0.13 255.7 52.78"/>
      <polygon class="294f8124-30de-4276-b442-1c2f0bbc1a6a" points="110.51 176.42 255.7 52.78 145.91 67.46 110.51 176.42"/>
      <polygon class="294f8124-30de-4276-b442-1c2f0bbc1a6a" points="110.51 176.42 17.83 243.75 145.91 67.46 110.51 176.42"/>
      <polygon class="294f8124-30de-4276-b442-1c2f0bbc1a6a" points="37.79 352.71 110.51 176.42 17.83 243.75 37.79 352.71"/>
      <polygon class="294f8124-30de-4276-b442-1c2f0bbc1a6a" points="17.82 243.76 17.82 461.66 37.79 352.71 17.82 243.76"/>
      <polygon class="294f8124-30de-4276-b442-1c2f0bbc1a6a" points="37.79 352.71 110.51 529 17.83 461.67 37.79 352.71"/>
      <polygon class="294f8124-30de-4276-b442-1c2f0bbc1a6a" points="110.51 529 17.83 461.67 145.91 637.96 110.51 529"/>
      <polygon class="294f8124-30de-4276-b442-1c2f0bbc1a6a" points="110.51 529 255.7 652.64 145.91 637.96 110.51 529"/>
      <polygon class="294f8124-30de-4276-b442-1c2f0bbc1a6a" points="255.7 652.64 145.91 637.96 353.15 705.3 255.7 652.64"/>
      <polygon class="294f8124-30de-4276-b442-1c2f0bbc1a6a" points="255.7 652.64 445.84 637.96 353.15 705.3 255.7 652.64"/>
      <polygon class="294f8124-30de-4276-b442-1c2f0bbc1a6a" points="608.29 538.08 445.84 637.96 560.4 637.96 608.29 538.08"/>
      <polygon class="294f8124-30de-4276-b442-1c2f0bbc1a6a" points="445.84 637.96 353.15 705.3 560.4 637.96 445.84 637.96"/>
      <polygon class="294f8124-30de-4276-b442-1c2f0bbc1a6a" points="560.4 637.96 688.48 461.67 608.29 538.08 560.4 637.96"/>
      <polygon class="294f8124-30de-4276-b442-1c2f0bbc1a6a" points="608.29 538.08 653.08 352.71 688.48 461.67 608.29 538.08"/>
    </g>
    <g>
      <polygon class="84f3455c-b655-4e9e-8ef0-cc14f2e41c93" points="637.45 257.85 636.91 143.29 705.21 350.22 637.45 257.85"/>
      <polygon class="84f3455c-b655-4e9e-8ef0-cc14f2e41c93" points="536.81 95.86 637.45 257.85 636.91 143.29 536.81 95.86"/>
      <polygon class="84f3455c-b655-4e9e-8ef0-cc14f2e41c93" points="460.03 16.02 636.91 143.29 536.81 95.86 460.03 16.02"/>
      <polygon class="84f3455c-b655-4e9e-8ef0-cc14f2e41c93" points="351.24 51.93 242.12 17.04 460.03 16.02 351.24 51.93"/>
      <polygon class="84f3455c-b655-4e9e-8ef0-cc14f2e41c93" points="536.81 95.86 351.24 51.93 460.03 16.02 536.81 95.86"/>
      <polygon class="84f3455c-b655-4e9e-8ef0-cc14f2e41c93" points="166.08 97.58 351.24 51.93 242.12 17.04 166.08 97.58"/>
      <polygon class="84f3455c-b655-4e9e-8ef0-cc14f2e41c93" points="166.08 97.58 66.42 145.94 242.12 17.04 166.08 97.58"/>
      <polygon class="84f3455c-b655-4e9e-8ef0-cc14f2e41c93" points="66.96 260.5 166.08 97.58 66.42 145.94 66.96 260.5"/>
      <polygon class="84f3455c-b655-4e9e-8ef0-cc14f2e41c93" points="66.96 260.5 0.05 353.49 66.42 145.94 66.96 260.5"/>
      <polygon class="84f3455c-b655-4e9e-8ef0-cc14f2e41c93" points="53.16 450.7 66.96 260.5 0.05 353.49 53.16 450.7"/>
      <polygon class="84f3455c-b655-4e9e-8ef0-cc14f2e41c93" points="0.05 353.49 68.35 560.42 53.16 450.7 0.05 353.49"/>
      <polygon class="84f3455c-b655-4e9e-8ef0-cc14f2e41c93" points="53.16 450.7 177.47 595.32 68.35 560.42 53.16 450.7"/>
      <polygon class="84f3455c-b655-4e9e-8ef0-cc14f2e41c93" points="177.47 595.32 68.35 560.42 245.24 687.69 177.47 595.32"/>
      <polygon class="84f3455c-b655-4e9e-8ef0-cc14f2e41c93" points="177.47 595.32 354.1 667.21 245.24 687.69 177.47 595.32"/>
      <polygon class="84f3455c-b655-4e9e-8ef0-cc14f2e41c93" points="354.1 667.21 245.24 687.69 463.14 686.67 354.1 667.21"/>
      <polygon class="84f3455c-b655-4e9e-8ef0-cc14f2e41c93" points="354.1 667.21 530.05 593.68 463.14 686.67 354.1 667.21"/>
      <polygon class="84f3455c-b655-4e9e-8ef0-cc14f2e41c93" points="653.01 447.91 530.05 593.68 638.84 557.77 653.01 447.91"/>
      <polygon class="84f3455c-b655-4e9e-8ef0-cc14f2e41c93" points="530.05 593.68 463.14 686.67 638.84 557.77 530.05 593.68"/>
      <polygon class="84f3455c-b655-4e9e-8ef0-cc14f2e41c93" points="638.84 557.77 705.21 350.22 653.01 447.91 638.84 557.77"/>
      <polygon class="84f3455c-b655-4e9e-8ef0-cc14f2e41c93" points="653.01 447.92 637.45 257.85 705.21 350.22 653.01 447.92"/>
    </g>
    <g>
      <line class="20dae38d-05d4-48e3-8025-8db0d67291f6" x1="346.72" y1="350.54" x2="346.72" y2="351.54"/>
      <line class="add34418-9a9a-4f31-8c5a-9856a95562b6" x1="346.72" y1="353.55" x2="346.72" y2="565.51"/>
      <line class="20dae38d-05d4-48e3-8025-8db0d67291f6" x1="346.72" y1="566.52" x2="346.72" y2="567.52"/>
    </g>
  </g>
</svg>
